G04 #@! TF.GenerationSoftware,KiCad,Pcbnew,9.0.7-9.0.7~ubuntu24.04.1*
G04 #@! TF.CreationDate,2026-03-19T16:30:49-06:00*
G04 #@! TF.ProjectId,ckt-audiojack,636b742d-6175-4646-996f-6a61636b2e6b,rev?*
G04 #@! TF.SameCoordinates,Original*
G04 #@! TF.FileFunction,Soldermask,Top*
G04 #@! TF.FilePolarity,Negative*
%FSLAX46Y46*%
G04 Gerber Fmt 4.6, Leading zero omitted, Abs format (unit mm)*
G04 Created by KiCad (PCBNEW 9.0.7-9.0.7~ubuntu24.04.1) date 2026-03-19 16:30:49*
%MOMM*%
%LPD*%
G01*
G04 APERTURE LIST*
%ADD10C,1.854200*%
%ADD11C,6.552400*%
%ADD12C,2.452400*%
G04 APERTURE END LIST*
G36*
X95908000Y-108446000D02*
G01*
X95608000Y-108446000D01*
X95608000Y-106946000D01*
X95908000Y-106946000D01*
X95908000Y-108446000D01*
G37*
G36*
G01*
X63756200Y-97022900D02*
X63756200Y-98049100D01*
G75*
G02*
X63468100Y-98337200I-288100J0D01*
G01*
X62891900Y-98337200D01*
G75*
G02*
X62603800Y-98049100I0J288100D01*
G01*
X62603800Y-97022900D01*
G75*
G02*
X62891900Y-96734800I288100J0D01*
G01*
X63468100Y-96734800D01*
G75*
G02*
X63756200Y-97022900I0J-288100D01*
G01*
G37*
G36*
G01*
X61856200Y-97022900D02*
X61856200Y-98049100D01*
G75*
G02*
X61568100Y-98337200I-288100J0D01*
G01*
X60991900Y-98337200D01*
G75*
G02*
X60703800Y-98049100I0J288100D01*
G01*
X60703800Y-97022900D01*
G75*
G02*
X60991900Y-96734800I288100J0D01*
G01*
X61568100Y-96734800D01*
G75*
G02*
X61856200Y-97022900I0J-288100D01*
G01*
G37*
G36*
G01*
X63756200Y-100070900D02*
X63756200Y-101097100D01*
G75*
G02*
X63468100Y-101385200I-288100J0D01*
G01*
X62891900Y-101385200D01*
G75*
G02*
X62603800Y-101097100I0J288100D01*
G01*
X62603800Y-100070900D01*
G75*
G02*
X62891900Y-99782800I288100J0D01*
G01*
X63468100Y-99782800D01*
G75*
G02*
X63756200Y-100070900I0J-288100D01*
G01*
G37*
G36*
G01*
X61856200Y-100070900D02*
X61856200Y-101097100D01*
G75*
G02*
X61568100Y-101385200I-288100J0D01*
G01*
X60991900Y-101385200D01*
G75*
G02*
X60703800Y-101097100I0J288100D01*
G01*
X60703800Y-100070900D01*
G75*
G02*
X60991900Y-99782800I288100J0D01*
G01*
X61568100Y-99782800D01*
G75*
G02*
X61856200Y-100070900I0J-288100D01*
G01*
G37*
D10*
X101561900Y-94996000D03*
X94551500Y-94996000D03*
G36*
G01*
X104343200Y-89822020D02*
X106553000Y-89822020D01*
G75*
G02*
X106629200Y-89898220I0J-76200D01*
G01*
X106629200Y-92692220D01*
G75*
G02*
X106553000Y-92768420I-76200J0D01*
G01*
X104343200Y-92768420D01*
G75*
G02*
X104267000Y-92692220I0J76200D01*
G01*
X104267000Y-89898220D01*
G75*
G02*
X104343200Y-89822020I76200J0D01*
G01*
G37*
G36*
G01*
X91859100Y-89822020D02*
X94653100Y-89822020D01*
G75*
G02*
X94729300Y-89898220I0J-76200D01*
G01*
X94729300Y-92692220D01*
G75*
G02*
X94653100Y-92768420I-76200J0D01*
G01*
X91859100Y-92768420D01*
G75*
G02*
X91782900Y-92692220I0J76200D01*
G01*
X91782900Y-89898220D01*
G75*
G02*
X91859100Y-89822020I76200J0D01*
G01*
G37*
G36*
G01*
X99644200Y-97223580D02*
X101854000Y-97223580D01*
G75*
G02*
X101930200Y-97299780I0J-76200D01*
G01*
X101930200Y-100093780D01*
G75*
G02*
X101854000Y-100169980I-76200J0D01*
G01*
X99644200Y-100169980D01*
G75*
G02*
X99568000Y-100093780I0J76200D01*
G01*
X99568000Y-97299780D01*
G75*
G02*
X99644200Y-97223580I76200J0D01*
G01*
G37*
G36*
G01*
X101549200Y-89822020D02*
X103759000Y-89822020D01*
G75*
G02*
X103835200Y-89898220I0J-76200D01*
G01*
X103835200Y-92692220D01*
G75*
G02*
X103759000Y-92768420I-76200J0D01*
G01*
X101549200Y-92768420D01*
G75*
G02*
X101473000Y-92692220I0J76200D01*
G01*
X101473000Y-89898220D01*
G75*
G02*
X101549200Y-89822020I76200J0D01*
G01*
G37*
G36*
G01*
X90421800Y-88016100D02*
X90421800Y-86989900D01*
G75*
G02*
X90709900Y-86701800I288100J0D01*
G01*
X91286100Y-86701800D01*
G75*
G02*
X91574200Y-86989900I0J-288100D01*
G01*
X91574200Y-88016100D01*
G75*
G02*
X91286100Y-88304200I-288100J0D01*
G01*
X90709900Y-88304200D01*
G75*
G02*
X90421800Y-88016100I0J288100D01*
G01*
G37*
G36*
G01*
X92321800Y-88016100D02*
X92321800Y-86989900D01*
G75*
G02*
X92609900Y-86701800I288100J0D01*
G01*
X93186100Y-86701800D01*
G75*
G02*
X93474200Y-86989900I0J-288100D01*
G01*
X93474200Y-88016100D01*
G75*
G02*
X93186100Y-88304200I-288100J0D01*
G01*
X92609900Y-88304200D01*
G75*
G02*
X92321800Y-88016100I0J288100D01*
G01*
G37*
D11*
X103632000Y-84328000D03*
G36*
G01*
X55692900Y-97183800D02*
X57019100Y-97183800D01*
G75*
G02*
X57207200Y-97371900I0J-188100D01*
G01*
X57207200Y-97748100D01*
G75*
G02*
X57019100Y-97936200I-188100J0D01*
G01*
X55692900Y-97936200D01*
G75*
G02*
X55504800Y-97748100I0J188100D01*
G01*
X55504800Y-97371900D01*
G75*
G02*
X55692900Y-97183800I188100J0D01*
G01*
G37*
G36*
G01*
X55692900Y-98183800D02*
X57019100Y-98183800D01*
G75*
G02*
X57207200Y-98371900I0J-188100D01*
G01*
X57207200Y-98748100D01*
G75*
G02*
X57019100Y-98936200I-188100J0D01*
G01*
X55692900Y-98936200D01*
G75*
G02*
X55504800Y-98748100I0J188100D01*
G01*
X55504800Y-98371900D01*
G75*
G02*
X55692900Y-98183800I188100J0D01*
G01*
G37*
G36*
G01*
X55692900Y-99183800D02*
X57019100Y-99183800D01*
G75*
G02*
X57207200Y-99371900I0J-188100D01*
G01*
X57207200Y-99748100D01*
G75*
G02*
X57019100Y-99936200I-188100J0D01*
G01*
X55692900Y-99936200D01*
G75*
G02*
X55504800Y-99748100I0J188100D01*
G01*
X55504800Y-99371900D01*
G75*
G02*
X55692900Y-99183800I188100J0D01*
G01*
G37*
G36*
G01*
X55692900Y-100183800D02*
X57019100Y-100183800D01*
G75*
G02*
X57207200Y-100371900I0J-188100D01*
G01*
X57207200Y-100748100D01*
G75*
G02*
X57019100Y-100936200I-188100J0D01*
G01*
X55692900Y-100936200D01*
G75*
G02*
X55504800Y-100748100I0J188100D01*
G01*
X55504800Y-100371900D01*
G75*
G02*
X55692900Y-100183800I188100J0D01*
G01*
G37*
G36*
G01*
X51786550Y-95583800D02*
X53175450Y-95583800D01*
G75*
G02*
X53457200Y-95865550I0J-281750D01*
G01*
X53457200Y-96654450D01*
G75*
G02*
X53175450Y-96936200I-281750J0D01*
G01*
X51786550Y-96936200D01*
G75*
G02*
X51504800Y-96654450I0J281750D01*
G01*
X51504800Y-95865550D01*
G75*
G02*
X51786550Y-95583800I281750J0D01*
G01*
G37*
G36*
G01*
X51786550Y-101183800D02*
X53175450Y-101183800D01*
G75*
G02*
X53457200Y-101465550I0J-281750D01*
G01*
X53457200Y-102254450D01*
G75*
G02*
X53175450Y-102536200I-281750J0D01*
G01*
X51786550Y-102536200D01*
G75*
G02*
X51504800Y-102254450I0J281750D01*
G01*
X51504800Y-101465550D01*
G75*
G02*
X51786550Y-101183800I281750J0D01*
G01*
G37*
X103632000Y-107442000D03*
G36*
G01*
X79911800Y-103702634D02*
X79911800Y-101783366D01*
G75*
G02*
X80178366Y-101516800I266566J0D01*
G01*
X82097634Y-101516800D01*
G75*
G02*
X82364200Y-101783366I0J-266566D01*
G01*
X82364200Y-103702634D01*
G75*
G02*
X82097634Y-103969200I-266566J0D01*
G01*
X80178366Y-103969200D01*
G75*
G02*
X79911800Y-103702634I0J266566D01*
G01*
G37*
D12*
X84638000Y-102743000D03*
X88138000Y-102743000D03*
D11*
X55118000Y-107442000D03*
X55118000Y-84328000D03*
G36*
G01*
X69411800Y-103702634D02*
X69411800Y-101783366D01*
G75*
G02*
X69678366Y-101516800I266566J0D01*
G01*
X71597634Y-101516800D01*
G75*
G02*
X71864200Y-101783366I0J-266566D01*
G01*
X71864200Y-103702634D01*
G75*
G02*
X71597634Y-103969200I-266566J0D01*
G01*
X69678366Y-103969200D01*
G75*
G02*
X69411800Y-103702634I0J266566D01*
G01*
G37*
D12*
X74138000Y-102743000D03*
X77638000Y-102743000D03*
G36*
G01*
X90421800Y-85222100D02*
X90421800Y-84195900D01*
G75*
G02*
X90709900Y-83907800I288100J0D01*
G01*
X91286100Y-83907800D01*
G75*
G02*
X91574200Y-84195900I0J-288100D01*
G01*
X91574200Y-85222100D01*
G75*
G02*
X91286100Y-85510200I-288100J0D01*
G01*
X90709900Y-85510200D01*
G75*
G02*
X90421800Y-85222100I0J288100D01*
G01*
G37*
G36*
G01*
X92321800Y-85222100D02*
X92321800Y-84195900D01*
G75*
G02*
X92609900Y-83907800I288100J0D01*
G01*
X93186100Y-83907800D01*
G75*
G02*
X93474200Y-84195900I0J-288100D01*
G01*
X93474200Y-85222100D01*
G75*
G02*
X93186100Y-85510200I-288100J0D01*
G01*
X92609900Y-85510200D01*
G75*
G02*
X92321800Y-85222100I0J288100D01*
G01*
G37*
G36*
G01*
X63731200Y-103142970D02*
X63731200Y-104121030D01*
G75*
G02*
X63444030Y-104408200I-287170J0D01*
G01*
X62840970Y-104408200D01*
G75*
G02*
X62553800Y-104121030I0J287170D01*
G01*
X62553800Y-103142970D01*
G75*
G02*
X62840970Y-102855800I287170J0D01*
G01*
X63444030Y-102855800D01*
G75*
G02*
X63731200Y-103142970I0J-287170D01*
G01*
G37*
G36*
G01*
X61906200Y-103142970D02*
X61906200Y-104121030D01*
G75*
G02*
X61619030Y-104408200I-287170J0D01*
G01*
X61015970Y-104408200D01*
G75*
G02*
X60728800Y-104121030I0J287170D01*
G01*
X60728800Y-103142970D01*
G75*
G02*
X61015970Y-102855800I287170J0D01*
G01*
X61619030Y-102855800D01*
G75*
G02*
X61906200Y-103142970I0J-287170D01*
G01*
G37*
G36*
G01*
X90421800Y-82428100D02*
X90421800Y-81401900D01*
G75*
G02*
X90709900Y-81113800I288100J0D01*
G01*
X91286100Y-81113800D01*
G75*
G02*
X91574200Y-81401900I0J-288100D01*
G01*
X91574200Y-82428100D01*
G75*
G02*
X91286100Y-82716200I-288100J0D01*
G01*
X90709900Y-82716200D01*
G75*
G02*
X90421800Y-82428100I0J288100D01*
G01*
G37*
G36*
G01*
X92321800Y-82428100D02*
X92321800Y-81401900D01*
G75*
G02*
X92609900Y-81113800I288100J0D01*
G01*
X93186100Y-81113800D01*
G75*
G02*
X93474200Y-81401900I0J-288100D01*
G01*
X93474200Y-82428100D01*
G75*
G02*
X93186100Y-82716200I-288100J0D01*
G01*
X92609900Y-82716200D01*
G75*
G02*
X92321800Y-82428100I0J288100D01*
G01*
G37*
G36*
G01*
X63731200Y-93998970D02*
X63731200Y-94977030D01*
G75*
G02*
X63444030Y-95264200I-287170J0D01*
G01*
X62840970Y-95264200D01*
G75*
G02*
X62553800Y-94977030I0J287170D01*
G01*
X62553800Y-93998970D01*
G75*
G02*
X62840970Y-93711800I287170J0D01*
G01*
X63444030Y-93711800D01*
G75*
G02*
X63731200Y-93998970I0J-287170D01*
G01*
G37*
G36*
G01*
X61906200Y-93998970D02*
X61906200Y-94977030D01*
G75*
G02*
X61619030Y-95264200I-287170J0D01*
G01*
X61015970Y-95264200D01*
G75*
G02*
X60728800Y-94977030I0J287170D01*
G01*
X60728800Y-93998970D01*
G75*
G02*
X61015970Y-93711800I287170J0D01*
G01*
X61619030Y-93711800D01*
G75*
G02*
X61906200Y-93998970I0J-287170D01*
G01*
G37*
G36*
G01*
X68567300Y-84632800D02*
X68567300Y-83515200D01*
G75*
G02*
X68643500Y-83439000I76200J0D01*
G01*
X71081900Y-83439000D01*
G75*
G02*
X71158100Y-83515200I0J-76200D01*
G01*
X71158100Y-84632800D01*
G75*
G02*
X71081900Y-84709000I-76200J0D01*
G01*
X68643500Y-84709000D01*
G75*
G02*
X68567300Y-84632800I0J76200D01*
G01*
G37*
G36*
G01*
X68567300Y-87172800D02*
X68567300Y-86055200D01*
G75*
G02*
X68643500Y-85979000I76200J0D01*
G01*
X71081900Y-85979000D01*
G75*
G02*
X71158100Y-86055200I0J-76200D01*
G01*
X71158100Y-87172800D01*
G75*
G02*
X71081900Y-87249000I-76200J0D01*
G01*
X68643500Y-87249000D01*
G75*
G02*
X68567300Y-87172800I0J76200D01*
G01*
G37*
G36*
G01*
X68567300Y-89712800D02*
X68567300Y-88595200D01*
G75*
G02*
X68643500Y-88519000I76200J0D01*
G01*
X71081900Y-88519000D01*
G75*
G02*
X71158100Y-88595200I0J-76200D01*
G01*
X71158100Y-89712800D01*
G75*
G02*
X71081900Y-89789000I-76200J0D01*
G01*
X68643500Y-89789000D01*
G75*
G02*
X68567300Y-89712800I0J76200D01*
G01*
G37*
G36*
G01*
X68567300Y-92252800D02*
X68567300Y-91135200D01*
G75*
G02*
X68643500Y-91059000I76200J0D01*
G01*
X71081900Y-91059000D01*
G75*
G02*
X71158100Y-91135200I0J-76200D01*
G01*
X71158100Y-92252800D01*
G75*
G02*
X71081900Y-92329000I-76200J0D01*
G01*
X68643500Y-92329000D01*
G75*
G02*
X68567300Y-92252800I0J76200D01*
G01*
G37*
G36*
G01*
X68567300Y-94792800D02*
X68567300Y-93675200D01*
G75*
G02*
X68643500Y-93599000I76200J0D01*
G01*
X71081900Y-93599000D01*
G75*
G02*
X71158100Y-93675200I0J-76200D01*
G01*
X71158100Y-94792800D01*
G75*
G02*
X71081900Y-94869000I-76200J0D01*
G01*
X68643500Y-94869000D01*
G75*
G02*
X68567300Y-94792800I0J76200D01*
G01*
G37*
G36*
G01*
X77177900Y-94792800D02*
X77177900Y-93675200D01*
G75*
G02*
X77254100Y-93599000I76200J0D01*
G01*
X79692500Y-93599000D01*
G75*
G02*
X79768700Y-93675200I0J-76200D01*
G01*
X79768700Y-94792800D01*
G75*
G02*
X79692500Y-94869000I-76200J0D01*
G01*
X77254100Y-94869000D01*
G75*
G02*
X77177900Y-94792800I0J76200D01*
G01*
G37*
G36*
G01*
X77177900Y-92252800D02*
X77177900Y-91135200D01*
G75*
G02*
X77254100Y-91059000I76200J0D01*
G01*
X79692500Y-91059000D01*
G75*
G02*
X79768700Y-91135200I0J-76200D01*
G01*
X79768700Y-92252800D01*
G75*
G02*
X79692500Y-92329000I-76200J0D01*
G01*
X77254100Y-92329000D01*
G75*
G02*
X77177900Y-92252800I0J76200D01*
G01*
G37*
G36*
G01*
X77177900Y-89712800D02*
X77177900Y-88595200D01*
G75*
G02*
X77254100Y-88519000I76200J0D01*
G01*
X79692500Y-88519000D01*
G75*
G02*
X79768700Y-88595200I0J-76200D01*
G01*
X79768700Y-89712800D01*
G75*
G02*
X79692500Y-89789000I-76200J0D01*
G01*
X77254100Y-89789000D01*
G75*
G02*
X77177900Y-89712800I0J76200D01*
G01*
G37*
G36*
G01*
X77177900Y-87172800D02*
X77177900Y-86055200D01*
G75*
G02*
X77254100Y-85979000I76200J0D01*
G01*
X79692500Y-85979000D01*
G75*
G02*
X79768700Y-86055200I0J-76200D01*
G01*
X79768700Y-87172800D01*
G75*
G02*
X79692500Y-87249000I-76200J0D01*
G01*
X77254100Y-87249000D01*
G75*
G02*
X77177900Y-87172800I0J76200D01*
G01*
G37*
G36*
G01*
X77177900Y-84632800D02*
X77177900Y-83515200D01*
G75*
G02*
X77254100Y-83439000I76200J0D01*
G01*
X79692500Y-83439000D01*
G75*
G02*
X79768700Y-83515200I0J-76200D01*
G01*
X79768700Y-84632800D01*
G75*
G02*
X79692500Y-84709000I-76200J0D01*
G01*
X77254100Y-84709000D01*
G75*
G02*
X77177900Y-84632800I0J76200D01*
G01*
G37*
G36*
G01*
X83441200Y-97022900D02*
X83441200Y-98049100D01*
G75*
G02*
X83153100Y-98337200I-288100J0D01*
G01*
X82576900Y-98337200D01*
G75*
G02*
X82288800Y-98049100I0J288100D01*
G01*
X82288800Y-97022900D01*
G75*
G02*
X82576900Y-96734800I288100J0D01*
G01*
X83153100Y-96734800D01*
G75*
G02*
X83441200Y-97022900I0J-288100D01*
G01*
G37*
G36*
G01*
X81541200Y-97022900D02*
X81541200Y-98049100D01*
G75*
G02*
X81253100Y-98337200I-288100J0D01*
G01*
X80676900Y-98337200D01*
G75*
G02*
X80388800Y-98049100I0J288100D01*
G01*
X80388800Y-97022900D01*
G75*
G02*
X80676900Y-96734800I288100J0D01*
G01*
X81253100Y-96734800D01*
G75*
G02*
X81541200Y-97022900I0J-288100D01*
G01*
G37*
G36*
G01*
X94256800Y-104121030D02*
X94256800Y-103142970D01*
G75*
G02*
X94543970Y-102855800I287170J0D01*
G01*
X95147030Y-102855800D01*
G75*
G02*
X95434200Y-103142970I0J-287170D01*
G01*
X95434200Y-104121030D01*
G75*
G02*
X95147030Y-104408200I-287170J0D01*
G01*
X94543970Y-104408200D01*
G75*
G02*
X94256800Y-104121030I0J287170D01*
G01*
G37*
G36*
G01*
X96081800Y-104121030D02*
X96081800Y-103142970D01*
G75*
G02*
X96368970Y-102855800I287170J0D01*
G01*
X96972030Y-102855800D01*
G75*
G02*
X97259200Y-103142970I0J-287170D01*
G01*
X97259200Y-104121030D01*
G75*
G02*
X96972030Y-104408200I-287170J0D01*
G01*
X96368970Y-104408200D01*
G75*
G02*
X96081800Y-104121030I0J287170D01*
G01*
G37*
G36*
X95859020Y-108504373D02*
G01*
X95832958Y-108459232D01*
X95831800Y-108446000D01*
X95831800Y-106946000D01*
X95849627Y-106897020D01*
X95894768Y-106870958D01*
X95908000Y-106869800D01*
X96408000Y-106869800D01*
X96419754Y-106874078D01*
X96473263Y-106874078D01*
X96492985Y-106876674D01*
X96619064Y-106910456D01*
X96637442Y-106918069D01*
X96750481Y-106983332D01*
X96766263Y-106995441D01*
X96858559Y-107087737D01*
X96870668Y-107103519D01*
X96935931Y-107216558D01*
X96943544Y-107234936D01*
X96977326Y-107361015D01*
X96979922Y-107380737D01*
X96979922Y-107427364D01*
X96983042Y-107432768D01*
X96984200Y-107446000D01*
X96984200Y-107946000D01*
X96979922Y-107957753D01*
X96979922Y-108011263D01*
X96977326Y-108030985D01*
X96943544Y-108157064D01*
X96935931Y-108175442D01*
X96870668Y-108288481D01*
X96858559Y-108304263D01*
X96766263Y-108396559D01*
X96750481Y-108408668D01*
X96637442Y-108473931D01*
X96619064Y-108481544D01*
X96492985Y-108515326D01*
X96473263Y-108517922D01*
X96426636Y-108517922D01*
X96421232Y-108521042D01*
X96408000Y-108522200D01*
X95908000Y-108522200D01*
X95859020Y-108504373D01*
G37*
G36*
X95096246Y-108517922D02*
G01*
X95042737Y-108517922D01*
X95023015Y-108515326D01*
X94896936Y-108481544D01*
X94878558Y-108473931D01*
X94765519Y-108408668D01*
X94749737Y-108396559D01*
X94657441Y-108304263D01*
X94645332Y-108288481D01*
X94580069Y-108175442D01*
X94572456Y-108157064D01*
X94538674Y-108030985D01*
X94536078Y-108011263D01*
X94536078Y-107964636D01*
X94532958Y-107959232D01*
X94531800Y-107946000D01*
X94531800Y-107446000D01*
X94536078Y-107434247D01*
X94536078Y-107380737D01*
X94538674Y-107361015D01*
X94572456Y-107234936D01*
X94580069Y-107216558D01*
X94645332Y-107103519D01*
X94657441Y-107087737D01*
X94749737Y-106995441D01*
X94765519Y-106983332D01*
X94878558Y-106918069D01*
X94896936Y-106910456D01*
X95023015Y-106876674D01*
X95042737Y-106874078D01*
X95089364Y-106874078D01*
X95094768Y-106870958D01*
X95108000Y-106869800D01*
X95608000Y-106869800D01*
X95656980Y-106887627D01*
X95683042Y-106932768D01*
X95684200Y-106946000D01*
X95684200Y-108446000D01*
X95666373Y-108494980D01*
X95621232Y-108521042D01*
X95608000Y-108522200D01*
X95108000Y-108522200D01*
X95096246Y-108517922D01*
G37*
G36*
G01*
X66275030Y-91925200D02*
X65296970Y-91925200D01*
G75*
G02*
X65009800Y-91638030I0J287170D01*
G01*
X65009800Y-91034970D01*
G75*
G02*
X65296970Y-90747800I287170J0D01*
G01*
X66275030Y-90747800D01*
G75*
G02*
X66562200Y-91034970I0J-287170D01*
G01*
X66562200Y-91638030D01*
G75*
G02*
X66275030Y-91925200I-287170J0D01*
G01*
G37*
G36*
G01*
X66275030Y-90100200D02*
X65296970Y-90100200D01*
G75*
G02*
X65009800Y-89813030I0J287170D01*
G01*
X65009800Y-89209970D01*
G75*
G02*
X65296970Y-88922800I287170J0D01*
G01*
X66275030Y-88922800D01*
G75*
G02*
X66562200Y-89209970I0J-287170D01*
G01*
X66562200Y-89813030D01*
G75*
G02*
X66275030Y-90100200I-287170J0D01*
G01*
G37*
M02*
