G04 #@! TF.GenerationSoftware,KiCad,Pcbnew,9.0.7-9.0.7~ubuntu24.04.1*
G04 #@! TF.CreationDate,2026-03-19T16:30:49-06:00*
G04 #@! TF.ProjectId,ckt-audiojack,636b742d-6175-4646-996f-6a61636b2e6b,rev?*
G04 #@! TF.SameCoordinates,Original*
G04 #@! TF.FileFunction,Copper,L2,Bot*
G04 #@! TF.FilePolarity,Positive*
%FSLAX46Y46*%
G04 Gerber Fmt 4.6, Leading zero omitted, Abs format (unit mm)*
G04 Created by KiCad (PCBNEW 9.0.7-9.0.7~ubuntu24.04.1) date 2026-03-19 16:30:49*
%MOMM*%
%LPD*%
G01*
G04 APERTURE LIST*
G04 #@! TA.AperFunction,ComponentPad*
%ADD10C,6.400000*%
G04 #@! TD*
G04 #@! TA.AperFunction,ComponentPad*
%ADD11C,2.300000*%
G04 #@! TD*
G04 #@! TA.AperFunction,ViaPad*
%ADD12C,0.609600*%
G04 #@! TD*
G04 #@! TA.AperFunction,Conductor*
%ADD13C,0.508000*%
G04 #@! TD*
G04 APERTURE END LIST*
D10*
X103632000Y-84328000D03*
X103632000Y-107442000D03*
G04 #@! TA.AperFunction,ComponentPad*
G36*
G01*
X79988000Y-103642999D02*
X79988000Y-101843001D01*
G75*
G02*
X80238001Y-101593000I250001J0D01*
G01*
X82037999Y-101593000D01*
G75*
G02*
X82288000Y-101843001I0J-250001D01*
G01*
X82288000Y-103642999D01*
G75*
G02*
X82037999Y-103893000I-250001J0D01*
G01*
X80238001Y-103893000D01*
G75*
G02*
X79988000Y-103642999I0J250001D01*
G01*
G37*
G04 #@! TD.AperFunction*
D11*
X84638000Y-102743000D03*
X88138000Y-102743000D03*
D10*
X55118000Y-107442000D03*
X55118000Y-84328000D03*
G04 #@! TA.AperFunction,ComponentPad*
G36*
G01*
X69488000Y-103642999D02*
X69488000Y-101843001D01*
G75*
G02*
X69738001Y-101593000I250001J0D01*
G01*
X71537999Y-101593000D01*
G75*
G02*
X71788000Y-101843001I0J-250001D01*
G01*
X71788000Y-103642999D01*
G75*
G02*
X71537999Y-103893000I-250001J0D01*
G01*
X69738001Y-103893000D01*
G75*
G02*
X69488000Y-103642999I0J250001D01*
G01*
G37*
G04 #@! TD.AperFunction*
D11*
X74138000Y-102743000D03*
X77638000Y-102743000D03*
D12*
X51689000Y-94488000D03*
X53213000Y-94488000D03*
X52451000Y-94488000D03*
X105448100Y-96774000D03*
X78486000Y-95885000D03*
D13*
X92075000Y-95885000D02*
X92964000Y-96774000D01*
X78486000Y-95885000D02*
X92075000Y-95885000D01*
X92964000Y-96774000D02*
X105448100Y-96774000D01*
G04 #@! TA.AperFunction,Conductor*
G36*
X107637621Y-80284502D02*
G01*
X107684114Y-80338158D01*
X107695500Y-80390500D01*
X107695500Y-111379500D01*
X107675498Y-111447621D01*
X107621842Y-111494114D01*
X107569500Y-111505500D01*
X51180500Y-111505500D01*
X51112379Y-111485498D01*
X51065886Y-111431842D01*
X51054500Y-111379500D01*
X51054500Y-107272284D01*
X51663500Y-107272284D01*
X51663500Y-107611715D01*
X51696767Y-107949476D01*
X51696770Y-107949497D01*
X51762985Y-108282383D01*
X51861514Y-108607189D01*
X51861515Y-108607193D01*
X51991403Y-108920770D01*
X52151404Y-109220112D01*
X52339966Y-109502316D01*
X52339971Y-109502322D01*
X52555292Y-109764692D01*
X52555310Y-109764711D01*
X52795288Y-110004689D01*
X52795307Y-110004707D01*
X52948261Y-110130233D01*
X53057675Y-110220027D01*
X53057679Y-110220029D01*
X53057683Y-110220033D01*
X53339887Y-110408595D01*
X53339890Y-110408597D01*
X53639230Y-110568597D01*
X53952811Y-110698486D01*
X54277613Y-110797014D01*
X54610508Y-110863231D01*
X54948291Y-110896500D01*
X54948300Y-110896500D01*
X55287700Y-110896500D01*
X55287709Y-110896500D01*
X55625492Y-110863231D01*
X55958387Y-110797014D01*
X56283189Y-110698486D01*
X56596770Y-110568597D01*
X56896110Y-110408597D01*
X57178325Y-110220027D01*
X57440698Y-110004702D01*
X57680702Y-109764698D01*
X57896027Y-109502325D01*
X58084597Y-109220110D01*
X58244597Y-108920770D01*
X58374486Y-108607189D01*
X58473014Y-108282387D01*
X58539231Y-107949492D01*
X58572500Y-107611709D01*
X58572500Y-107272291D01*
X58572499Y-107272284D01*
X100177500Y-107272284D01*
X100177500Y-107611715D01*
X100210767Y-107949476D01*
X100210770Y-107949497D01*
X100276985Y-108282383D01*
X100375514Y-108607189D01*
X100375515Y-108607193D01*
X100505403Y-108920770D01*
X100665404Y-109220112D01*
X100853966Y-109502316D01*
X100853971Y-109502322D01*
X101069292Y-109764692D01*
X101069310Y-109764711D01*
X101309288Y-110004689D01*
X101309307Y-110004707D01*
X101462261Y-110130233D01*
X101571675Y-110220027D01*
X101571679Y-110220029D01*
X101571683Y-110220033D01*
X101853887Y-110408595D01*
X101853890Y-110408597D01*
X102153230Y-110568597D01*
X102466811Y-110698486D01*
X102791613Y-110797014D01*
X103124508Y-110863231D01*
X103462291Y-110896500D01*
X103462300Y-110896500D01*
X103801700Y-110896500D01*
X103801709Y-110896500D01*
X104139492Y-110863231D01*
X104472387Y-110797014D01*
X104797189Y-110698486D01*
X105110770Y-110568597D01*
X105410110Y-110408597D01*
X105692325Y-110220027D01*
X105954698Y-110004702D01*
X106194702Y-109764698D01*
X106410027Y-109502325D01*
X106598597Y-109220110D01*
X106758597Y-108920770D01*
X106888486Y-108607189D01*
X106987014Y-108282387D01*
X107053231Y-107949492D01*
X107086500Y-107611709D01*
X107086500Y-107272291D01*
X107053231Y-106934508D01*
X106987014Y-106601613D01*
X106888486Y-106276811D01*
X106758597Y-105963230D01*
X106598597Y-105663890D01*
X106598595Y-105663887D01*
X106410033Y-105381683D01*
X106410028Y-105381677D01*
X106410027Y-105381675D01*
X106320233Y-105272261D01*
X106194707Y-105119307D01*
X106194689Y-105119288D01*
X105954711Y-104879310D01*
X105954692Y-104879292D01*
X105771146Y-104728660D01*
X105692325Y-104663973D01*
X105692321Y-104663970D01*
X105692316Y-104663966D01*
X105410112Y-104475404D01*
X105110770Y-104315403D01*
X104797193Y-104185515D01*
X104797189Y-104185514D01*
X104671871Y-104147499D01*
X104472387Y-104086986D01*
X104472384Y-104086985D01*
X104472383Y-104086985D01*
X104139497Y-104020770D01*
X104139492Y-104020769D01*
X104139485Y-104020768D01*
X104139476Y-104020767D01*
X103801715Y-103987500D01*
X103801709Y-103987500D01*
X103462291Y-103987500D01*
X103462284Y-103987500D01*
X103124523Y-104020767D01*
X103124511Y-104020768D01*
X103124508Y-104020769D01*
X103124505Y-104020769D01*
X103124502Y-104020770D01*
X102791616Y-104086985D01*
X102466810Y-104185514D01*
X102466806Y-104185515D01*
X102153229Y-104315403D01*
X101853887Y-104475404D01*
X101571683Y-104663966D01*
X101571677Y-104663971D01*
X101309307Y-104879292D01*
X101309288Y-104879310D01*
X101069310Y-105119288D01*
X101069292Y-105119307D01*
X100853971Y-105381677D01*
X100853966Y-105381683D01*
X100665404Y-105663887D01*
X100505403Y-105963229D01*
X100375515Y-106276806D01*
X100375514Y-106276810D01*
X100276985Y-106601616D01*
X100210770Y-106934502D01*
X100210767Y-106934523D01*
X100177500Y-107272284D01*
X58572499Y-107272284D01*
X58539231Y-106934508D01*
X58473014Y-106601613D01*
X58374486Y-106276811D01*
X58244597Y-105963230D01*
X58084597Y-105663890D01*
X58084595Y-105663887D01*
X57896033Y-105381683D01*
X57896028Y-105381677D01*
X57896027Y-105381675D01*
X57806233Y-105272261D01*
X57680707Y-105119307D01*
X57680689Y-105119288D01*
X57440711Y-104879310D01*
X57440692Y-104879292D01*
X57257146Y-104728660D01*
X57178325Y-104663973D01*
X57178321Y-104663970D01*
X57178316Y-104663966D01*
X56896112Y-104475404D01*
X56596770Y-104315403D01*
X56283193Y-104185515D01*
X56283189Y-104185514D01*
X56157871Y-104147499D01*
X55958387Y-104086986D01*
X55958384Y-104086985D01*
X55958383Y-104086985D01*
X55625497Y-104020770D01*
X55625492Y-104020769D01*
X55625485Y-104020768D01*
X55625476Y-104020767D01*
X55287715Y-103987500D01*
X55287709Y-103987500D01*
X54948291Y-103987500D01*
X54948284Y-103987500D01*
X54610523Y-104020767D01*
X54610511Y-104020768D01*
X54610508Y-104020769D01*
X54610505Y-104020769D01*
X54610502Y-104020770D01*
X54277616Y-104086985D01*
X53952810Y-104185514D01*
X53952806Y-104185515D01*
X53639229Y-104315403D01*
X53339887Y-104475404D01*
X53057683Y-104663966D01*
X53057677Y-104663971D01*
X52795307Y-104879292D01*
X52795288Y-104879310D01*
X52555310Y-105119288D01*
X52555292Y-105119307D01*
X52339971Y-105381677D01*
X52339966Y-105381683D01*
X52151404Y-105663887D01*
X51991403Y-105963229D01*
X51861515Y-106276806D01*
X51861514Y-106276810D01*
X51762985Y-106601616D01*
X51696770Y-106934502D01*
X51696767Y-106934523D01*
X51663500Y-107272284D01*
X51054500Y-107272284D01*
X51054500Y-101792484D01*
X68980000Y-101792484D01*
X68980000Y-102489000D01*
X70091827Y-102489000D01*
X70078889Y-102511409D01*
X70038000Y-102664009D01*
X70038000Y-102821991D01*
X70078889Y-102974591D01*
X70091827Y-102997000D01*
X68980001Y-102997000D01*
X68980001Y-103693507D01*
X68990605Y-103797318D01*
X69046342Y-103965525D01*
X69139366Y-104116339D01*
X69139371Y-104116345D01*
X69264654Y-104241628D01*
X69264660Y-104241633D01*
X69415474Y-104334657D01*
X69583678Y-104390393D01*
X69583681Y-104390394D01*
X69687484Y-104400999D01*
X70384000Y-104400999D01*
X70384000Y-103289173D01*
X70406409Y-103302111D01*
X70559009Y-103343000D01*
X70716991Y-103343000D01*
X70869591Y-103302111D01*
X70892000Y-103289173D01*
X70892000Y-104400999D01*
X71588507Y-104400999D01*
X71692318Y-104390394D01*
X71860525Y-104334657D01*
X72011339Y-104241633D01*
X72011345Y-104241628D01*
X72136628Y-104116345D01*
X72136633Y-104116339D01*
X72228756Y-103966986D01*
X72228757Y-103966984D01*
X72228758Y-103966983D01*
X72229657Y-103965525D01*
X72285393Y-103797321D01*
X72285394Y-103797318D01*
X72295999Y-103693515D01*
X72295999Y-103234840D01*
X72316001Y-103166719D01*
X72369656Y-103120226D01*
X72439930Y-103110122D01*
X72504511Y-103139615D01*
X72541832Y-103195903D01*
X72601471Y-103379449D01*
X72601472Y-103379452D01*
X72719953Y-103611984D01*
X72799843Y-103721944D01*
X72799845Y-103721944D01*
X73572192Y-102949597D01*
X73578889Y-102974591D01*
X73657881Y-103111408D01*
X73769592Y-103223119D01*
X73906409Y-103302111D01*
X73931400Y-103308807D01*
X73159054Y-104081153D01*
X73159054Y-104081155D01*
X73269015Y-104161046D01*
X73501547Y-104279527D01*
X73501553Y-104279530D01*
X73749745Y-104360173D01*
X74007516Y-104401000D01*
X74268484Y-104401000D01*
X74526254Y-104360173D01*
X74774446Y-104279530D01*
X74774452Y-104279527D01*
X75006983Y-104161046D01*
X75116944Y-104081155D01*
X75116944Y-104081153D01*
X74344598Y-103308807D01*
X74369591Y-103302111D01*
X74506408Y-103223119D01*
X74618119Y-103111408D01*
X74697111Y-102974591D01*
X74703807Y-102949598D01*
X75476153Y-103721944D01*
X75476155Y-103721944D01*
X75556046Y-103611983D01*
X75674527Y-103379452D01*
X75674530Y-103379446D01*
X75755173Y-103131254D01*
X75796000Y-102873483D01*
X75796000Y-102632463D01*
X76233500Y-102632463D01*
X76233500Y-102853537D01*
X76268083Y-103071888D01*
X76336399Y-103282141D01*
X76436764Y-103479118D01*
X76566707Y-103657970D01*
X76566709Y-103657972D01*
X76566711Y-103657975D01*
X76723024Y-103814288D01*
X76723027Y-103814290D01*
X76723030Y-103814293D01*
X76901882Y-103944236D01*
X77098859Y-104044601D01*
X77309112Y-104112917D01*
X77527463Y-104147500D01*
X77527466Y-104147500D01*
X77748534Y-104147500D01*
X77748537Y-104147500D01*
X77966888Y-104112917D01*
X78177141Y-104044601D01*
X78374118Y-103944236D01*
X78552970Y-103814293D01*
X78709293Y-103657970D01*
X78839236Y-103479118D01*
X78939601Y-103282141D01*
X79007917Y-103071888D01*
X79042500Y-102853537D01*
X79042500Y-102632463D01*
X79007917Y-102414112D01*
X78939601Y-102203859D01*
X78839236Y-102006882D01*
X78709293Y-101828030D01*
X78709291Y-101828027D01*
X78675997Y-101794733D01*
X79733500Y-101794733D01*
X79733500Y-103691266D01*
X79739958Y-103751335D01*
X79739959Y-103751340D01*
X79739960Y-103751341D01*
X79790658Y-103887267D01*
X79877596Y-104003404D01*
X79993733Y-104090342D01*
X80129659Y-104141040D01*
X80129662Y-104141040D01*
X80129664Y-104141041D01*
X80189733Y-104147499D01*
X80189741Y-104147499D01*
X80189746Y-104147500D01*
X80189750Y-104147500D01*
X82086250Y-104147500D01*
X82086254Y-104147500D01*
X82086259Y-104147499D01*
X82086266Y-104147499D01*
X82146335Y-104141041D01*
X82146336Y-104141040D01*
X82146341Y-104141040D01*
X82282267Y-104090342D01*
X82398404Y-104003404D01*
X82485342Y-103887267D01*
X82536040Y-103751341D01*
X82539201Y-103721944D01*
X82542499Y-103691266D01*
X82542500Y-103691249D01*
X82542500Y-102632463D01*
X83233500Y-102632463D01*
X83233500Y-102853537D01*
X83268083Y-103071888D01*
X83336399Y-103282141D01*
X83436764Y-103479118D01*
X83566707Y-103657970D01*
X83566709Y-103657972D01*
X83566711Y-103657975D01*
X83723024Y-103814288D01*
X83723027Y-103814290D01*
X83723030Y-103814293D01*
X83901882Y-103944236D01*
X84098859Y-104044601D01*
X84309112Y-104112917D01*
X84527463Y-104147500D01*
X84527466Y-104147500D01*
X84748534Y-104147500D01*
X84748537Y-104147500D01*
X84966888Y-104112917D01*
X85177141Y-104044601D01*
X85374118Y-103944236D01*
X85552970Y-103814293D01*
X85709293Y-103657970D01*
X85839236Y-103479118D01*
X85939601Y-103282141D01*
X86007917Y-103071888D01*
X86042500Y-102853537D01*
X86042500Y-102632463D01*
X86733500Y-102632463D01*
X86733500Y-102853537D01*
X86768083Y-103071888D01*
X86836399Y-103282141D01*
X86936764Y-103479118D01*
X87066707Y-103657970D01*
X87066709Y-103657972D01*
X87066711Y-103657975D01*
X87223024Y-103814288D01*
X87223027Y-103814290D01*
X87223030Y-103814293D01*
X87401882Y-103944236D01*
X87598859Y-104044601D01*
X87809112Y-104112917D01*
X88027463Y-104147500D01*
X88027466Y-104147500D01*
X88248534Y-104147500D01*
X88248537Y-104147500D01*
X88466888Y-104112917D01*
X88677141Y-104044601D01*
X88874118Y-103944236D01*
X89052970Y-103814293D01*
X89209293Y-103657970D01*
X89339236Y-103479118D01*
X89439601Y-103282141D01*
X89507917Y-103071888D01*
X89542500Y-102853537D01*
X89542500Y-102632463D01*
X89507917Y-102414112D01*
X89439601Y-102203859D01*
X89339236Y-102006882D01*
X89209293Y-101828030D01*
X89209290Y-101828027D01*
X89209288Y-101828024D01*
X89052975Y-101671711D01*
X89052972Y-101671709D01*
X89052970Y-101671707D01*
X88874118Y-101541764D01*
X88677141Y-101441399D01*
X88677140Y-101441398D01*
X88677139Y-101441398D01*
X88466891Y-101373084D01*
X88466888Y-101373083D01*
X88248537Y-101338500D01*
X88027463Y-101338500D01*
X87809112Y-101373083D01*
X87809109Y-101373083D01*
X87809108Y-101373084D01*
X87598860Y-101441398D01*
X87401878Y-101541766D01*
X87223027Y-101671709D01*
X87223024Y-101671711D01*
X87066711Y-101828024D01*
X87066709Y-101828027D01*
X86936766Y-102006878D01*
X86836398Y-102203860D01*
X86780924Y-102374592D01*
X86768083Y-102414112D01*
X86733500Y-102632463D01*
X86042500Y-102632463D01*
X86007917Y-102414112D01*
X85939601Y-102203859D01*
X85839236Y-102006882D01*
X85709293Y-101828030D01*
X85709290Y-101828027D01*
X85709288Y-101828024D01*
X85552975Y-101671711D01*
X85552972Y-101671709D01*
X85552970Y-101671707D01*
X85374118Y-101541764D01*
X85177141Y-101441399D01*
X85177140Y-101441398D01*
X85177139Y-101441398D01*
X84966891Y-101373084D01*
X84966888Y-101373083D01*
X84748537Y-101338500D01*
X84527463Y-101338500D01*
X84309112Y-101373083D01*
X84309109Y-101373083D01*
X84309108Y-101373084D01*
X84098860Y-101441398D01*
X83901878Y-101541766D01*
X83723027Y-101671709D01*
X83723024Y-101671711D01*
X83566711Y-101828024D01*
X83566709Y-101828027D01*
X83436766Y-102006878D01*
X83336398Y-102203860D01*
X83280924Y-102374592D01*
X83268083Y-102414112D01*
X83233500Y-102632463D01*
X82542500Y-102632463D01*
X82542500Y-101794750D01*
X82542499Y-101794733D01*
X82536041Y-101734664D01*
X82536040Y-101734662D01*
X82536040Y-101734659D01*
X82485342Y-101598733D01*
X82398404Y-101482596D01*
X82282267Y-101395658D01*
X82146341Y-101344960D01*
X82146340Y-101344959D01*
X82146335Y-101344958D01*
X82086266Y-101338500D01*
X82086254Y-101338500D01*
X80189746Y-101338500D01*
X80189733Y-101338500D01*
X80129664Y-101344958D01*
X80129659Y-101344960D01*
X79993733Y-101395658D01*
X79993732Y-101395658D01*
X79993731Y-101395659D01*
X79932629Y-101441399D01*
X79877596Y-101482596D01*
X79790658Y-101598733D01*
X79757559Y-101687473D01*
X79739958Y-101734664D01*
X79733500Y-101794733D01*
X78675997Y-101794733D01*
X78552975Y-101671711D01*
X78552972Y-101671709D01*
X78552970Y-101671707D01*
X78374118Y-101541764D01*
X78177141Y-101441399D01*
X78177140Y-101441398D01*
X78177139Y-101441398D01*
X77966891Y-101373084D01*
X77966888Y-101373083D01*
X77748537Y-101338500D01*
X77527463Y-101338500D01*
X77309112Y-101373083D01*
X77309109Y-101373083D01*
X77309108Y-101373084D01*
X77098860Y-101441398D01*
X76901878Y-101541766D01*
X76723027Y-101671709D01*
X76723024Y-101671711D01*
X76566711Y-101828024D01*
X76566709Y-101828027D01*
X76436766Y-102006878D01*
X76336398Y-102203860D01*
X76280924Y-102374592D01*
X76268083Y-102414112D01*
X76233500Y-102632463D01*
X75796000Y-102632463D01*
X75796000Y-102612516D01*
X75755173Y-102354745D01*
X75674530Y-102106553D01*
X75674527Y-102106547D01*
X75556046Y-101874015D01*
X75476155Y-101764054D01*
X75476153Y-101764054D01*
X74703807Y-102536400D01*
X74697111Y-102511409D01*
X74618119Y-102374592D01*
X74506408Y-102262881D01*
X74369591Y-102183889D01*
X74344598Y-102177192D01*
X75116944Y-101404845D01*
X75116944Y-101404843D01*
X75006984Y-101324953D01*
X74774452Y-101206472D01*
X74774446Y-101206469D01*
X74526254Y-101125826D01*
X74268484Y-101085000D01*
X74007516Y-101085000D01*
X73749745Y-101125826D01*
X73501553Y-101206469D01*
X73501547Y-101206472D01*
X73269020Y-101324950D01*
X73269019Y-101324951D01*
X73159054Y-101404844D01*
X73159054Y-101404845D01*
X73931401Y-102177192D01*
X73906409Y-102183889D01*
X73769592Y-102262881D01*
X73657881Y-102374592D01*
X73578889Y-102511409D01*
X73572192Y-102536401D01*
X72799845Y-101764054D01*
X72799844Y-101764054D01*
X72719951Y-101874019D01*
X72719950Y-101874020D01*
X72601472Y-102106547D01*
X72601471Y-102106550D01*
X72541832Y-102290098D01*
X72501758Y-102348703D01*
X72436361Y-102376340D01*
X72366405Y-102364233D01*
X72314099Y-102316227D01*
X72295999Y-102251161D01*
X72295999Y-101792492D01*
X72285394Y-101688681D01*
X72229656Y-101520471D01*
X72228754Y-101519009D01*
X72228753Y-101519007D01*
X72136637Y-101369666D01*
X72136628Y-101369654D01*
X72011345Y-101244371D01*
X72011339Y-101244366D01*
X71860525Y-101151342D01*
X71692321Y-101095606D01*
X71692318Y-101095605D01*
X71588515Y-101085000D01*
X70892000Y-101085000D01*
X70892000Y-102196826D01*
X70869591Y-102183889D01*
X70716991Y-102143000D01*
X70559009Y-102143000D01*
X70406409Y-102183889D01*
X70384000Y-102196826D01*
X70384000Y-101085000D01*
X69687492Y-101085000D01*
X69583681Y-101095605D01*
X69415474Y-101151342D01*
X69264660Y-101244366D01*
X69264654Y-101244371D01*
X69139371Y-101369654D01*
X69139366Y-101369660D01*
X69046342Y-101520474D01*
X68990606Y-101688678D01*
X68990605Y-101688681D01*
X68980000Y-101792484D01*
X51054500Y-101792484D01*
X51054500Y-95958631D01*
X77926699Y-95958631D01*
X77964816Y-96100882D01*
X78038446Y-96228414D01*
X78038454Y-96228424D01*
X78142575Y-96332545D01*
X78142580Y-96332549D01*
X78142582Y-96332551D01*
X78270118Y-96406184D01*
X78412367Y-96444300D01*
X78412369Y-96444300D01*
X78559631Y-96444300D01*
X78559633Y-96444300D01*
X78701882Y-96406184D01*
X78701885Y-96406181D01*
X78709349Y-96403091D01*
X78757567Y-96393500D01*
X91812181Y-96393500D01*
X91880302Y-96413502D01*
X91901276Y-96430404D01*
X92557099Y-97086226D01*
X92651774Y-97180901D01*
X92767726Y-97247847D01*
X92897055Y-97282500D01*
X105176533Y-97282500D01*
X105224751Y-97292091D01*
X105232216Y-97295183D01*
X105232218Y-97295184D01*
X105374467Y-97333300D01*
X105374469Y-97333300D01*
X105521731Y-97333300D01*
X105521733Y-97333300D01*
X105663982Y-97295184D01*
X105791518Y-97221551D01*
X105895651Y-97117418D01*
X105969284Y-96989882D01*
X106007400Y-96847633D01*
X106007400Y-96700367D01*
X105969284Y-96558118D01*
X105895651Y-96430582D01*
X105895649Y-96430580D01*
X105895645Y-96430575D01*
X105791524Y-96326454D01*
X105791514Y-96326446D01*
X105663982Y-96252816D01*
X105521733Y-96214700D01*
X105374467Y-96214700D01*
X105322611Y-96228595D01*
X105232216Y-96252816D01*
X105224751Y-96255909D01*
X105176533Y-96265500D01*
X102027460Y-96265500D01*
X101959339Y-96245498D01*
X101912846Y-96191842D01*
X101902742Y-96121568D01*
X101932236Y-96056988D01*
X101982272Y-96023812D01*
X101981650Y-96022309D01*
X101986214Y-96020417D01*
X101986226Y-96020414D01*
X102141256Y-95941423D01*
X102282020Y-95839152D01*
X102405052Y-95716120D01*
X102507323Y-95575356D01*
X102586314Y-95420326D01*
X102640081Y-95254848D01*
X102667300Y-95082997D01*
X102667300Y-94909003D01*
X102640081Y-94737152D01*
X102586314Y-94571674D01*
X102507323Y-94416644D01*
X102405052Y-94275880D01*
X102405049Y-94275877D01*
X102405047Y-94275874D01*
X102282025Y-94152852D01*
X102282022Y-94152850D01*
X102282020Y-94152848D01*
X102211122Y-94101338D01*
X102141265Y-94050583D01*
X102141260Y-94050580D01*
X102141256Y-94050577D01*
X101986226Y-93971586D01*
X101903487Y-93944702D01*
X101820752Y-93917820D01*
X101820750Y-93917819D01*
X101820748Y-93917819D01*
X101648897Y-93890600D01*
X101474903Y-93890600D01*
X101303052Y-93917819D01*
X101303050Y-93917819D01*
X101303047Y-93917820D01*
X101137577Y-93971585D01*
X101137573Y-93971586D01*
X100982547Y-94050575D01*
X100982534Y-94050583D01*
X100841777Y-94152850D01*
X100841774Y-94152852D01*
X100718752Y-94275874D01*
X100718750Y-94275877D01*
X100616483Y-94416634D01*
X100616475Y-94416647D01*
X100537486Y-94571673D01*
X100537485Y-94571677D01*
X100483720Y-94737147D01*
X100483719Y-94737150D01*
X100483719Y-94737152D01*
X100456500Y-94909003D01*
X100456500Y-95082997D01*
X100483719Y-95254848D01*
X100483720Y-95254852D01*
X100537485Y-95420322D01*
X100537486Y-95420326D01*
X100616475Y-95575352D01*
X100616483Y-95575365D01*
X100667238Y-95645222D01*
X100718748Y-95716120D01*
X100718750Y-95716122D01*
X100718752Y-95716125D01*
X100841774Y-95839147D01*
X100841777Y-95839149D01*
X100841780Y-95839152D01*
X100982544Y-95941423D01*
X101137574Y-96020414D01*
X101137580Y-96020416D01*
X101142150Y-96022309D01*
X101141485Y-96023913D01*
X101193880Y-96059738D01*
X101221518Y-96125134D01*
X101209413Y-96195091D01*
X101161408Y-96247399D01*
X101096340Y-96265500D01*
X95017060Y-96265500D01*
X94948939Y-96245498D01*
X94902446Y-96191842D01*
X94892342Y-96121568D01*
X94921836Y-96056988D01*
X94971872Y-96023812D01*
X94971250Y-96022309D01*
X94975814Y-96020417D01*
X94975826Y-96020414D01*
X95130856Y-95941423D01*
X95271620Y-95839152D01*
X95394652Y-95716120D01*
X95496923Y-95575356D01*
X95575914Y-95420326D01*
X95629681Y-95254848D01*
X95656900Y-95082997D01*
X95656900Y-94909003D01*
X95629681Y-94737152D01*
X95575914Y-94571674D01*
X95496923Y-94416644D01*
X95394652Y-94275880D01*
X95394649Y-94275877D01*
X95394647Y-94275874D01*
X95271625Y-94152852D01*
X95271622Y-94152850D01*
X95271620Y-94152848D01*
X95200722Y-94101338D01*
X95130865Y-94050583D01*
X95130860Y-94050580D01*
X95130856Y-94050577D01*
X94975826Y-93971586D01*
X94893087Y-93944702D01*
X94810352Y-93917820D01*
X94810350Y-93917819D01*
X94810348Y-93917819D01*
X94638497Y-93890600D01*
X94464503Y-93890600D01*
X94292652Y-93917819D01*
X94292650Y-93917819D01*
X94292647Y-93917820D01*
X94127177Y-93971585D01*
X94127173Y-93971586D01*
X93972147Y-94050575D01*
X93972134Y-94050583D01*
X93831377Y-94152850D01*
X93831374Y-94152852D01*
X93708352Y-94275874D01*
X93708350Y-94275877D01*
X93606083Y-94416634D01*
X93606075Y-94416647D01*
X93527086Y-94571673D01*
X93527085Y-94571677D01*
X93473320Y-94737147D01*
X93473319Y-94737150D01*
X93473319Y-94737152D01*
X93446100Y-94909003D01*
X93446100Y-95082997D01*
X93473319Y-95254848D01*
X93473320Y-95254852D01*
X93527085Y-95420322D01*
X93527086Y-95420326D01*
X93606075Y-95575352D01*
X93606083Y-95575365D01*
X93656838Y-95645222D01*
X93708348Y-95716120D01*
X93708350Y-95716122D01*
X93708352Y-95716125D01*
X93831374Y-95839147D01*
X93831377Y-95839149D01*
X93831380Y-95839152D01*
X93972144Y-95941423D01*
X94127174Y-96020414D01*
X94127180Y-96020416D01*
X94131750Y-96022309D01*
X94131085Y-96023913D01*
X94183480Y-96059738D01*
X94211118Y-96125134D01*
X94199013Y-96195091D01*
X94151008Y-96247399D01*
X94085940Y-96265500D01*
X93226818Y-96265500D01*
X93158697Y-96245498D01*
X93137722Y-96228595D01*
X92387229Y-95478101D01*
X92387223Y-95478096D01*
X92271278Y-95411155D01*
X92271276Y-95411154D01*
X92271274Y-95411153D01*
X92141945Y-95376500D01*
X92141943Y-95376500D01*
X78757567Y-95376500D01*
X78709349Y-95366909D01*
X78701883Y-95363816D01*
X78654465Y-95351110D01*
X78559633Y-95325700D01*
X78412367Y-95325700D01*
X78317534Y-95351110D01*
X78270117Y-95363816D01*
X78142585Y-95437446D01*
X78142575Y-95437454D01*
X78038454Y-95541575D01*
X78038446Y-95541585D01*
X77964816Y-95669117D01*
X77926700Y-95811368D01*
X77926700Y-95958631D01*
X77926699Y-95958631D01*
X51054500Y-95958631D01*
X51054500Y-84158284D01*
X51663500Y-84158284D01*
X51663500Y-84497715D01*
X51696767Y-84835476D01*
X51696770Y-84835497D01*
X51762985Y-85168383D01*
X51861514Y-85493189D01*
X51861515Y-85493193D01*
X51991403Y-85806770D01*
X52151404Y-86106112D01*
X52339966Y-86388316D01*
X52339971Y-86388322D01*
X52555292Y-86650692D01*
X52555310Y-86650711D01*
X52795288Y-86890689D01*
X52795307Y-86890707D01*
X52948261Y-87016233D01*
X53057675Y-87106027D01*
X53057679Y-87106029D01*
X53057683Y-87106033D01*
X53339887Y-87294595D01*
X53339890Y-87294597D01*
X53639230Y-87454597D01*
X53952811Y-87584486D01*
X54277613Y-87683014D01*
X54610508Y-87749231D01*
X54948291Y-87782500D01*
X54948300Y-87782500D01*
X55287700Y-87782500D01*
X55287709Y-87782500D01*
X55625492Y-87749231D01*
X55958387Y-87683014D01*
X56283189Y-87584486D01*
X56596770Y-87454597D01*
X56896110Y-87294597D01*
X57178325Y-87106027D01*
X57440698Y-86890702D01*
X57680702Y-86650698D01*
X57896027Y-86388325D01*
X58084597Y-86106110D01*
X58244597Y-85806770D01*
X58374486Y-85493189D01*
X58473014Y-85168387D01*
X58539231Y-84835492D01*
X58572500Y-84497709D01*
X58572500Y-84158291D01*
X58572499Y-84158284D01*
X100177500Y-84158284D01*
X100177500Y-84497715D01*
X100210767Y-84835476D01*
X100210770Y-84835497D01*
X100276985Y-85168383D01*
X100375514Y-85493189D01*
X100375515Y-85493193D01*
X100505403Y-85806770D01*
X100665404Y-86106112D01*
X100853966Y-86388316D01*
X100853971Y-86388322D01*
X101069292Y-86650692D01*
X101069310Y-86650711D01*
X101309288Y-86890689D01*
X101309307Y-86890707D01*
X101462261Y-87016233D01*
X101571675Y-87106027D01*
X101571679Y-87106029D01*
X101571683Y-87106033D01*
X101853887Y-87294595D01*
X101853890Y-87294597D01*
X102153230Y-87454597D01*
X102466811Y-87584486D01*
X102791613Y-87683014D01*
X103124508Y-87749231D01*
X103462291Y-87782500D01*
X103462300Y-87782500D01*
X103801700Y-87782500D01*
X103801709Y-87782500D01*
X104139492Y-87749231D01*
X104472387Y-87683014D01*
X104797189Y-87584486D01*
X105110770Y-87454597D01*
X105410110Y-87294597D01*
X105692325Y-87106027D01*
X105954698Y-86890702D01*
X106194702Y-86650698D01*
X106410027Y-86388325D01*
X106598597Y-86106110D01*
X106758597Y-85806770D01*
X106888486Y-85493189D01*
X106987014Y-85168387D01*
X107053231Y-84835492D01*
X107086500Y-84497709D01*
X107086500Y-84158291D01*
X107053231Y-83820508D01*
X106987014Y-83487613D01*
X106888486Y-83162811D01*
X106758597Y-82849230D01*
X106598597Y-82549890D01*
X106598595Y-82549887D01*
X106410033Y-82267683D01*
X106410028Y-82267677D01*
X106410027Y-82267675D01*
X106320233Y-82158261D01*
X106194707Y-82005307D01*
X106194689Y-82005288D01*
X105954711Y-81765310D01*
X105954692Y-81765292D01*
X105771146Y-81614660D01*
X105692325Y-81549973D01*
X105692321Y-81549970D01*
X105692316Y-81549966D01*
X105410112Y-81361404D01*
X105110770Y-81201403D01*
X104797193Y-81071515D01*
X104797189Y-81071514D01*
X104472387Y-80972986D01*
X104472384Y-80972985D01*
X104472383Y-80972985D01*
X104139497Y-80906770D01*
X104139492Y-80906769D01*
X104139485Y-80906768D01*
X104139476Y-80906767D01*
X103801715Y-80873500D01*
X103801709Y-80873500D01*
X103462291Y-80873500D01*
X103462284Y-80873500D01*
X103124523Y-80906767D01*
X103124511Y-80906768D01*
X103124508Y-80906769D01*
X103124505Y-80906769D01*
X103124502Y-80906770D01*
X102791616Y-80972985D01*
X102466810Y-81071514D01*
X102466806Y-81071515D01*
X102153229Y-81201403D01*
X101853887Y-81361404D01*
X101571683Y-81549966D01*
X101571677Y-81549971D01*
X101309307Y-81765292D01*
X101309288Y-81765310D01*
X101069310Y-82005288D01*
X101069292Y-82005307D01*
X100853971Y-82267677D01*
X100853966Y-82267683D01*
X100665404Y-82549887D01*
X100505403Y-82849229D01*
X100375515Y-83162806D01*
X100375514Y-83162810D01*
X100276985Y-83487616D01*
X100210770Y-83820502D01*
X100210767Y-83820523D01*
X100177500Y-84158284D01*
X58572499Y-84158284D01*
X58539231Y-83820508D01*
X58473014Y-83487613D01*
X58374486Y-83162811D01*
X58244597Y-82849230D01*
X58084597Y-82549890D01*
X58084595Y-82549887D01*
X57896033Y-82267683D01*
X57896028Y-82267677D01*
X57896027Y-82267675D01*
X57806233Y-82158261D01*
X57680707Y-82005307D01*
X57680689Y-82005288D01*
X57440711Y-81765310D01*
X57440692Y-81765292D01*
X57257146Y-81614660D01*
X57178325Y-81549973D01*
X57178321Y-81549970D01*
X57178316Y-81549966D01*
X56896112Y-81361404D01*
X56596770Y-81201403D01*
X56283193Y-81071515D01*
X56283189Y-81071514D01*
X55958387Y-80972986D01*
X55958384Y-80972985D01*
X55958383Y-80972985D01*
X55625497Y-80906770D01*
X55625492Y-80906769D01*
X55625485Y-80906768D01*
X55625476Y-80906767D01*
X55287715Y-80873500D01*
X55287709Y-80873500D01*
X54948291Y-80873500D01*
X54948284Y-80873500D01*
X54610523Y-80906767D01*
X54610511Y-80906768D01*
X54610508Y-80906769D01*
X54610505Y-80906769D01*
X54610502Y-80906770D01*
X54277616Y-80972985D01*
X53952810Y-81071514D01*
X53952806Y-81071515D01*
X53639229Y-81201403D01*
X53339887Y-81361404D01*
X53057683Y-81549966D01*
X53057677Y-81549971D01*
X52795307Y-81765292D01*
X52795288Y-81765310D01*
X52555310Y-82005288D01*
X52555292Y-82005307D01*
X52339971Y-82267677D01*
X52339966Y-82267683D01*
X52151404Y-82549887D01*
X51991403Y-82849229D01*
X51861515Y-83162806D01*
X51861514Y-83162810D01*
X51762985Y-83487616D01*
X51696770Y-83820502D01*
X51696767Y-83820523D01*
X51663500Y-84158284D01*
X51054500Y-84158284D01*
X51054500Y-80390500D01*
X51074502Y-80322379D01*
X51128158Y-80275886D01*
X51180500Y-80264500D01*
X107569500Y-80264500D01*
X107637621Y-80284502D01*
G37*
G04 #@! TD.AperFunction*
M02*
