G04 #@! TF.GenerationSoftware,KiCad,Pcbnew,9.0.7-9.0.7~ubuntu24.04.1*
G04 #@! TF.CreationDate,2026-03-19T16:30:49-06:00*
G04 #@! TF.ProjectId,ckt-audiojack,636b742d-6175-4646-996f-6a61636b2e6b,rev?*
G04 #@! TF.SameCoordinates,Original*
G04 #@! TF.FileFunction,Legend,Top*
G04 #@! TF.FilePolarity,Positive*
%FSLAX46Y46*%
G04 Gerber Fmt 4.6, Leading zero omitted, Abs format (unit mm)*
G04 Created by KiCad (PCBNEW 9.0.7-9.0.7~ubuntu24.04.1) date 2026-03-19 16:30:49*
%MOMM*%
%LPD*%
G01*
G04 APERTURE LIST*
%ADD10C,0.000000*%
%ADD11C,0.203200*%
%ADD12C,0.150000*%
%ADD13C,0.120000*%
%ADD14C,0.152400*%
G04 APERTURE END LIST*
D10*
G36*
X62195914Y-107199246D02*
G01*
X62230805Y-107199785D01*
X62260618Y-107200737D01*
X62282916Y-107202111D01*
X62360734Y-107211740D01*
X62435773Y-107226159D01*
X62472222Y-107235143D01*
X62507942Y-107245297D01*
X62542922Y-107256614D01*
X62577150Y-107269083D01*
X62610614Y-107282697D01*
X62643304Y-107297446D01*
X62675208Y-107313321D01*
X62706314Y-107330314D01*
X62736611Y-107348415D01*
X62766088Y-107367615D01*
X62794733Y-107387906D01*
X62822534Y-107409279D01*
X62849481Y-107431725D01*
X62875562Y-107455235D01*
X62900765Y-107479799D01*
X62925079Y-107505410D01*
X62948492Y-107532058D01*
X62970994Y-107559734D01*
X62992572Y-107588429D01*
X63013216Y-107618135D01*
X63032913Y-107648842D01*
X63051653Y-107680542D01*
X63069424Y-107713225D01*
X63086214Y-107746884D01*
X63102012Y-107781508D01*
X63116807Y-107817089D01*
X63143341Y-107891086D01*
X63149025Y-107909179D01*
X63155011Y-107929533D01*
X63160971Y-107950871D01*
X63166581Y-107971916D01*
X63171512Y-107991390D01*
X63175439Y-108008015D01*
X63178034Y-108020515D01*
X63178731Y-108024818D01*
X63178972Y-108027611D01*
X63178087Y-108028568D01*
X63175345Y-108030010D01*
X63163780Y-108034501D01*
X63112738Y-108050982D01*
X63017642Y-108079502D01*
X62870291Y-108122508D01*
X62750204Y-108157223D01*
X62651746Y-108185390D01*
X62585038Y-108204165D01*
X62566752Y-108209141D01*
X62560200Y-108210702D01*
X62559600Y-108209463D01*
X62558381Y-108206414D01*
X62554379Y-108195709D01*
X62548790Y-108180242D01*
X62542208Y-108161666D01*
X62526901Y-108119908D01*
X62511248Y-108080855D01*
X62495210Y-108044459D01*
X62478747Y-108010672D01*
X62461818Y-107979446D01*
X62444385Y-107950733D01*
X62435466Y-107937304D01*
X62426406Y-107924486D01*
X62417201Y-107912271D01*
X62407844Y-107900655D01*
X62398331Y-107889631D01*
X62388657Y-107879193D01*
X62378817Y-107869335D01*
X62368806Y-107860052D01*
X62358619Y-107851336D01*
X62348251Y-107843183D01*
X62337698Y-107835586D01*
X62326953Y-107828539D01*
X62316013Y-107822037D01*
X62304871Y-107816072D01*
X62293524Y-107810640D01*
X62281966Y-107805733D01*
X62270193Y-107801347D01*
X62258198Y-107797475D01*
X62245978Y-107794111D01*
X62233528Y-107791250D01*
X62225200Y-107789629D01*
X62216283Y-107788208D01*
X62206868Y-107786986D01*
X62197043Y-107785963D01*
X62176520Y-107784521D01*
X62155431Y-107783885D01*
X62134491Y-107784060D01*
X62114416Y-107785048D01*
X62104925Y-107785850D01*
X62095919Y-107786856D01*
X62087486Y-107788068D01*
X62079717Y-107789486D01*
X62056970Y-107795034D01*
X62035559Y-107801894D01*
X62015479Y-107810070D01*
X61996726Y-107819565D01*
X61987845Y-107824810D01*
X61979295Y-107830386D01*
X61971075Y-107836295D01*
X61963184Y-107842537D01*
X61955622Y-107849112D01*
X61948387Y-107856021D01*
X61941481Y-107863266D01*
X61934901Y-107870845D01*
X61928648Y-107878760D01*
X61922721Y-107887012D01*
X61917120Y-107895601D01*
X61911844Y-107904528D01*
X61902264Y-107923396D01*
X61893979Y-107943622D01*
X61886983Y-107965210D01*
X61881273Y-107988165D01*
X61876845Y-108012491D01*
X61873694Y-108038194D01*
X61872786Y-108048921D01*
X61872183Y-108059172D01*
X61871894Y-108068991D01*
X61871925Y-108078422D01*
X61872285Y-108087510D01*
X61872981Y-108096299D01*
X61874022Y-108104834D01*
X61875414Y-108113159D01*
X61877166Y-108121319D01*
X61879286Y-108129358D01*
X61881780Y-108137321D01*
X61884658Y-108145251D01*
X61887926Y-108153194D01*
X61891593Y-108161194D01*
X61895666Y-108169295D01*
X61900153Y-108177541D01*
X61905838Y-108187154D01*
X61912182Y-108196813D01*
X61919189Y-108206524D01*
X61926865Y-108216292D01*
X61935214Y-108226121D01*
X61944243Y-108236018D01*
X61953956Y-108245988D01*
X61964358Y-108256034D01*
X61975455Y-108266164D01*
X61987252Y-108276381D01*
X61999753Y-108286691D01*
X62012964Y-108297100D01*
X62026891Y-108307612D01*
X62041538Y-108318232D01*
X62056910Y-108328966D01*
X62073014Y-108339819D01*
X62095763Y-108354668D01*
X62118616Y-108369050D01*
X62142932Y-108383754D01*
X62170072Y-108399571D01*
X62238263Y-108437698D01*
X62334069Y-108489750D01*
X62399603Y-108525131D01*
X62455910Y-108555912D01*
X62504478Y-108582947D01*
X62546794Y-108607092D01*
X62584349Y-108629204D01*
X62618629Y-108650137D01*
X62651123Y-108670747D01*
X62683319Y-108691891D01*
X62744364Y-108734404D01*
X62801328Y-108777596D01*
X62854265Y-108821550D01*
X62903226Y-108866351D01*
X62948267Y-108912082D01*
X62989440Y-108958827D01*
X63026798Y-109006669D01*
X63060395Y-109055693D01*
X63090283Y-109105982D01*
X63116516Y-109157620D01*
X63139147Y-109210690D01*
X63158230Y-109265276D01*
X63173817Y-109321462D01*
X63185962Y-109379332D01*
X63194718Y-109438970D01*
X63200139Y-109500458D01*
X63201650Y-109538248D01*
X63201715Y-109577220D01*
X63200374Y-109616903D01*
X63197669Y-109656826D01*
X63193641Y-109696518D01*
X63188332Y-109735507D01*
X63181782Y-109773322D01*
X63174033Y-109809491D01*
X63155984Y-109875130D01*
X63133520Y-109937978D01*
X63106743Y-109997946D01*
X63075751Y-110054947D01*
X63040647Y-110108893D01*
X63001529Y-110159696D01*
X62958498Y-110207268D01*
X62911655Y-110251521D01*
X62861099Y-110292368D01*
X62806931Y-110329721D01*
X62749251Y-110363491D01*
X62688159Y-110393592D01*
X62623756Y-110419934D01*
X62556141Y-110442431D01*
X62485416Y-110460994D01*
X62411680Y-110475535D01*
X62358554Y-110483205D01*
X62303901Y-110489001D01*
X62248447Y-110492905D01*
X62192914Y-110494894D01*
X62138026Y-110494948D01*
X62084507Y-110493047D01*
X62033079Y-110489170D01*
X62008376Y-110486484D01*
X61984467Y-110483296D01*
X61927082Y-110473355D01*
X61871350Y-110460730D01*
X61817278Y-110445428D01*
X61764873Y-110427453D01*
X61714143Y-110406809D01*
X61665094Y-110383501D01*
X61617734Y-110357534D01*
X61572069Y-110328912D01*
X61528108Y-110297640D01*
X61485858Y-110263723D01*
X61445325Y-110227166D01*
X61406517Y-110187972D01*
X61369442Y-110146147D01*
X61334106Y-110101695D01*
X61300516Y-110054621D01*
X61268680Y-110004930D01*
X61256891Y-109984642D01*
X61243617Y-109960303D01*
X61229458Y-109933120D01*
X61215014Y-109904300D01*
X61200884Y-109875050D01*
X61187668Y-109846577D01*
X61175965Y-109820088D01*
X61166375Y-109796791D01*
X61152854Y-109760893D01*
X61138775Y-109720415D01*
X61124970Y-109678150D01*
X61112267Y-109636895D01*
X61104837Y-109611050D01*
X61202947Y-109611050D01*
X61203064Y-109612773D01*
X61203412Y-109614939D01*
X61203999Y-109617608D01*
X61204833Y-109620840D01*
X61205919Y-109624696D01*
X61208880Y-109634521D01*
X61212941Y-109647566D01*
X61222112Y-109675858D01*
X61231756Y-109703829D01*
X61241856Y-109731445D01*
X61252397Y-109758674D01*
X61263365Y-109785484D01*
X61274742Y-109811841D01*
X61286515Y-109837714D01*
X61298667Y-109863069D01*
X61311182Y-109887874D01*
X61324046Y-109912097D01*
X61337242Y-109935706D01*
X61350756Y-109958666D01*
X61364572Y-109980947D01*
X61378674Y-110002515D01*
X61393047Y-110023337D01*
X61407675Y-110043383D01*
X61438294Y-110082145D01*
X61470231Y-110118666D01*
X61503497Y-110152953D01*
X61538103Y-110185012D01*
X61574062Y-110214851D01*
X61611383Y-110242477D01*
X61650080Y-110267898D01*
X61690162Y-110291121D01*
X61731641Y-110312152D01*
X61774529Y-110331000D01*
X61818837Y-110347671D01*
X61864577Y-110362172D01*
X61911760Y-110374512D01*
X61960396Y-110384696D01*
X62010499Y-110392733D01*
X62062078Y-110398630D01*
X62089949Y-110400425D01*
X62123847Y-110401347D01*
X62161830Y-110401451D01*
X62201954Y-110400790D01*
X62242277Y-110399419D01*
X62280855Y-110397389D01*
X62315746Y-110394757D01*
X62345006Y-110391574D01*
X62386322Y-110385389D01*
X62426534Y-110378079D01*
X62465645Y-110369642D01*
X62503656Y-110360078D01*
X62540572Y-110349385D01*
X62576396Y-110337562D01*
X62611130Y-110324609D01*
X62644778Y-110310523D01*
X62677343Y-110295306D01*
X62708828Y-110278954D01*
X62739236Y-110261468D01*
X62768570Y-110242845D01*
X62796834Y-110223086D01*
X62824029Y-110202189D01*
X62850161Y-110180153D01*
X62875230Y-110156977D01*
X62898218Y-110133759D01*
X62919964Y-110109859D01*
X62940482Y-110085248D01*
X62959787Y-110059897D01*
X62977892Y-110033777D01*
X62994814Y-110006859D01*
X63010565Y-109979114D01*
X63025161Y-109950514D01*
X63038616Y-109921029D01*
X63050944Y-109890630D01*
X63062160Y-109859288D01*
X63072279Y-109826975D01*
X63081314Y-109793662D01*
X63089281Y-109759319D01*
X63096194Y-109723918D01*
X63102067Y-109687430D01*
X63103353Y-109676781D01*
X63104435Y-109663838D01*
X63106002Y-109632375D01*
X63106792Y-109595653D01*
X63106829Y-109556285D01*
X63106139Y-109516884D01*
X63104745Y-109480063D01*
X63102674Y-109448434D01*
X63099950Y-109424611D01*
X63096586Y-109405237D01*
X63092420Y-109384322D01*
X63087609Y-109362506D01*
X63082311Y-109340429D01*
X63076682Y-109318732D01*
X63070879Y-109298057D01*
X63065059Y-109279044D01*
X63059381Y-109262333D01*
X63053953Y-109248153D01*
X63048008Y-109233692D01*
X63041574Y-109218999D01*
X63034680Y-109204124D01*
X63027354Y-109189118D01*
X63019625Y-109174028D01*
X63003068Y-109143799D01*
X62985238Y-109113835D01*
X62966363Y-109084533D01*
X62956604Y-109070254D01*
X62946668Y-109056288D01*
X62936585Y-109042687D01*
X62926383Y-109029499D01*
X62919489Y-109021133D01*
X62911347Y-109011748D01*
X62891949Y-108990540D01*
X62869450Y-108967116D01*
X62845112Y-108942716D01*
X62820195Y-108918581D01*
X62795960Y-108895951D01*
X62773668Y-108876066D01*
X62754580Y-108860166D01*
X62710850Y-108826560D01*
X62667406Y-108794979D01*
X62622117Y-108764110D01*
X62572856Y-108732637D01*
X62517492Y-108699246D01*
X62453898Y-108662622D01*
X62379943Y-108621450D01*
X62293500Y-108574416D01*
X62206530Y-108527053D01*
X62133984Y-108486486D01*
X62102490Y-108468343D01*
X62073848Y-108451410D01*
X62047805Y-108435522D01*
X62024110Y-108420517D01*
X62002511Y-108406231D01*
X61982756Y-108392501D01*
X61964593Y-108379164D01*
X61947772Y-108366057D01*
X61932040Y-108353015D01*
X61917146Y-108339877D01*
X61902838Y-108326478D01*
X61888864Y-108312655D01*
X61875485Y-108298788D01*
X61863112Y-108285197D01*
X61851717Y-108271826D01*
X61841272Y-108258619D01*
X61831748Y-108245523D01*
X61823119Y-108232480D01*
X61815355Y-108219437D01*
X61808430Y-108206337D01*
X61802315Y-108193125D01*
X61796983Y-108179747D01*
X61792405Y-108166146D01*
X61788554Y-108152268D01*
X61785401Y-108138057D01*
X61782919Y-108123458D01*
X61781080Y-108108416D01*
X61779855Y-108092875D01*
X61779011Y-108068448D01*
X61779497Y-108044170D01*
X61781282Y-108020125D01*
X61784331Y-107996395D01*
X61788613Y-107973065D01*
X61794093Y-107950217D01*
X61800740Y-107927934D01*
X61808519Y-107906299D01*
X61817397Y-107885397D01*
X61827343Y-107865309D01*
X61838321Y-107846119D01*
X61850301Y-107827911D01*
X61863247Y-107810767D01*
X61877128Y-107794771D01*
X61891911Y-107780006D01*
X61899629Y-107773111D01*
X61907561Y-107766555D01*
X61930852Y-107749838D01*
X61955992Y-107735148D01*
X61982755Y-107722494D01*
X62010914Y-107711886D01*
X62040243Y-107703332D01*
X62070515Y-107696842D01*
X62101505Y-107692425D01*
X62132986Y-107690091D01*
X62164731Y-107689848D01*
X62196515Y-107691707D01*
X62228110Y-107695676D01*
X62259291Y-107701765D01*
X62289832Y-107709983D01*
X62319505Y-107720340D01*
X62348084Y-107732844D01*
X62375344Y-107747505D01*
X62383266Y-107752512D01*
X62391755Y-107758475D01*
X62400718Y-107765299D01*
X62410060Y-107772889D01*
X62419687Y-107781150D01*
X62429505Y-107789989D01*
X62439421Y-107799311D01*
X62449339Y-107809021D01*
X62459167Y-107819024D01*
X62468810Y-107829226D01*
X62478173Y-107839533D01*
X62487164Y-107849849D01*
X62495687Y-107860081D01*
X62503649Y-107870133D01*
X62510956Y-107879912D01*
X62517514Y-107889322D01*
X62528549Y-107906798D01*
X62540048Y-107926341D01*
X62551744Y-107947439D01*
X62563375Y-107969579D01*
X62574675Y-107992248D01*
X62585379Y-108014933D01*
X62595224Y-108037122D01*
X62603944Y-108058302D01*
X62606112Y-108063745D01*
X62608124Y-108068708D01*
X62609989Y-108073205D01*
X62611716Y-108077253D01*
X62613316Y-108080867D01*
X62614796Y-108084062D01*
X62615495Y-108085507D01*
X62616167Y-108086854D01*
X62616815Y-108088104D01*
X62617438Y-108089259D01*
X62618039Y-108090320D01*
X62618618Y-108091291D01*
X62619176Y-108092173D01*
X62619716Y-108092967D01*
X62620237Y-108093676D01*
X62620742Y-108094302D01*
X62621230Y-108094846D01*
X62621704Y-108095311D01*
X62622165Y-108095698D01*
X62622613Y-108096010D01*
X62623051Y-108096248D01*
X62623478Y-108096415D01*
X62623896Y-108096511D01*
X62624307Y-108096540D01*
X62624712Y-108096503D01*
X62625111Y-108096402D01*
X62843833Y-108032902D01*
X62996277Y-107988585D01*
X63044007Y-107974413D01*
X63057638Y-107970235D01*
X63063261Y-107968344D01*
X63064124Y-107967920D01*
X63064856Y-107967413D01*
X63065451Y-107966784D01*
X63065901Y-107965990D01*
X63066201Y-107964992D01*
X63066343Y-107963749D01*
X63066321Y-107962219D01*
X63066127Y-107960362D01*
X63065756Y-107958138D01*
X63065201Y-107955504D01*
X63063509Y-107948848D01*
X63060999Y-107940066D01*
X63057617Y-107928833D01*
X63050310Y-107906125D01*
X63042426Y-107883533D01*
X63033980Y-107861087D01*
X63024990Y-107838820D01*
X63015473Y-107816763D01*
X63005446Y-107794950D01*
X62994926Y-107773411D01*
X62983930Y-107752179D01*
X62972475Y-107731287D01*
X62960578Y-107710765D01*
X62948257Y-107690647D01*
X62935528Y-107670963D01*
X62922408Y-107651747D01*
X62908914Y-107633030D01*
X62895064Y-107614844D01*
X62880875Y-107597222D01*
X62874605Y-107589873D01*
X62867630Y-107582037D01*
X62851914Y-107565240D01*
X62834428Y-107547501D01*
X62815875Y-107529489D01*
X62796959Y-107511873D01*
X62778382Y-107495324D01*
X62760846Y-107480512D01*
X62752689Y-107473966D01*
X62745055Y-107468105D01*
X62722312Y-107451639D01*
X62699056Y-107435971D01*
X62675277Y-107421101D01*
X62650968Y-107407025D01*
X62626120Y-107393741D01*
X62600723Y-107381245D01*
X62574769Y-107369537D01*
X62548249Y-107358612D01*
X62521155Y-107348468D01*
X62493477Y-107339104D01*
X62465207Y-107330515D01*
X62436336Y-107322700D01*
X62406855Y-107315656D01*
X62376756Y-107309381D01*
X62346029Y-107303871D01*
X62314666Y-107299125D01*
X62291563Y-107296785D01*
X62260476Y-107294831D01*
X62223974Y-107293314D01*
X62184624Y-107292290D01*
X62144992Y-107291811D01*
X62107646Y-107291931D01*
X62075154Y-107292705D01*
X62050083Y-107294186D01*
X61969565Y-107303565D01*
X61930886Y-107309876D01*
X61893266Y-107317262D01*
X61856710Y-107325721D01*
X61821222Y-107335247D01*
X61786807Y-107345837D01*
X61753469Y-107357487D01*
X61721212Y-107370194D01*
X61690042Y-107383953D01*
X61659962Y-107398760D01*
X61630977Y-107414613D01*
X61603091Y-107431505D01*
X61576310Y-107449435D01*
X61550636Y-107468398D01*
X61526076Y-107488390D01*
X61502633Y-107509407D01*
X61480311Y-107531446D01*
X61459116Y-107554502D01*
X61439051Y-107578572D01*
X61420121Y-107603651D01*
X61402331Y-107629736D01*
X61385684Y-107656824D01*
X61370187Y-107684909D01*
X61355842Y-107713989D01*
X61342654Y-107744059D01*
X61330629Y-107775116D01*
X61319769Y-107807155D01*
X61310080Y-107840173D01*
X61301567Y-107874166D01*
X61294233Y-107909130D01*
X61288083Y-107945061D01*
X61284325Y-107972030D01*
X61281252Y-107998809D01*
X61278864Y-108025364D01*
X61277158Y-108051660D01*
X61276135Y-108077665D01*
X61275793Y-108103346D01*
X61276130Y-108128667D01*
X61277147Y-108153597D01*
X61278842Y-108178100D01*
X61281214Y-108202144D01*
X61284261Y-108225695D01*
X61287984Y-108248720D01*
X61292381Y-108271184D01*
X61297450Y-108293055D01*
X61303191Y-108314298D01*
X61309603Y-108334880D01*
X61316762Y-108355311D01*
X61324855Y-108375828D01*
X61333852Y-108396382D01*
X61343717Y-108416928D01*
X61354420Y-108437419D01*
X61365928Y-108457806D01*
X61378207Y-108478043D01*
X61391227Y-108498084D01*
X61404953Y-108517881D01*
X61419353Y-108537386D01*
X61434395Y-108556554D01*
X61450047Y-108575337D01*
X61466275Y-108593688D01*
X61483047Y-108611559D01*
X61500331Y-108628905D01*
X61518094Y-108645677D01*
X61560130Y-108682643D01*
X61603621Y-108717898D01*
X61650452Y-108752672D01*
X61702509Y-108788200D01*
X61761676Y-108825711D01*
X61829840Y-108866439D01*
X61908884Y-108911615D01*
X62000694Y-108962472D01*
X62103573Y-109019263D01*
X62144586Y-109042299D01*
X62179993Y-109062528D01*
X62210804Y-109080525D01*
X62238025Y-109096863D01*
X62262667Y-109112119D01*
X62285739Y-109126866D01*
X62315844Y-109147005D01*
X62344151Y-109166845D01*
X62370713Y-109186445D01*
X62395585Y-109205861D01*
X62418819Y-109225151D01*
X62440470Y-109244372D01*
X62460592Y-109263582D01*
X62479237Y-109282838D01*
X62496461Y-109302197D01*
X62512316Y-109321717D01*
X62526856Y-109341455D01*
X62540136Y-109361469D01*
X62552208Y-109381815D01*
X62563127Y-109402552D01*
X62572946Y-109423736D01*
X62581719Y-109445424D01*
X62586601Y-109459499D01*
X62590927Y-109474161D01*
X62594695Y-109489346D01*
X62597903Y-109504989D01*
X62600548Y-109521025D01*
X62602630Y-109537388D01*
X62604144Y-109554014D01*
X62605091Y-109570837D01*
X62605467Y-109587793D01*
X62605270Y-109604815D01*
X62604499Y-109621840D01*
X62603150Y-109638802D01*
X62601224Y-109655636D01*
X62598716Y-109672276D01*
X62595625Y-109688658D01*
X62591950Y-109704716D01*
X62582303Y-109737326D01*
X62570474Y-109768311D01*
X62556526Y-109797621D01*
X62540527Y-109825201D01*
X62522541Y-109850999D01*
X62502634Y-109874963D01*
X62480872Y-109897040D01*
X62457321Y-109917176D01*
X62432046Y-109935321D01*
X62405112Y-109951419D01*
X62376586Y-109965420D01*
X62346532Y-109977270D01*
X62315017Y-109986916D01*
X62282107Y-109994307D01*
X62247866Y-109999388D01*
X62212361Y-110002108D01*
X62190525Y-110002502D01*
X62168945Y-110001842D01*
X62147636Y-110000138D01*
X62126610Y-109997402D01*
X62105880Y-109993646D01*
X62085459Y-109988881D01*
X62065360Y-109983119D01*
X62045596Y-109976371D01*
X62026181Y-109968649D01*
X62007127Y-109959965D01*
X61988448Y-109950330D01*
X61970156Y-109939755D01*
X61952264Y-109928252D01*
X61934786Y-109915833D01*
X61917735Y-109902509D01*
X61901123Y-109888293D01*
X61884964Y-109873194D01*
X61869270Y-109857226D01*
X61854056Y-109840399D01*
X61839333Y-109822725D01*
X61811415Y-109784883D01*
X61785621Y-109743792D01*
X61762055Y-109699544D01*
X61740822Y-109652233D01*
X61722027Y-109601950D01*
X61705772Y-109548788D01*
X61703417Y-109539874D01*
X61701153Y-109531513D01*
X61699038Y-109523897D01*
X61697129Y-109517215D01*
X61695485Y-109511657D01*
X61694164Y-109507414D01*
X61693222Y-109504676D01*
X61692912Y-109503931D01*
X61692719Y-109503633D01*
X61460283Y-109552184D01*
X61208003Y-109606291D01*
X61205581Y-109606951D01*
X61204649Y-109607369D01*
X61203913Y-109607928D01*
X61203378Y-109608688D01*
X61203054Y-109609708D01*
X61202947Y-109611050D01*
X61104837Y-109611050D01*
X61101500Y-109599442D01*
X61093499Y-109568588D01*
X61090795Y-109556508D01*
X61089094Y-109547126D01*
X61088500Y-109540791D01*
X61088650Y-109538875D01*
X61089116Y-109537852D01*
X61196234Y-109513472D01*
X61428268Y-109463460D01*
X61659972Y-109414573D01*
X61766097Y-109393566D01*
X61766552Y-109394773D01*
X61767354Y-109397728D01*
X61769801Y-109408074D01*
X61773042Y-109422985D01*
X61776680Y-109440838D01*
X61784996Y-109479964D01*
X61794454Y-109517554D01*
X61805039Y-109553585D01*
X61816737Y-109588035D01*
X61829533Y-109620881D01*
X61843411Y-109652100D01*
X61858357Y-109681669D01*
X61874356Y-109709567D01*
X61882745Y-109722881D01*
X61891392Y-109735769D01*
X61900295Y-109748227D01*
X61909451Y-109760254D01*
X61918859Y-109771845D01*
X61928518Y-109782998D01*
X61938424Y-109793710D01*
X61948577Y-109803979D01*
X61958974Y-109813801D01*
X61969614Y-109823174D01*
X61980494Y-109832094D01*
X61991614Y-109840560D01*
X62002970Y-109848568D01*
X62014561Y-109856115D01*
X62026386Y-109863198D01*
X62038441Y-109869816D01*
X62053837Y-109877480D01*
X62069330Y-109884335D01*
X62084921Y-109890379D01*
X62100608Y-109895613D01*
X62116389Y-109900036D01*
X62132265Y-109903650D01*
X62148234Y-109906453D01*
X62164295Y-109908445D01*
X62180447Y-109909628D01*
X62196688Y-109910000D01*
X62213019Y-109909561D01*
X62229438Y-109908313D01*
X62245943Y-109906254D01*
X62262534Y-109903385D01*
X62279210Y-109899706D01*
X62295969Y-109895216D01*
X62320664Y-109886994D01*
X62344054Y-109877051D01*
X62366099Y-109865443D01*
X62386760Y-109852227D01*
X62405997Y-109837458D01*
X62423769Y-109821193D01*
X62440038Y-109803488D01*
X62454763Y-109784400D01*
X62467905Y-109763984D01*
X62479424Y-109742299D01*
X62489280Y-109719398D01*
X62497433Y-109695340D01*
X62503843Y-109670180D01*
X62508472Y-109643974D01*
X62511278Y-109616780D01*
X62512222Y-109588652D01*
X62511922Y-109573115D01*
X62511014Y-109557963D01*
X62509485Y-109543164D01*
X62507322Y-109528680D01*
X62504511Y-109514478D01*
X62501041Y-109500521D01*
X62496898Y-109486776D01*
X62492070Y-109473206D01*
X62486542Y-109459776D01*
X62480303Y-109446452D01*
X62473340Y-109433199D01*
X62465639Y-109419980D01*
X62457187Y-109406762D01*
X62447973Y-109393508D01*
X62437982Y-109380184D01*
X62427202Y-109366755D01*
X62412671Y-109349810D01*
X62397351Y-109333256D01*
X62380994Y-109316924D01*
X62363350Y-109300642D01*
X62344167Y-109284241D01*
X62323196Y-109267549D01*
X62300188Y-109250396D01*
X62274891Y-109232611D01*
X62216432Y-109194466D01*
X62145818Y-109151748D01*
X62061050Y-109103094D01*
X61960125Y-109047138D01*
X61878540Y-109002060D01*
X61808304Y-108962405D01*
X61747667Y-108927084D01*
X61694880Y-108895003D01*
X61648196Y-108865072D01*
X61605864Y-108836199D01*
X61566137Y-108807294D01*
X61527266Y-108777263D01*
X61506678Y-108760227D01*
X61484134Y-108740393D01*
X61460523Y-108718631D01*
X61436735Y-108695816D01*
X61413658Y-108672818D01*
X61392180Y-108650511D01*
X61373192Y-108629767D01*
X61364908Y-108620254D01*
X61357580Y-108611458D01*
X61334966Y-108582205D01*
X61313948Y-108552506D01*
X61294519Y-108522337D01*
X61276673Y-108491673D01*
X61260402Y-108460491D01*
X61245699Y-108428765D01*
X61232556Y-108396472D01*
X61220967Y-108363587D01*
X61210924Y-108330087D01*
X61202420Y-108295946D01*
X61195448Y-108261140D01*
X61190000Y-108225646D01*
X61186069Y-108189438D01*
X61183649Y-108152493D01*
X61182731Y-108114787D01*
X61183308Y-108076294D01*
X61185466Y-108033547D01*
X61188900Y-107991820D01*
X61193609Y-107951111D01*
X61199597Y-107911414D01*
X61206864Y-107872727D01*
X61215412Y-107835044D01*
X61225242Y-107798361D01*
X61236357Y-107762674D01*
X61248758Y-107727980D01*
X61262445Y-107694274D01*
X61277422Y-107661552D01*
X61293689Y-107629810D01*
X61311248Y-107599043D01*
X61330100Y-107569248D01*
X61350248Y-107540420D01*
X61371691Y-107512555D01*
X61377475Y-107505622D01*
X61384042Y-107498115D01*
X61399125Y-107481764D01*
X61416135Y-107464273D01*
X61434265Y-107446409D01*
X61452710Y-107428943D01*
X61470662Y-107412642D01*
X61487317Y-107398276D01*
X61494905Y-107392059D01*
X61501867Y-107386613D01*
X61528289Y-107367709D01*
X61555684Y-107349762D01*
X61584033Y-107332778D01*
X61613317Y-107316763D01*
X61643516Y-107301725D01*
X61674613Y-107287668D01*
X61706586Y-107274599D01*
X61739418Y-107262524D01*
X61773089Y-107251450D01*
X61807581Y-107241382D01*
X61842873Y-107232327D01*
X61878947Y-107224292D01*
X61915784Y-107217281D01*
X61953365Y-107211302D01*
X61991670Y-107206361D01*
X62030680Y-107202463D01*
X62054367Y-107201059D01*
X62085173Y-107200027D01*
X62120659Y-107199375D01*
X62158386Y-107199112D01*
X62195914Y-107199246D01*
G37*
G36*
X60271730Y-106038561D02*
G01*
X60293029Y-106039235D01*
X60312873Y-106040314D01*
X60329873Y-106041774D01*
X60336872Y-106042638D01*
X60342639Y-106043589D01*
X60358012Y-106046779D01*
X60373173Y-106050528D01*
X60388115Y-106054831D01*
X60402831Y-106059684D01*
X60417316Y-106065082D01*
X60431564Y-106071023D01*
X60445567Y-106077500D01*
X60459320Y-106084511D01*
X60472817Y-106092051D01*
X60486051Y-106100116D01*
X60499017Y-106108702D01*
X60511707Y-106117804D01*
X60524117Y-106127419D01*
X60536239Y-106137543D01*
X60548068Y-106148171D01*
X60559597Y-106159300D01*
X60569515Y-106169540D01*
X60579027Y-106180018D01*
X60588133Y-106190733D01*
X60596832Y-106201683D01*
X60605124Y-106212866D01*
X60613008Y-106224282D01*
X60620484Y-106235928D01*
X60627551Y-106247803D01*
X60634209Y-106259905D01*
X60640457Y-106272233D01*
X60646295Y-106284786D01*
X60651722Y-106297561D01*
X60656737Y-106310557D01*
X60661341Y-106323773D01*
X60665532Y-106337207D01*
X60669311Y-106350858D01*
X60672557Y-106364559D01*
X60675283Y-106378759D01*
X60677493Y-106393387D01*
X60679189Y-106408372D01*
X60680371Y-106423642D01*
X60681043Y-106439125D01*
X60681207Y-106454752D01*
X60680864Y-106470450D01*
X60680017Y-106486147D01*
X60678668Y-106501774D01*
X60676818Y-106517258D01*
X60674470Y-106532527D01*
X60671626Y-106547512D01*
X60668288Y-106562140D01*
X60664458Y-106576340D01*
X60660139Y-106590041D01*
X60655892Y-106602012D01*
X60651347Y-106613722D01*
X60646496Y-106625186D01*
X60641331Y-106636415D01*
X60635844Y-106647423D01*
X60630026Y-106658223D01*
X60623869Y-106668828D01*
X60617364Y-106679250D01*
X60610505Y-106689503D01*
X60603281Y-106699599D01*
X60595685Y-106709551D01*
X60587709Y-106719373D01*
X60579344Y-106729077D01*
X60570583Y-106738676D01*
X60561416Y-106748183D01*
X60551836Y-106757611D01*
X60537837Y-106770584D01*
X60523488Y-106782781D01*
X60508786Y-106794205D01*
X60493727Y-106804855D01*
X60478308Y-106814735D01*
X60462527Y-106823845D01*
X60446379Y-106832188D01*
X60429863Y-106839764D01*
X60412975Y-106846575D01*
X60395711Y-106852623D01*
X60378069Y-106857909D01*
X60360046Y-106862435D01*
X60341638Y-106866203D01*
X60322843Y-106869213D01*
X60303657Y-106871468D01*
X60284078Y-106872969D01*
X60262215Y-106873633D01*
X60240443Y-106873121D01*
X60218804Y-106871449D01*
X60197338Y-106868631D01*
X60176088Y-106864682D01*
X60155093Y-106859618D01*
X60134396Y-106853453D01*
X60114039Y-106846202D01*
X60094061Y-106837880D01*
X60074506Y-106828503D01*
X60055413Y-106818085D01*
X60036825Y-106806641D01*
X60018782Y-106794187D01*
X60001326Y-106780736D01*
X59984499Y-106766305D01*
X59968342Y-106750908D01*
X59953646Y-106735585D01*
X59939857Y-106719789D01*
X59926980Y-106703534D01*
X59915022Y-106686835D01*
X59903988Y-106669705D01*
X59893884Y-106652160D01*
X59884715Y-106634215D01*
X59876487Y-106615882D01*
X59869206Y-106597178D01*
X59862877Y-106578116D01*
X59857506Y-106558710D01*
X59853099Y-106538977D01*
X59849661Y-106518929D01*
X59847199Y-106498581D01*
X59845717Y-106477948D01*
X59845222Y-106457044D01*
X59845600Y-106438807D01*
X59846726Y-106420753D01*
X59848586Y-106402898D01*
X59851166Y-106385259D01*
X59854455Y-106367854D01*
X59858438Y-106350700D01*
X59863102Y-106333814D01*
X59868434Y-106317212D01*
X59874421Y-106300912D01*
X59881049Y-106284931D01*
X59888306Y-106269285D01*
X59896177Y-106253993D01*
X59904650Y-106239071D01*
X59913712Y-106224535D01*
X59923350Y-106210404D01*
X59933549Y-106196694D01*
X59944297Y-106183422D01*
X59955580Y-106170606D01*
X59967386Y-106158262D01*
X59979701Y-106146407D01*
X59992512Y-106135058D01*
X60005806Y-106124233D01*
X60019568Y-106113949D01*
X60033787Y-106104222D01*
X60048449Y-106095070D01*
X60063540Y-106086510D01*
X60079048Y-106078558D01*
X60094959Y-106071232D01*
X60111260Y-106064549D01*
X60127937Y-106058526D01*
X60144978Y-106053180D01*
X60162369Y-106048527D01*
X60173669Y-106045871D01*
X60184506Y-106043412D01*
X60189358Y-106042361D01*
X60193623Y-106041483D01*
X60197144Y-106040820D01*
X60199764Y-106040413D01*
X60205779Y-106039751D01*
X60212993Y-106039219D01*
X60230323Y-106038528D01*
X60250365Y-106038318D01*
X60271730Y-106038561D01*
G37*
G36*
X60938719Y-109158242D02*
G01*
X60946153Y-109159126D01*
X60953544Y-109160461D01*
X60960838Y-109162232D01*
X60967978Y-109164425D01*
X60974911Y-109167025D01*
X60981580Y-109170018D01*
X60987930Y-109173389D01*
X60993906Y-109177124D01*
X60999452Y-109181208D01*
X61002047Y-109183376D01*
X61004514Y-109185627D01*
X61006846Y-109187957D01*
X61009036Y-109190366D01*
X61013411Y-109195639D01*
X61017411Y-109201062D01*
X61021038Y-109206621D01*
X61024296Y-109212300D01*
X61027186Y-109218085D01*
X61029711Y-109223960D01*
X61031875Y-109229912D01*
X61033681Y-109235924D01*
X61035130Y-109241982D01*
X61036226Y-109248072D01*
X61036971Y-109254178D01*
X61037369Y-109260284D01*
X61037422Y-109266377D01*
X61037132Y-109272442D01*
X61036504Y-109278463D01*
X61035538Y-109284426D01*
X61034239Y-109290315D01*
X61032609Y-109296115D01*
X61030650Y-109301813D01*
X61028366Y-109307393D01*
X61025760Y-109312839D01*
X61022833Y-109318137D01*
X61019589Y-109323273D01*
X61016031Y-109328231D01*
X61012161Y-109332995D01*
X61007982Y-109337553D01*
X61003498Y-109341887D01*
X60998710Y-109345984D01*
X60993621Y-109349829D01*
X60988235Y-109353406D01*
X60982554Y-109356702D01*
X60976580Y-109359699D01*
X60971613Y-109361808D01*
X60966393Y-109363635D01*
X60960955Y-109365181D01*
X60955336Y-109366446D01*
X60949573Y-109367430D01*
X60943702Y-109368133D01*
X60937758Y-109368555D01*
X60931778Y-109368695D01*
X60925797Y-109368555D01*
X60919853Y-109368133D01*
X60913982Y-109367430D01*
X60908219Y-109366446D01*
X60902600Y-109365181D01*
X60897163Y-109363635D01*
X60891942Y-109361808D01*
X60886975Y-109359699D01*
X60883657Y-109357976D01*
X60880097Y-109355886D01*
X60876357Y-109353482D01*
X60872500Y-109350819D01*
X60868589Y-109347952D01*
X60864688Y-109344934D01*
X60860859Y-109341821D01*
X60857165Y-109338665D01*
X60853670Y-109335522D01*
X60850436Y-109332445D01*
X60847527Y-109329490D01*
X60845005Y-109326709D01*
X60842934Y-109324158D01*
X60842087Y-109322986D01*
X60841377Y-109321891D01*
X60840810Y-109320881D01*
X60840396Y-109319962D01*
X60840142Y-109319141D01*
X60840055Y-109318425D01*
X60839693Y-109318098D01*
X60838631Y-109317782D01*
X60834549Y-109317184D01*
X60828093Y-109316645D01*
X60819550Y-109316176D01*
X60809205Y-109315789D01*
X60797342Y-109315498D01*
X60770205Y-109315250D01*
X60700355Y-109315250D01*
X60572650Y-109476469D01*
X60444944Y-109638041D01*
X60444944Y-109835949D01*
X60444944Y-110033857D01*
X60454116Y-110038796D01*
X60457022Y-110040522D01*
X60460030Y-110042634D01*
X60463112Y-110045093D01*
X60466238Y-110047864D01*
X60469378Y-110050910D01*
X60472503Y-110054194D01*
X60475584Y-110057680D01*
X60478590Y-110061330D01*
X60481494Y-110065109D01*
X60484265Y-110068979D01*
X60486873Y-110072904D01*
X60489290Y-110076847D01*
X60491485Y-110080771D01*
X60493430Y-110084640D01*
X60495095Y-110088417D01*
X60496450Y-110092066D01*
X60497906Y-110097129D01*
X60499100Y-110102496D01*
X60500036Y-110108113D01*
X60500716Y-110113927D01*
X60501145Y-110119886D01*
X60501324Y-110125937D01*
X60501257Y-110132027D01*
X60500948Y-110138103D01*
X60500398Y-110144114D01*
X60499612Y-110150006D01*
X60498593Y-110155726D01*
X60497343Y-110161221D01*
X60495865Y-110166440D01*
X60494164Y-110171329D01*
X60492241Y-110175836D01*
X60490100Y-110179908D01*
X60486015Y-110186385D01*
X60481700Y-110192457D01*
X60477154Y-110198120D01*
X60472378Y-110203373D01*
X60467373Y-110208215D01*
X60462139Y-110212644D01*
X60456676Y-110216658D01*
X60450986Y-110220257D01*
X60445068Y-110223438D01*
X60438923Y-110226199D01*
X60432552Y-110228541D01*
X60425955Y-110230460D01*
X60419133Y-110231955D01*
X60412086Y-110233025D01*
X60404814Y-110233668D01*
X60397319Y-110233883D01*
X60391677Y-110233751D01*
X60386131Y-110233361D01*
X60380688Y-110232717D01*
X60375351Y-110231825D01*
X60370128Y-110230690D01*
X60365023Y-110229318D01*
X60360042Y-110227714D01*
X60355190Y-110225885D01*
X60350473Y-110223834D01*
X60345896Y-110221569D01*
X60341466Y-110219093D01*
X60337186Y-110216414D01*
X60333064Y-110213536D01*
X60329104Y-110210464D01*
X60325312Y-110207205D01*
X60321693Y-110203764D01*
X60318252Y-110200146D01*
X60314996Y-110196357D01*
X60311930Y-110192402D01*
X60309059Y-110188287D01*
X60306389Y-110184017D01*
X60303925Y-110179597D01*
X60301673Y-110175034D01*
X60299638Y-110170333D01*
X60297826Y-110165499D01*
X60296242Y-110160537D01*
X60294892Y-110155454D01*
X60293781Y-110150254D01*
X60292915Y-110144944D01*
X60292299Y-110139528D01*
X60291938Y-110134012D01*
X60291839Y-110128402D01*
X60291975Y-110122274D01*
X60292387Y-110116324D01*
X60293076Y-110110544D01*
X60294044Y-110104931D01*
X60295292Y-110099480D01*
X60296824Y-110094184D01*
X60298642Y-110089039D01*
X60300746Y-110084040D01*
X60303140Y-110079182D01*
X60305826Y-110074459D01*
X60308805Y-110069866D01*
X60312079Y-110065398D01*
X60315652Y-110061050D01*
X60319524Y-110056817D01*
X60323697Y-110052694D01*
X60328175Y-110048674D01*
X60346166Y-110033152D01*
X60346166Y-109816899D01*
X60346166Y-109600294D01*
X60498919Y-109406972D01*
X60651319Y-109213297D01*
X60744805Y-109212944D01*
X60838292Y-109212591D01*
X60847816Y-109198833D01*
X60850109Y-109195688D01*
X60852612Y-109192610D01*
X60855314Y-109189606D01*
X60858201Y-109186684D01*
X60861263Y-109183854D01*
X60864485Y-109181122D01*
X60867857Y-109178498D01*
X60871364Y-109175990D01*
X60874996Y-109173606D01*
X60878740Y-109171355D01*
X60882582Y-109169244D01*
X60886512Y-109167281D01*
X60890516Y-109165476D01*
X60894582Y-109163836D01*
X60898697Y-109162370D01*
X60902850Y-109161085D01*
X60906225Y-109160226D01*
X60909666Y-109159500D01*
X60916716Y-109158437D01*
X60923945Y-109157883D01*
X60931298Y-109157822D01*
X60938719Y-109158242D01*
G37*
G36*
X65267416Y-107551361D02*
G01*
X65267416Y-107861805D01*
X64748833Y-107861805D01*
X64230250Y-107861805D01*
X64230250Y-108174013D01*
X64230250Y-108486222D01*
X64625361Y-108486222D01*
X65020472Y-108486222D01*
X65020472Y-108794902D01*
X65020472Y-109103583D01*
X64625361Y-109103583D01*
X64230250Y-109103583D01*
X64230250Y-109468708D01*
X64230250Y-109833833D01*
X64769999Y-109833833D01*
X65309750Y-109833833D01*
X65309750Y-110142513D01*
X65309750Y-110451194D01*
X64426041Y-110451194D01*
X63542333Y-110451194D01*
X63542333Y-110359471D01*
X63634055Y-110359471D01*
X64426041Y-110359471D01*
X65218027Y-110359471D01*
X65218027Y-110142513D01*
X65218027Y-109925555D01*
X64678278Y-109925555D01*
X64138527Y-109925555D01*
X64138527Y-109468708D01*
X64138527Y-109011861D01*
X64533638Y-109011861D01*
X64928749Y-109011861D01*
X64928749Y-108794902D01*
X64928749Y-108577944D01*
X64533638Y-108577944D01*
X64138527Y-108577944D01*
X64138527Y-108172250D01*
X64138527Y-107766555D01*
X64657111Y-107766555D01*
X65175694Y-107766555D01*
X65175694Y-107549597D01*
X65175694Y-107332639D01*
X64404875Y-107332639D01*
X63634055Y-107332639D01*
X63634055Y-108846055D01*
X63634055Y-110359471D01*
X63542333Y-110359471D01*
X63542333Y-108846055D01*
X63542333Y-107240916D01*
X64404875Y-107240916D01*
X65267416Y-107240916D01*
X65267416Y-107551361D01*
G37*
G36*
X60071000Y-107315000D02*
G01*
X60071000Y-107403194D01*
X60263264Y-107403194D01*
X60455528Y-107403194D01*
X60455528Y-107315000D01*
X60455528Y-107226805D01*
X60504916Y-107226805D01*
X60554305Y-107226805D01*
X60554305Y-107315000D01*
X60554305Y-107403194D01*
X60617805Y-107403194D01*
X60681305Y-107403194D01*
X60681305Y-107457875D01*
X60681305Y-107512555D01*
X60617805Y-107512555D01*
X60554305Y-107512555D01*
X60554305Y-107606041D01*
X60554305Y-107699527D01*
X60617805Y-107699527D01*
X60681305Y-107699527D01*
X60681305Y-107755972D01*
X60681305Y-107812416D01*
X60617805Y-107812416D01*
X60554305Y-107812416D01*
X60554305Y-107905902D01*
X60554305Y-107999389D01*
X60617805Y-107999389D01*
X60681305Y-107999389D01*
X60681305Y-108054069D01*
X60681305Y-108108750D01*
X60617805Y-108108750D01*
X60554305Y-108108750D01*
X60554305Y-108202236D01*
X60554305Y-108295722D01*
X60617805Y-108295722D01*
X60681305Y-108295722D01*
X60681305Y-108352166D01*
X60681305Y-108408611D01*
X60617805Y-108408611D01*
X60554305Y-108408611D01*
X60554305Y-108502097D01*
X60554305Y-108595583D01*
X60617805Y-108595583D01*
X60681305Y-108595583D01*
X60681305Y-108652027D01*
X60681305Y-108708472D01*
X60617805Y-108708472D01*
X60554305Y-108708472D01*
X60554305Y-108800194D01*
X60554305Y-108891916D01*
X60617805Y-108891916D01*
X60681305Y-108891916D01*
X60681305Y-108950124D01*
X60681305Y-109008333D01*
X60617805Y-109008333D01*
X60554305Y-109008333D01*
X60554305Y-109090530D01*
X60554305Y-109172727D01*
X60358514Y-109420024D01*
X60162722Y-109667674D01*
X60162722Y-109945663D01*
X60162722Y-110223652D01*
X60230808Y-110291738D01*
X60298541Y-110359471D01*
X60465405Y-110359471D01*
X60631916Y-110359471D01*
X60631916Y-110067019D01*
X60631903Y-109971885D01*
X60631870Y-109933218D01*
X60631806Y-109899940D01*
X60631759Y-109885193D01*
X60631701Y-109871641D01*
X60631630Y-109859231D01*
X60631544Y-109847913D01*
X60631443Y-109837635D01*
X60631326Y-109828346D01*
X60631190Y-109819996D01*
X60631035Y-109812534D01*
X60630859Y-109805907D01*
X60630661Y-109800065D01*
X60630440Y-109794957D01*
X60630320Y-109792663D01*
X60630194Y-109790532D01*
X60630061Y-109788560D01*
X60629922Y-109786739D01*
X60629777Y-109785064D01*
X60629624Y-109783527D01*
X60629464Y-109782122D01*
X60629297Y-109780844D01*
X60629122Y-109779685D01*
X60628940Y-109778639D01*
X60628750Y-109777701D01*
X60628552Y-109776862D01*
X60628346Y-109776118D01*
X60628132Y-109775461D01*
X60627909Y-109774886D01*
X60627678Y-109774386D01*
X60627438Y-109773954D01*
X60627190Y-109773584D01*
X60626932Y-109773270D01*
X60626665Y-109773005D01*
X60626389Y-109772784D01*
X60626103Y-109772599D01*
X60625807Y-109772444D01*
X60625502Y-109772313D01*
X60624861Y-109772097D01*
X60623696Y-109771650D01*
X60622455Y-109771044D01*
X60619768Y-109769384D01*
X60616849Y-109767177D01*
X60613748Y-109764484D01*
X60610516Y-109761368D01*
X60607200Y-109757890D01*
X60603851Y-109754110D01*
X60600519Y-109750092D01*
X60597253Y-109745896D01*
X60594103Y-109741583D01*
X60591118Y-109737216D01*
X60588348Y-109732855D01*
X60585843Y-109728563D01*
X60583652Y-109724401D01*
X60581825Y-109720429D01*
X60580411Y-109716710D01*
X60578897Y-109711635D01*
X60577662Y-109706354D01*
X60576701Y-109700900D01*
X60576012Y-109695307D01*
X60575592Y-109689608D01*
X60575438Y-109683838D01*
X60575546Y-109678030D01*
X60575913Y-109672216D01*
X60576537Y-109666432D01*
X60577414Y-109660710D01*
X60578541Y-109655085D01*
X60579915Y-109649589D01*
X60581533Y-109644256D01*
X60583392Y-109639121D01*
X60585488Y-109634215D01*
X60587819Y-109629574D01*
X60590083Y-109625532D01*
X60592389Y-109621730D01*
X60594754Y-109618149D01*
X60597195Y-109614774D01*
X60599729Y-109611587D01*
X60602373Y-109608571D01*
X60605145Y-109605709D01*
X60608060Y-109602984D01*
X60611136Y-109600379D01*
X60614391Y-109597876D01*
X60617841Y-109595459D01*
X60621504Y-109593112D01*
X60625396Y-109590815D01*
X60629534Y-109588554D01*
X60633937Y-109586310D01*
X60638619Y-109584066D01*
X60644283Y-109581578D01*
X60646864Y-109580543D01*
X60649335Y-109579640D01*
X60651740Y-109578863D01*
X60654122Y-109578206D01*
X60656525Y-109577664D01*
X60658992Y-109577231D01*
X60661567Y-109576901D01*
X60664292Y-109576669D01*
X60667212Y-109576529D01*
X60670369Y-109576476D01*
X60673808Y-109576503D01*
X60677571Y-109576605D01*
X60686244Y-109577010D01*
X60692272Y-109577409D01*
X60697941Y-109577952D01*
X60703279Y-109578649D01*
X60708315Y-109579513D01*
X60713078Y-109580555D01*
X60717597Y-109581785D01*
X60721902Y-109583217D01*
X60726020Y-109584860D01*
X60729981Y-109586726D01*
X60733814Y-109588827D01*
X60737548Y-109591174D01*
X60741211Y-109593778D01*
X60744834Y-109596651D01*
X60748443Y-109599805D01*
X60752070Y-109603249D01*
X60755741Y-109606996D01*
X60759675Y-109611243D01*
X60763279Y-109615402D01*
X60766566Y-109619502D01*
X60769544Y-109623572D01*
X60772225Y-109627639D01*
X60774618Y-109631733D01*
X60776734Y-109635882D01*
X60778584Y-109640114D01*
X60780177Y-109644457D01*
X60781525Y-109648941D01*
X60782636Y-109653593D01*
X60783523Y-109658441D01*
X60784194Y-109663516D01*
X60784661Y-109668844D01*
X60784933Y-109674454D01*
X60785022Y-109680374D01*
X60784947Y-109687130D01*
X60784588Y-109693644D01*
X60783941Y-109699921D01*
X60783005Y-109705967D01*
X60781774Y-109711788D01*
X60780247Y-109717389D01*
X60778420Y-109722776D01*
X60776291Y-109727955D01*
X60773855Y-109732932D01*
X60772522Y-109735346D01*
X60771111Y-109737711D01*
X60769622Y-109740029D01*
X60768054Y-109742299D01*
X60764682Y-109746702D01*
X60760992Y-109750925D01*
X60756980Y-109754974D01*
X60752644Y-109758854D01*
X60747980Y-109762572D01*
X60731047Y-109775624D01*
X60731047Y-110116760D01*
X60730694Y-110458249D01*
X60493628Y-110458249D01*
X60256208Y-110458249D01*
X60160253Y-110362294D01*
X60063944Y-110265985D01*
X60063944Y-109947780D01*
X60063944Y-109629574D01*
X60259736Y-109381925D01*
X60455528Y-109134627D01*
X60455528Y-109071480D01*
X60455528Y-109008333D01*
X60263264Y-109008333D01*
X60071000Y-109008333D01*
X60071000Y-109169552D01*
X60070647Y-109331125D01*
X60007500Y-109410500D01*
X59944353Y-109489875D01*
X59944000Y-109962596D01*
X59944000Y-110435319D01*
X59961639Y-110450488D01*
X59966411Y-110454725D01*
X59970812Y-110458979D01*
X59974850Y-110463270D01*
X59978533Y-110467614D01*
X59981872Y-110472032D01*
X59984875Y-110476539D01*
X59987549Y-110481155D01*
X59989905Y-110485898D01*
X59991951Y-110490786D01*
X59993695Y-110495836D01*
X59995147Y-110501067D01*
X59996316Y-110506497D01*
X59997209Y-110512144D01*
X59997836Y-110518026D01*
X59998206Y-110524162D01*
X59998328Y-110530569D01*
X59998367Y-110538838D01*
X59998305Y-110542486D01*
X59998179Y-110545859D01*
X59997980Y-110548997D01*
X59997701Y-110551938D01*
X59997335Y-110554719D01*
X59996872Y-110557380D01*
X59996307Y-110559958D01*
X59995630Y-110562491D01*
X59994835Y-110565018D01*
X59993912Y-110567577D01*
X59992856Y-110570207D01*
X59991657Y-110572945D01*
X59990309Y-110575829D01*
X59988803Y-110578899D01*
X59985140Y-110585765D01*
X59981167Y-110592207D01*
X59976886Y-110598220D01*
X59972299Y-110603803D01*
X59967411Y-110608952D01*
X59962224Y-110613663D01*
X59956742Y-110617934D01*
X59950967Y-110621762D01*
X59944903Y-110625143D01*
X59938552Y-110628074D01*
X59931919Y-110630553D01*
X59925005Y-110632577D01*
X59917814Y-110634141D01*
X59910350Y-110635243D01*
X59902614Y-110635880D01*
X59894611Y-110636049D01*
X59888317Y-110635932D01*
X59882258Y-110635578D01*
X59876423Y-110634979D01*
X59870798Y-110634131D01*
X59865372Y-110633026D01*
X59860132Y-110631659D01*
X59855066Y-110630023D01*
X59850161Y-110628112D01*
X59845405Y-110625920D01*
X59840785Y-110623440D01*
X59836289Y-110620667D01*
X59831905Y-110617594D01*
X59827620Y-110614216D01*
X59823422Y-110610525D01*
X59819298Y-110606516D01*
X59815236Y-110602183D01*
X59811552Y-110597888D01*
X59808168Y-110593593D01*
X59805080Y-110589280D01*
X59802282Y-110584930D01*
X59799770Y-110580526D01*
X59797538Y-110576051D01*
X59795580Y-110571487D01*
X59793893Y-110566817D01*
X59792470Y-110562022D01*
X59791306Y-110557086D01*
X59790397Y-110551991D01*
X59789737Y-110546719D01*
X59789320Y-110541253D01*
X59789143Y-110535575D01*
X59789199Y-110529668D01*
X59789483Y-110523513D01*
X59790012Y-110517569D01*
X59790804Y-110511775D01*
X59791857Y-110506134D01*
X59793171Y-110500649D01*
X59794743Y-110495320D01*
X59796571Y-110490151D01*
X59798655Y-110485143D01*
X59800993Y-110480298D01*
X59803582Y-110475618D01*
X59806423Y-110471106D01*
X59809512Y-110466764D01*
X59812849Y-110462593D01*
X59816432Y-110458595D01*
X59820260Y-110454774D01*
X59824330Y-110451130D01*
X59828642Y-110447666D01*
X59845222Y-110435319D01*
X59845222Y-110307613D01*
X59845222Y-110179555D01*
X59754558Y-110179555D01*
X59663542Y-110179555D01*
X59648019Y-110197546D01*
X59643167Y-110202858D01*
X59638082Y-110207749D01*
X59632782Y-110212222D01*
X59627287Y-110216279D01*
X59621617Y-110219923D01*
X59615790Y-110223158D01*
X59609824Y-110225986D01*
X59603740Y-110228409D01*
X59597556Y-110230431D01*
X59591292Y-110232054D01*
X59584966Y-110233281D01*
X59578597Y-110234115D01*
X59572205Y-110234558D01*
X59565808Y-110234614D01*
X59559426Y-110234285D01*
X59553078Y-110233574D01*
X59546782Y-110232484D01*
X59540558Y-110231017D01*
X59534425Y-110229176D01*
X59528402Y-110226964D01*
X59522508Y-110224384D01*
X59516762Y-110221439D01*
X59511182Y-110218131D01*
X59505789Y-110214463D01*
X59500601Y-110210438D01*
X59495637Y-110206059D01*
X59490917Y-110201329D01*
X59486459Y-110196249D01*
X59482282Y-110190824D01*
X59478406Y-110185055D01*
X59474849Y-110178946D01*
X59471630Y-110172499D01*
X59469961Y-110168700D01*
X59468458Y-110164846D01*
X59467120Y-110160944D01*
X59465946Y-110156999D01*
X59464935Y-110153017D01*
X59464085Y-110149003D01*
X59463396Y-110144963D01*
X59462866Y-110140904D01*
X59462280Y-110132746D01*
X59462316Y-110124577D01*
X59462967Y-110116440D01*
X59464222Y-110108382D01*
X59466073Y-110100448D01*
X59468509Y-110092683D01*
X59471522Y-110085134D01*
X59475103Y-110077845D01*
X59477103Y-110074312D01*
X59479242Y-110070861D01*
X59481518Y-110067499D01*
X59483929Y-110064230D01*
X59486476Y-110061060D01*
X59489156Y-110057995D01*
X59491969Y-110055040D01*
X59494914Y-110052202D01*
X59499093Y-110048517D01*
X59503183Y-110045130D01*
X59507207Y-110042032D01*
X59511191Y-110039215D01*
X59515161Y-110036671D01*
X59519142Y-110034392D01*
X59523159Y-110032369D01*
X59527237Y-110030594D01*
X59531402Y-110029059D01*
X59535680Y-110027756D01*
X59540094Y-110026675D01*
X59544672Y-110025810D01*
X59549438Y-110025151D01*
X59554417Y-110024691D01*
X59559635Y-110024421D01*
X59565117Y-110024333D01*
X59571736Y-110024426D01*
X59577991Y-110024714D01*
X59583912Y-110025212D01*
X59589530Y-110025931D01*
X59594877Y-110026886D01*
X59599986Y-110028090D01*
X59604886Y-110029557D01*
X59609611Y-110031300D01*
X59614190Y-110033332D01*
X59618657Y-110035667D01*
X59623042Y-110038318D01*
X59627376Y-110041299D01*
X59631692Y-110044623D01*
X59636021Y-110048303D01*
X59640395Y-110052354D01*
X59644844Y-110056788D01*
X59665305Y-110077249D01*
X59755264Y-110077249D01*
X59845222Y-110077249D01*
X59845222Y-109976707D01*
X59845222Y-109876166D01*
X59681180Y-109876166D01*
X59517139Y-109876166D01*
X59517139Y-109774566D01*
X59517139Y-109673319D01*
X59499147Y-109657796D01*
X59493484Y-109652627D01*
X59488273Y-109647186D01*
X59483519Y-109641487D01*
X59479226Y-109635550D01*
X59475401Y-109629388D01*
X59472048Y-109623021D01*
X59469173Y-109616462D01*
X59466780Y-109609731D01*
X59464875Y-109602842D01*
X59463463Y-109595813D01*
X59462549Y-109588659D01*
X59462139Y-109581398D01*
X59462237Y-109574047D01*
X59462848Y-109566620D01*
X59463979Y-109559136D01*
X59465633Y-109551611D01*
X59468313Y-109542522D01*
X59471578Y-109533919D01*
X59473424Y-109529803D01*
X59475409Y-109525815D01*
X59477532Y-109521954D01*
X59479788Y-109518224D01*
X59482178Y-109514625D01*
X59484697Y-109511160D01*
X59487343Y-109507830D01*
X59490115Y-109504637D01*
X59493010Y-109501583D01*
X59496026Y-109498669D01*
X59499160Y-109495898D01*
X59502410Y-109493270D01*
X59505774Y-109490788D01*
X59509249Y-109488454D01*
X59512833Y-109486269D01*
X59516524Y-109484235D01*
X59520319Y-109482354D01*
X59524217Y-109480627D01*
X59528214Y-109479056D01*
X59532308Y-109477643D01*
X59536498Y-109476390D01*
X59540780Y-109475298D01*
X59549614Y-109473606D01*
X59558790Y-109472581D01*
X59568292Y-109472236D01*
X59572240Y-109472333D01*
X59576148Y-109472556D01*
X59580012Y-109472906D01*
X59583830Y-109473380D01*
X59587601Y-109473977D01*
X59591323Y-109474697D01*
X59594992Y-109475537D01*
X59598608Y-109476496D01*
X59602169Y-109477574D01*
X59605671Y-109478770D01*
X59609113Y-109480081D01*
X59612493Y-109481506D01*
X59615810Y-109483045D01*
X59619060Y-109484697D01*
X59622242Y-109486459D01*
X59625353Y-109488331D01*
X59628393Y-109490312D01*
X59631357Y-109492399D01*
X59634246Y-109494593D01*
X59637056Y-109496892D01*
X59639785Y-109499295D01*
X59642431Y-109501799D01*
X59644993Y-109504405D01*
X59647468Y-109507111D01*
X59649854Y-109509916D01*
X59652149Y-109512818D01*
X59654351Y-109515816D01*
X59656458Y-109518909D01*
X59658468Y-109522096D01*
X59660379Y-109525376D01*
X59662188Y-109528747D01*
X59663894Y-109532208D01*
X59665705Y-109536422D01*
X59667300Y-109540967D01*
X59668679Y-109545801D01*
X59669842Y-109550883D01*
X59670788Y-109556172D01*
X59671516Y-109561626D01*
X59672026Y-109567204D01*
X59672317Y-109572865D01*
X59672389Y-109578568D01*
X59672242Y-109584270D01*
X59671874Y-109589931D01*
X59671286Y-109595509D01*
X59670477Y-109600963D01*
X59669446Y-109606252D01*
X59668192Y-109611335D01*
X59666717Y-109616169D01*
X59665397Y-109619599D01*
X59663715Y-109623241D01*
X59661715Y-109627039D01*
X59659440Y-109630941D01*
X59656934Y-109634893D01*
X59654240Y-109638840D01*
X59651401Y-109642730D01*
X59648460Y-109646508D01*
X59645462Y-109650120D01*
X59642449Y-109653513D01*
X59639465Y-109656634D01*
X59636554Y-109659428D01*
X59633758Y-109661842D01*
X59631122Y-109663821D01*
X59629877Y-109664631D01*
X59628688Y-109665313D01*
X59627560Y-109665859D01*
X59626500Y-109666263D01*
X59625316Y-109666688D01*
X59624272Y-109667213D01*
X59623360Y-109667907D01*
X59622570Y-109668837D01*
X59621893Y-109670071D01*
X59621322Y-109671677D01*
X59620847Y-109673722D01*
X59620459Y-109676273D01*
X59620149Y-109679400D01*
X59619909Y-109683168D01*
X59619604Y-109692903D01*
X59619473Y-109706020D01*
X59619444Y-109723060D01*
X59619444Y-109777388D01*
X59732333Y-109777388D01*
X59845222Y-109777388D01*
X59845222Y-109614758D01*
X59845222Y-109452127D01*
X59908722Y-109372399D01*
X59972222Y-109292319D01*
X59972222Y-109150149D01*
X59972222Y-109008333D01*
X59908722Y-109008333D01*
X59845222Y-109008333D01*
X59845222Y-108950124D01*
X59845222Y-108891916D01*
X59908722Y-108891916D01*
X59972222Y-108891916D01*
X60071000Y-108891916D01*
X60263264Y-108891916D01*
X60455528Y-108891916D01*
X60455528Y-108800194D01*
X60455528Y-108708472D01*
X60263264Y-108708472D01*
X60071000Y-108708472D01*
X60071000Y-108800194D01*
X60071000Y-108891916D01*
X59972222Y-108891916D01*
X59972222Y-108800194D01*
X59972222Y-108708472D01*
X59908722Y-108708472D01*
X59845222Y-108708472D01*
X59845222Y-108652027D01*
X59845222Y-108595583D01*
X59908722Y-108595583D01*
X59972222Y-108595583D01*
X60071000Y-108595583D01*
X60263264Y-108595583D01*
X60455528Y-108595583D01*
X60455528Y-108502097D01*
X60455528Y-108408611D01*
X60263264Y-108408611D01*
X60071000Y-108408611D01*
X60071000Y-108502097D01*
X60071000Y-108595583D01*
X59972222Y-108595583D01*
X59972222Y-108502097D01*
X59972222Y-108408611D01*
X59908722Y-108408611D01*
X59845222Y-108408611D01*
X59845222Y-108352166D01*
X59845222Y-108295722D01*
X59908722Y-108295722D01*
X59972222Y-108295722D01*
X60071000Y-108295722D01*
X60263264Y-108295722D01*
X60455528Y-108295722D01*
X60455528Y-108202236D01*
X60455528Y-108108750D01*
X60263264Y-108108750D01*
X60071000Y-108108750D01*
X60071000Y-108202236D01*
X60071000Y-108295722D01*
X59972222Y-108295722D01*
X59972222Y-108202236D01*
X59972222Y-108108750D01*
X59908722Y-108108750D01*
X59845222Y-108108750D01*
X59845222Y-108054069D01*
X59845222Y-107999389D01*
X59908722Y-107999389D01*
X59972222Y-107999389D01*
X60071000Y-107999389D01*
X60263264Y-107999389D01*
X60455528Y-107999389D01*
X60455528Y-107905902D01*
X60455528Y-107812416D01*
X60263264Y-107812416D01*
X60071000Y-107812416D01*
X60071000Y-107905902D01*
X60071000Y-107999389D01*
X59972222Y-107999389D01*
X59972222Y-107905902D01*
X59972222Y-107812416D01*
X59908722Y-107812416D01*
X59845222Y-107812416D01*
X59845222Y-107755972D01*
X59845222Y-107699527D01*
X59908722Y-107699527D01*
X59972222Y-107699527D01*
X60071000Y-107699527D01*
X60263264Y-107699527D01*
X60455528Y-107699527D01*
X60455528Y-107606041D01*
X60455528Y-107512555D01*
X60263264Y-107512555D01*
X60071000Y-107512555D01*
X60071000Y-107606041D01*
X60071000Y-107699527D01*
X59972222Y-107699527D01*
X59972222Y-107606041D01*
X59972222Y-107512555D01*
X59908722Y-107512555D01*
X59845222Y-107512555D01*
X59845222Y-107457875D01*
X59845222Y-107403194D01*
X59908722Y-107403194D01*
X59972222Y-107403194D01*
X59972222Y-107315000D01*
X59972222Y-107226805D01*
X60021611Y-107226805D01*
X60071000Y-107226805D01*
X60071000Y-107315000D01*
G37*
D11*
X70940939Y-109613731D02*
X70992949Y-109662112D01*
X70992949Y-109662112D02*
X71044958Y-109807255D01*
X71044958Y-109807255D02*
X71044958Y-109904017D01*
X71044958Y-109904017D02*
X70992949Y-110049160D01*
X70992949Y-110049160D02*
X70888929Y-110145922D01*
X70888929Y-110145922D02*
X70784910Y-110194303D01*
X70784910Y-110194303D02*
X70576872Y-110242684D01*
X70576872Y-110242684D02*
X70420844Y-110242684D01*
X70420844Y-110242684D02*
X70212806Y-110194303D01*
X70212806Y-110194303D02*
X70108787Y-110145922D01*
X70108787Y-110145922D02*
X70004768Y-110049160D01*
X70004768Y-110049160D02*
X69952758Y-109904017D01*
X69952758Y-109904017D02*
X69952758Y-109807255D01*
X69952758Y-109807255D02*
X70004768Y-109662112D01*
X70004768Y-109662112D02*
X70056777Y-109613731D01*
X69952758Y-108984779D02*
X69952758Y-108791255D01*
X69952758Y-108791255D02*
X70004768Y-108694493D01*
X70004768Y-108694493D02*
X70108787Y-108597731D01*
X70108787Y-108597731D02*
X70316825Y-108549350D01*
X70316825Y-108549350D02*
X70680891Y-108549350D01*
X70680891Y-108549350D02*
X70888929Y-108597731D01*
X70888929Y-108597731D02*
X70992949Y-108694493D01*
X70992949Y-108694493D02*
X71044958Y-108791255D01*
X71044958Y-108791255D02*
X71044958Y-108984779D01*
X71044958Y-108984779D02*
X70992949Y-109081541D01*
X70992949Y-109081541D02*
X70888929Y-109178303D01*
X70888929Y-109178303D02*
X70680891Y-109226684D01*
X70680891Y-109226684D02*
X70316825Y-109226684D01*
X70316825Y-109226684D02*
X70108787Y-109178303D01*
X70108787Y-109178303D02*
X70004768Y-109081541D01*
X70004768Y-109081541D02*
X69952758Y-108984779D01*
X71044958Y-108113922D02*
X69952758Y-108113922D01*
X69952758Y-108113922D02*
X70732901Y-107775255D01*
X70732901Y-107775255D02*
X69952758Y-107436588D01*
X69952758Y-107436588D02*
X71044958Y-107436588D01*
X74457701Y-109613731D02*
X74509711Y-109662112D01*
X74509711Y-109662112D02*
X74561720Y-109807255D01*
X74561720Y-109807255D02*
X74561720Y-109904017D01*
X74561720Y-109904017D02*
X74509711Y-110049160D01*
X74509711Y-110049160D02*
X74405691Y-110145922D01*
X74405691Y-110145922D02*
X74301672Y-110194303D01*
X74301672Y-110194303D02*
X74093634Y-110242684D01*
X74093634Y-110242684D02*
X73937606Y-110242684D01*
X73937606Y-110242684D02*
X73729568Y-110194303D01*
X73729568Y-110194303D02*
X73625549Y-110145922D01*
X73625549Y-110145922D02*
X73521530Y-110049160D01*
X73521530Y-110049160D02*
X73469520Y-109904017D01*
X73469520Y-109904017D02*
X73469520Y-109807255D01*
X73469520Y-109807255D02*
X73521530Y-109662112D01*
X73521530Y-109662112D02*
X73573539Y-109613731D01*
X73469520Y-108984779D02*
X73469520Y-108791255D01*
X73469520Y-108791255D02*
X73521530Y-108694493D01*
X73521530Y-108694493D02*
X73625549Y-108597731D01*
X73625549Y-108597731D02*
X73833587Y-108549350D01*
X73833587Y-108549350D02*
X74197653Y-108549350D01*
X74197653Y-108549350D02*
X74405691Y-108597731D01*
X74405691Y-108597731D02*
X74509711Y-108694493D01*
X74509711Y-108694493D02*
X74561720Y-108791255D01*
X74561720Y-108791255D02*
X74561720Y-108984779D01*
X74561720Y-108984779D02*
X74509711Y-109081541D01*
X74509711Y-109081541D02*
X74405691Y-109178303D01*
X74405691Y-109178303D02*
X74197653Y-109226684D01*
X74197653Y-109226684D02*
X73833587Y-109226684D01*
X73833587Y-109226684D02*
X73625549Y-109178303D01*
X73625549Y-109178303D02*
X73521530Y-109081541D01*
X73521530Y-109081541D02*
X73469520Y-108984779D01*
X74561720Y-108113922D02*
X73469520Y-108113922D01*
X73469520Y-108113922D02*
X74249663Y-107775255D01*
X74249663Y-107775255D02*
X73469520Y-107436588D01*
X73469520Y-107436588D02*
X74561720Y-107436588D01*
X76986282Y-109371827D02*
X76986282Y-108791255D01*
X78078482Y-109081541D02*
X76986282Y-109081541D01*
X78078482Y-108452589D02*
X76986282Y-108452589D01*
X78078482Y-107968779D02*
X76986282Y-107968779D01*
X76986282Y-107968779D02*
X76986282Y-107581731D01*
X76986282Y-107581731D02*
X77038292Y-107484969D01*
X77038292Y-107484969D02*
X77090301Y-107436588D01*
X77090301Y-107436588D02*
X77194320Y-107388207D01*
X77194320Y-107388207D02*
X77350349Y-107388207D01*
X77350349Y-107388207D02*
X77454368Y-107436588D01*
X77454368Y-107436588D02*
X77506377Y-107484969D01*
X77506377Y-107484969D02*
X77558387Y-107581731D01*
X77558387Y-107581731D02*
X77558387Y-107968779D01*
X81595244Y-110436207D02*
X81075149Y-110774874D01*
X81595244Y-111016779D02*
X80503044Y-111016779D01*
X80503044Y-111016779D02*
X80503044Y-110629731D01*
X80503044Y-110629731D02*
X80555054Y-110532969D01*
X80555054Y-110532969D02*
X80607063Y-110484588D01*
X80607063Y-110484588D02*
X80711082Y-110436207D01*
X80711082Y-110436207D02*
X80867111Y-110436207D01*
X80867111Y-110436207D02*
X80971130Y-110484588D01*
X80971130Y-110484588D02*
X81023139Y-110532969D01*
X81023139Y-110532969D02*
X81075149Y-110629731D01*
X81075149Y-110629731D02*
X81075149Y-111016779D01*
X81595244Y-110000779D02*
X80503044Y-110000779D01*
X80503044Y-110000779D02*
X81595244Y-109420207D01*
X81595244Y-109420207D02*
X80503044Y-109420207D01*
X80555054Y-108404207D02*
X80503044Y-108500969D01*
X80503044Y-108500969D02*
X80503044Y-108646112D01*
X80503044Y-108646112D02*
X80555054Y-108791255D01*
X80555054Y-108791255D02*
X80659073Y-108888017D01*
X80659073Y-108888017D02*
X80763092Y-108936398D01*
X80763092Y-108936398D02*
X80971130Y-108984779D01*
X80971130Y-108984779D02*
X81127158Y-108984779D01*
X81127158Y-108984779D02*
X81335196Y-108936398D01*
X81335196Y-108936398D02*
X81439215Y-108888017D01*
X81439215Y-108888017D02*
X81543235Y-108791255D01*
X81543235Y-108791255D02*
X81595244Y-108646112D01*
X81595244Y-108646112D02*
X81595244Y-108549350D01*
X81595244Y-108549350D02*
X81543235Y-108404207D01*
X81543235Y-108404207D02*
X81491225Y-108355826D01*
X81491225Y-108355826D02*
X81127158Y-108355826D01*
X81127158Y-108355826D02*
X81127158Y-108549350D01*
X81595244Y-107388207D02*
X81595244Y-107968779D01*
X81595244Y-107678493D02*
X80503044Y-107678493D01*
X80503044Y-107678493D02*
X80659073Y-107775255D01*
X80659073Y-107775255D02*
X80763092Y-107872017D01*
X80763092Y-107872017D02*
X80815101Y-107968779D01*
X85112006Y-110436207D02*
X84591911Y-110774874D01*
X85112006Y-111016779D02*
X84019806Y-111016779D01*
X84019806Y-111016779D02*
X84019806Y-110629731D01*
X84019806Y-110629731D02*
X84071816Y-110532969D01*
X84071816Y-110532969D02*
X84123825Y-110484588D01*
X84123825Y-110484588D02*
X84227844Y-110436207D01*
X84227844Y-110436207D02*
X84383873Y-110436207D01*
X84383873Y-110436207D02*
X84487892Y-110484588D01*
X84487892Y-110484588D02*
X84539901Y-110532969D01*
X84539901Y-110532969D02*
X84591911Y-110629731D01*
X84591911Y-110629731D02*
X84591911Y-111016779D01*
X85112006Y-110000779D02*
X84019806Y-110000779D01*
X84019806Y-110000779D02*
X85112006Y-109420207D01*
X85112006Y-109420207D02*
X84019806Y-109420207D01*
X84071816Y-108404207D02*
X84019806Y-108500969D01*
X84019806Y-108500969D02*
X84019806Y-108646112D01*
X84019806Y-108646112D02*
X84071816Y-108791255D01*
X84071816Y-108791255D02*
X84175835Y-108888017D01*
X84175835Y-108888017D02*
X84279854Y-108936398D01*
X84279854Y-108936398D02*
X84487892Y-108984779D01*
X84487892Y-108984779D02*
X84643920Y-108984779D01*
X84643920Y-108984779D02*
X84851958Y-108936398D01*
X84851958Y-108936398D02*
X84955977Y-108888017D01*
X84955977Y-108888017D02*
X85059997Y-108791255D01*
X85059997Y-108791255D02*
X85112006Y-108646112D01*
X85112006Y-108646112D02*
X85112006Y-108549350D01*
X85112006Y-108549350D02*
X85059997Y-108404207D01*
X85059997Y-108404207D02*
X85007987Y-108355826D01*
X85007987Y-108355826D02*
X84643920Y-108355826D01*
X84643920Y-108355826D02*
X84643920Y-108549350D01*
X84123825Y-107968779D02*
X84071816Y-107920398D01*
X84071816Y-107920398D02*
X84019806Y-107823636D01*
X84019806Y-107823636D02*
X84019806Y-107581731D01*
X84019806Y-107581731D02*
X84071816Y-107484969D01*
X84071816Y-107484969D02*
X84123825Y-107436588D01*
X84123825Y-107436588D02*
X84227844Y-107388207D01*
X84227844Y-107388207D02*
X84331863Y-107388207D01*
X84331863Y-107388207D02*
X84487892Y-107436588D01*
X84487892Y-107436588D02*
X85112006Y-108017160D01*
X85112006Y-108017160D02*
X85112006Y-107388207D01*
X88628768Y-109516969D02*
X87536568Y-109516969D01*
X87536568Y-109516969D02*
X87536568Y-109129921D01*
X87536568Y-109129921D02*
X87588578Y-109033159D01*
X87588578Y-109033159D02*
X87640587Y-108984778D01*
X87640587Y-108984778D02*
X87744606Y-108936397D01*
X87744606Y-108936397D02*
X87900635Y-108936397D01*
X87900635Y-108936397D02*
X88004654Y-108984778D01*
X88004654Y-108984778D02*
X88056663Y-109033159D01*
X88056663Y-109033159D02*
X88108673Y-109129921D01*
X88108673Y-109129921D02*
X88108673Y-109516969D01*
X87536568Y-108646112D02*
X87536568Y-108065540D01*
X88628768Y-108355826D02*
X87536568Y-108355826D01*
X87536568Y-107872017D02*
X87536568Y-107291445D01*
X88628768Y-107581731D02*
X87536568Y-107581731D01*
X81474160Y-84824223D02*
X81135493Y-84074318D01*
X80893588Y-84824223D02*
X80893588Y-83249423D01*
X80893588Y-83249423D02*
X81280636Y-83249423D01*
X81280636Y-83249423D02*
X81377398Y-83324413D01*
X81377398Y-83324413D02*
X81425779Y-83399404D01*
X81425779Y-83399404D02*
X81474160Y-83549385D01*
X81474160Y-83549385D02*
X81474160Y-83774356D01*
X81474160Y-83774356D02*
X81425779Y-83924337D01*
X81425779Y-83924337D02*
X81377398Y-83999328D01*
X81377398Y-83999328D02*
X81280636Y-84074318D01*
X81280636Y-84074318D02*
X80893588Y-84074318D01*
X81909588Y-84824223D02*
X81909588Y-83249423D01*
X82393398Y-84824223D02*
X82393398Y-83249423D01*
X82393398Y-83249423D02*
X82973970Y-84824223D01*
X82973970Y-84824223D02*
X82973970Y-83249423D01*
X83989970Y-83324413D02*
X83893208Y-83249423D01*
X83893208Y-83249423D02*
X83748065Y-83249423D01*
X83748065Y-83249423D02*
X83602922Y-83324413D01*
X83602922Y-83324413D02*
X83506160Y-83474394D01*
X83506160Y-83474394D02*
X83457779Y-83624375D01*
X83457779Y-83624375D02*
X83409398Y-83924337D01*
X83409398Y-83924337D02*
X83409398Y-84149309D01*
X83409398Y-84149309D02*
X83457779Y-84449271D01*
X83457779Y-84449271D02*
X83506160Y-84599252D01*
X83506160Y-84599252D02*
X83602922Y-84749233D01*
X83602922Y-84749233D02*
X83748065Y-84824223D01*
X83748065Y-84824223D02*
X83844827Y-84824223D01*
X83844827Y-84824223D02*
X83989970Y-84749233D01*
X83989970Y-84749233D02*
X84038351Y-84674242D01*
X84038351Y-84674242D02*
X84038351Y-84149309D01*
X84038351Y-84149309D02*
X83844827Y-84149309D01*
X84425398Y-83399404D02*
X84473779Y-83324413D01*
X84473779Y-83324413D02*
X84570541Y-83249423D01*
X84570541Y-83249423D02*
X84812446Y-83249423D01*
X84812446Y-83249423D02*
X84909208Y-83324413D01*
X84909208Y-83324413D02*
X84957589Y-83399404D01*
X84957589Y-83399404D02*
X85005970Y-83549385D01*
X85005970Y-83549385D02*
X85005970Y-83699366D01*
X85005970Y-83699366D02*
X84957589Y-83924337D01*
X84957589Y-83924337D02*
X84377017Y-84824223D01*
X84377017Y-84824223D02*
X85005970Y-84824223D01*
X81474160Y-87359563D02*
X81135493Y-86609658D01*
X80893588Y-87359563D02*
X80893588Y-85784763D01*
X80893588Y-85784763D02*
X81280636Y-85784763D01*
X81280636Y-85784763D02*
X81377398Y-85859753D01*
X81377398Y-85859753D02*
X81425779Y-85934744D01*
X81425779Y-85934744D02*
X81474160Y-86084725D01*
X81474160Y-86084725D02*
X81474160Y-86309696D01*
X81474160Y-86309696D02*
X81425779Y-86459677D01*
X81425779Y-86459677D02*
X81377398Y-86534668D01*
X81377398Y-86534668D02*
X81280636Y-86609658D01*
X81280636Y-86609658D02*
X80893588Y-86609658D01*
X81909588Y-87359563D02*
X81909588Y-85784763D01*
X82393398Y-87359563D02*
X82393398Y-85784763D01*
X82393398Y-85784763D02*
X82973970Y-87359563D01*
X82973970Y-87359563D02*
X82973970Y-85784763D01*
X83989970Y-85859753D02*
X83893208Y-85784763D01*
X83893208Y-85784763D02*
X83748065Y-85784763D01*
X83748065Y-85784763D02*
X83602922Y-85859753D01*
X83602922Y-85859753D02*
X83506160Y-86009734D01*
X83506160Y-86009734D02*
X83457779Y-86159715D01*
X83457779Y-86159715D02*
X83409398Y-86459677D01*
X83409398Y-86459677D02*
X83409398Y-86684649D01*
X83409398Y-86684649D02*
X83457779Y-86984611D01*
X83457779Y-86984611D02*
X83506160Y-87134592D01*
X83506160Y-87134592D02*
X83602922Y-87284573D01*
X83602922Y-87284573D02*
X83748065Y-87359563D01*
X83748065Y-87359563D02*
X83844827Y-87359563D01*
X83844827Y-87359563D02*
X83989970Y-87284573D01*
X83989970Y-87284573D02*
X84038351Y-87209582D01*
X84038351Y-87209582D02*
X84038351Y-86684649D01*
X84038351Y-86684649D02*
X83844827Y-86684649D01*
X85005970Y-87359563D02*
X84425398Y-87359563D01*
X84715684Y-87359563D02*
X84715684Y-85784763D01*
X84715684Y-85784763D02*
X84618922Y-86009734D01*
X84618922Y-86009734D02*
X84522160Y-86159715D01*
X84522160Y-86159715D02*
X84425398Y-86234706D01*
X80748445Y-88320103D02*
X81329017Y-88320103D01*
X81038731Y-89894903D02*
X81038731Y-88320103D01*
X81667683Y-89894903D02*
X81667683Y-88320103D01*
X82151493Y-89894903D02*
X82151493Y-88320103D01*
X82151493Y-88320103D02*
X82538541Y-88320103D01*
X82538541Y-88320103D02*
X82635303Y-88395093D01*
X82635303Y-88395093D02*
X82683684Y-88470084D01*
X82683684Y-88470084D02*
X82732065Y-88620065D01*
X82732065Y-88620065D02*
X82732065Y-88845036D01*
X82732065Y-88845036D02*
X82683684Y-88995017D01*
X82683684Y-88995017D02*
X82635303Y-89070008D01*
X82635303Y-89070008D02*
X82538541Y-89144998D01*
X82538541Y-89144998D02*
X82151493Y-89144998D01*
X80845207Y-91980300D02*
X81329017Y-91980300D01*
X80748445Y-92430243D02*
X81087112Y-90855443D01*
X81087112Y-90855443D02*
X81425779Y-92430243D01*
X81619302Y-90855443D02*
X82199874Y-90855443D01*
X81909588Y-92430243D02*
X81909588Y-90855443D01*
X82393397Y-90855443D02*
X82973969Y-90855443D01*
X82683683Y-92430243D02*
X82683683Y-90855443D01*
X83312635Y-91605348D02*
X83651302Y-91605348D01*
X83796445Y-92430243D02*
X83312635Y-92430243D01*
X83312635Y-92430243D02*
X83312635Y-90855443D01*
X83312635Y-90855443D02*
X83796445Y-90855443D01*
X84231873Y-92430243D02*
X84231873Y-90855443D01*
X84231873Y-90855443D02*
X84812445Y-92430243D01*
X84812445Y-92430243D02*
X84812445Y-90855443D01*
X80845207Y-94890593D02*
X80990350Y-94965583D01*
X80990350Y-94965583D02*
X81232255Y-94965583D01*
X81232255Y-94965583D02*
X81329017Y-94890593D01*
X81329017Y-94890593D02*
X81377398Y-94815602D01*
X81377398Y-94815602D02*
X81425779Y-94665621D01*
X81425779Y-94665621D02*
X81425779Y-94515640D01*
X81425779Y-94515640D02*
X81377398Y-94365659D01*
X81377398Y-94365659D02*
X81329017Y-94290669D01*
X81329017Y-94290669D02*
X81232255Y-94215678D01*
X81232255Y-94215678D02*
X81038731Y-94140688D01*
X81038731Y-94140688D02*
X80941969Y-94065697D01*
X80941969Y-94065697D02*
X80893588Y-93990707D01*
X80893588Y-93990707D02*
X80845207Y-93840726D01*
X80845207Y-93840726D02*
X80845207Y-93690745D01*
X80845207Y-93690745D02*
X80893588Y-93540764D01*
X80893588Y-93540764D02*
X80941969Y-93465773D01*
X80941969Y-93465773D02*
X81038731Y-93390783D01*
X81038731Y-93390783D02*
X81280636Y-93390783D01*
X81280636Y-93390783D02*
X81425779Y-93465773D01*
X82345017Y-94965583D02*
X81861207Y-94965583D01*
X81861207Y-94965583D02*
X81861207Y-93390783D01*
X82683683Y-94140688D02*
X83022350Y-94140688D01*
X83167493Y-94965583D02*
X82683683Y-94965583D01*
X82683683Y-94965583D02*
X82683683Y-93390783D01*
X82683683Y-93390783D02*
X83167493Y-93390783D01*
X83602921Y-94140688D02*
X83941588Y-94140688D01*
X84086731Y-94965583D02*
X83602921Y-94965583D01*
X83602921Y-94965583D02*
X83602921Y-93390783D01*
X83602921Y-93390783D02*
X84086731Y-93390783D01*
X84377016Y-93390783D02*
X84715683Y-94965583D01*
X84715683Y-94965583D02*
X85054350Y-93390783D01*
X85393016Y-94140688D02*
X85731683Y-94140688D01*
X85876826Y-94965583D02*
X85393016Y-94965583D01*
X85393016Y-94965583D02*
X85393016Y-93390783D01*
X85393016Y-93390783D02*
X85876826Y-93390783D01*
D12*
X52724207Y-89935636D02*
X52676588Y-89983256D01*
X52676588Y-89983256D02*
X52533731Y-90030875D01*
X52533731Y-90030875D02*
X52438493Y-90030875D01*
X52438493Y-90030875D02*
X52295636Y-89983256D01*
X52295636Y-89983256D02*
X52200398Y-89888017D01*
X52200398Y-89888017D02*
X52152779Y-89792779D01*
X52152779Y-89792779D02*
X52105160Y-89602303D01*
X52105160Y-89602303D02*
X52105160Y-89459446D01*
X52105160Y-89459446D02*
X52152779Y-89268970D01*
X52152779Y-89268970D02*
X52200398Y-89173732D01*
X52200398Y-89173732D02*
X52295636Y-89078494D01*
X52295636Y-89078494D02*
X52438493Y-89030875D01*
X52438493Y-89030875D02*
X52533731Y-89030875D01*
X52533731Y-89030875D02*
X52676588Y-89078494D01*
X52676588Y-89078494D02*
X52724207Y-89126113D01*
X53152779Y-90030875D02*
X53152779Y-89030875D01*
X53724207Y-90030875D02*
X53295636Y-89459446D01*
X53724207Y-89030875D02*
X53152779Y-89602303D01*
X54009922Y-89030875D02*
X54581350Y-89030875D01*
X54295636Y-90030875D02*
X54295636Y-89030875D01*
X54914684Y-89649922D02*
X55676589Y-89649922D01*
X56105160Y-89745160D02*
X56581350Y-89745160D01*
X56009922Y-90030875D02*
X56343255Y-89030875D01*
X56343255Y-89030875D02*
X56676588Y-90030875D01*
X57009922Y-89030875D02*
X57009922Y-89840398D01*
X57009922Y-89840398D02*
X57057541Y-89935636D01*
X57057541Y-89935636D02*
X57105160Y-89983256D01*
X57105160Y-89983256D02*
X57200398Y-90030875D01*
X57200398Y-90030875D02*
X57390874Y-90030875D01*
X57390874Y-90030875D02*
X57486112Y-89983256D01*
X57486112Y-89983256D02*
X57533731Y-89935636D01*
X57533731Y-89935636D02*
X57581350Y-89840398D01*
X57581350Y-89840398D02*
X57581350Y-89030875D01*
X58057541Y-90030875D02*
X58057541Y-89030875D01*
X58057541Y-89030875D02*
X58295636Y-89030875D01*
X58295636Y-89030875D02*
X58438493Y-89078494D01*
X58438493Y-89078494D02*
X58533731Y-89173732D01*
X58533731Y-89173732D02*
X58581350Y-89268970D01*
X58581350Y-89268970D02*
X58628969Y-89459446D01*
X58628969Y-89459446D02*
X58628969Y-89602303D01*
X58628969Y-89602303D02*
X58581350Y-89792779D01*
X58581350Y-89792779D02*
X58533731Y-89888017D01*
X58533731Y-89888017D02*
X58438493Y-89983256D01*
X58438493Y-89983256D02*
X58295636Y-90030875D01*
X58295636Y-90030875D02*
X58057541Y-90030875D01*
X59057541Y-90030875D02*
X59057541Y-89030875D01*
X59724207Y-89030875D02*
X59914683Y-89030875D01*
X59914683Y-89030875D02*
X60009921Y-89078494D01*
X60009921Y-89078494D02*
X60105159Y-89173732D01*
X60105159Y-89173732D02*
X60152778Y-89364208D01*
X60152778Y-89364208D02*
X60152778Y-89697541D01*
X60152778Y-89697541D02*
X60105159Y-89888017D01*
X60105159Y-89888017D02*
X60009921Y-89983256D01*
X60009921Y-89983256D02*
X59914683Y-90030875D01*
X59914683Y-90030875D02*
X59724207Y-90030875D01*
X59724207Y-90030875D02*
X59628969Y-89983256D01*
X59628969Y-89983256D02*
X59533731Y-89888017D01*
X59533731Y-89888017D02*
X59486112Y-89697541D01*
X59486112Y-89697541D02*
X59486112Y-89364208D01*
X59486112Y-89364208D02*
X59533731Y-89173732D01*
X59533731Y-89173732D02*
X59628969Y-89078494D01*
X59628969Y-89078494D02*
X59724207Y-89030875D01*
X60867064Y-89030875D02*
X60867064Y-89745160D01*
X60867064Y-89745160D02*
X60819445Y-89888017D01*
X60819445Y-89888017D02*
X60724207Y-89983256D01*
X60724207Y-89983256D02*
X60581350Y-90030875D01*
X60581350Y-90030875D02*
X60486112Y-90030875D01*
X61295636Y-89745160D02*
X61771826Y-89745160D01*
X61200398Y-90030875D02*
X61533731Y-89030875D01*
X61533731Y-89030875D02*
X61867064Y-90030875D01*
X62771826Y-89935636D02*
X62724207Y-89983256D01*
X62724207Y-89983256D02*
X62581350Y-90030875D01*
X62581350Y-90030875D02*
X62486112Y-90030875D01*
X62486112Y-90030875D02*
X62343255Y-89983256D01*
X62343255Y-89983256D02*
X62248017Y-89888017D01*
X62248017Y-89888017D02*
X62200398Y-89792779D01*
X62200398Y-89792779D02*
X62152779Y-89602303D01*
X62152779Y-89602303D02*
X62152779Y-89459446D01*
X62152779Y-89459446D02*
X62200398Y-89268970D01*
X62200398Y-89268970D02*
X62248017Y-89173732D01*
X62248017Y-89173732D02*
X62343255Y-89078494D01*
X62343255Y-89078494D02*
X62486112Y-89030875D01*
X62486112Y-89030875D02*
X62581350Y-89030875D01*
X62581350Y-89030875D02*
X62724207Y-89078494D01*
X62724207Y-89078494D02*
X62771826Y-89126113D01*
X63200398Y-90030875D02*
X63200398Y-89030875D01*
X63771826Y-90030875D02*
X63343255Y-89459446D01*
X63771826Y-89030875D02*
X63200398Y-89602303D01*
X52962303Y-90878914D02*
X52867064Y-90831295D01*
X52867064Y-90831295D02*
X52676588Y-90831295D01*
X52676588Y-90831295D02*
X52581350Y-90878914D01*
X52581350Y-90878914D02*
X52486112Y-90974152D01*
X52486112Y-90974152D02*
X52438493Y-91069390D01*
X52438493Y-91069390D02*
X52438493Y-91259866D01*
X52438493Y-91259866D02*
X52486112Y-91355104D01*
X52486112Y-91355104D02*
X52581350Y-91450342D01*
X52581350Y-91450342D02*
X52676588Y-91497961D01*
X52676588Y-91497961D02*
X52867064Y-91497961D01*
X52867064Y-91497961D02*
X52962303Y-91450342D01*
X52771826Y-90497961D02*
X52533731Y-90545580D01*
X52533731Y-90545580D02*
X52295636Y-90688438D01*
X52295636Y-90688438D02*
X52152779Y-90926533D01*
X52152779Y-90926533D02*
X52105160Y-91164628D01*
X52105160Y-91164628D02*
X52152779Y-91402723D01*
X52152779Y-91402723D02*
X52295636Y-91640819D01*
X52295636Y-91640819D02*
X52533731Y-91783676D01*
X52533731Y-91783676D02*
X52771826Y-91831295D01*
X52771826Y-91831295D02*
X53009922Y-91783676D01*
X53009922Y-91783676D02*
X53248017Y-91640819D01*
X53248017Y-91640819D02*
X53390874Y-91402723D01*
X53390874Y-91402723D02*
X53438493Y-91164628D01*
X53438493Y-91164628D02*
X53390874Y-90926533D01*
X53390874Y-90926533D02*
X53248017Y-90688438D01*
X53248017Y-90688438D02*
X53009922Y-90545580D01*
X53009922Y-90545580D02*
X52771826Y-90497961D01*
X53819446Y-90736057D02*
X53867065Y-90688438D01*
X53867065Y-90688438D02*
X53962303Y-90640819D01*
X53962303Y-90640819D02*
X54200398Y-90640819D01*
X54200398Y-90640819D02*
X54295636Y-90688438D01*
X54295636Y-90688438D02*
X54343255Y-90736057D01*
X54343255Y-90736057D02*
X54390874Y-90831295D01*
X54390874Y-90831295D02*
X54390874Y-90926533D01*
X54390874Y-90926533D02*
X54343255Y-91069390D01*
X54343255Y-91069390D02*
X53771827Y-91640819D01*
X53771827Y-91640819D02*
X54390874Y-91640819D01*
X55009922Y-90640819D02*
X55105160Y-90640819D01*
X55105160Y-90640819D02*
X55200398Y-90688438D01*
X55200398Y-90688438D02*
X55248017Y-90736057D01*
X55248017Y-90736057D02*
X55295636Y-90831295D01*
X55295636Y-90831295D02*
X55343255Y-91021771D01*
X55343255Y-91021771D02*
X55343255Y-91259866D01*
X55343255Y-91259866D02*
X55295636Y-91450342D01*
X55295636Y-91450342D02*
X55248017Y-91545580D01*
X55248017Y-91545580D02*
X55200398Y-91593200D01*
X55200398Y-91593200D02*
X55105160Y-91640819D01*
X55105160Y-91640819D02*
X55009922Y-91640819D01*
X55009922Y-91640819D02*
X54914684Y-91593200D01*
X54914684Y-91593200D02*
X54867065Y-91545580D01*
X54867065Y-91545580D02*
X54819446Y-91450342D01*
X54819446Y-91450342D02*
X54771827Y-91259866D01*
X54771827Y-91259866D02*
X54771827Y-91021771D01*
X54771827Y-91021771D02*
X54819446Y-90831295D01*
X54819446Y-90831295D02*
X54867065Y-90736057D01*
X54867065Y-90736057D02*
X54914684Y-90688438D01*
X54914684Y-90688438D02*
X55009922Y-90640819D01*
X55724208Y-90736057D02*
X55771827Y-90688438D01*
X55771827Y-90688438D02*
X55867065Y-90640819D01*
X55867065Y-90640819D02*
X56105160Y-90640819D01*
X56105160Y-90640819D02*
X56200398Y-90688438D01*
X56200398Y-90688438D02*
X56248017Y-90736057D01*
X56248017Y-90736057D02*
X56295636Y-90831295D01*
X56295636Y-90831295D02*
X56295636Y-90926533D01*
X56295636Y-90926533D02*
X56248017Y-91069390D01*
X56248017Y-91069390D02*
X55676589Y-91640819D01*
X55676589Y-91640819D02*
X56295636Y-91640819D01*
X57152779Y-90640819D02*
X56962303Y-90640819D01*
X56962303Y-90640819D02*
X56867065Y-90688438D01*
X56867065Y-90688438D02*
X56819446Y-90736057D01*
X56819446Y-90736057D02*
X56724208Y-90878914D01*
X56724208Y-90878914D02*
X56676589Y-91069390D01*
X56676589Y-91069390D02*
X56676589Y-91450342D01*
X56676589Y-91450342D02*
X56724208Y-91545580D01*
X56724208Y-91545580D02*
X56771827Y-91593200D01*
X56771827Y-91593200D02*
X56867065Y-91640819D01*
X56867065Y-91640819D02*
X57057541Y-91640819D01*
X57057541Y-91640819D02*
X57152779Y-91593200D01*
X57152779Y-91593200D02*
X57200398Y-91545580D01*
X57200398Y-91545580D02*
X57248017Y-91450342D01*
X57248017Y-91450342D02*
X57248017Y-91212247D01*
X57248017Y-91212247D02*
X57200398Y-91117009D01*
X57200398Y-91117009D02*
X57152779Y-91069390D01*
X57152779Y-91069390D02*
X57057541Y-91021771D01*
X57057541Y-91021771D02*
X56867065Y-91021771D01*
X56867065Y-91021771D02*
X56771827Y-91069390D01*
X56771827Y-91069390D02*
X56724208Y-91117009D01*
X56724208Y-91117009D02*
X56676589Y-91212247D01*
X59867066Y-90974152D02*
X60105161Y-91640819D01*
X60105161Y-91640819D02*
X60343256Y-90974152D01*
X61248018Y-91640819D02*
X60676590Y-91640819D01*
X60962304Y-91640819D02*
X60962304Y-90640819D01*
X60962304Y-90640819D02*
X60867066Y-90783676D01*
X60867066Y-90783676D02*
X60771828Y-90878914D01*
X60771828Y-90878914D02*
X60676590Y-90926533D01*
X61676590Y-91545580D02*
X61724209Y-91593200D01*
X61724209Y-91593200D02*
X61676590Y-91640819D01*
X61676590Y-91640819D02*
X61628971Y-91593200D01*
X61628971Y-91593200D02*
X61676590Y-91545580D01*
X61676590Y-91545580D02*
X61676590Y-91640819D01*
X62343256Y-90640819D02*
X62438494Y-90640819D01*
X62438494Y-90640819D02*
X62533732Y-90688438D01*
X62533732Y-90688438D02*
X62581351Y-90736057D01*
X62581351Y-90736057D02*
X62628970Y-90831295D01*
X62628970Y-90831295D02*
X62676589Y-91021771D01*
X62676589Y-91021771D02*
X62676589Y-91259866D01*
X62676589Y-91259866D02*
X62628970Y-91450342D01*
X62628970Y-91450342D02*
X62581351Y-91545580D01*
X62581351Y-91545580D02*
X62533732Y-91593200D01*
X62533732Y-91593200D02*
X62438494Y-91640819D01*
X62438494Y-91640819D02*
X62343256Y-91640819D01*
X62343256Y-91640819D02*
X62248018Y-91593200D01*
X62248018Y-91593200D02*
X62200399Y-91545580D01*
X62200399Y-91545580D02*
X62152780Y-91450342D01*
X62152780Y-91450342D02*
X62105161Y-91259866D01*
X62105161Y-91259866D02*
X62105161Y-91021771D01*
X62105161Y-91021771D02*
X62152780Y-90831295D01*
X62152780Y-90831295D02*
X62200399Y-90736057D01*
X62200399Y-90736057D02*
X62248018Y-90688438D01*
X62248018Y-90688438D02*
X62343256Y-90640819D01*
X52724207Y-93155524D02*
X52676588Y-93203144D01*
X52676588Y-93203144D02*
X52533731Y-93250763D01*
X52533731Y-93250763D02*
X52438493Y-93250763D01*
X52438493Y-93250763D02*
X52295636Y-93203144D01*
X52295636Y-93203144D02*
X52200398Y-93107905D01*
X52200398Y-93107905D02*
X52152779Y-93012667D01*
X52152779Y-93012667D02*
X52105160Y-92822191D01*
X52105160Y-92822191D02*
X52105160Y-92679334D01*
X52105160Y-92679334D02*
X52152779Y-92488858D01*
X52152779Y-92488858D02*
X52200398Y-92393620D01*
X52200398Y-92393620D02*
X52295636Y-92298382D01*
X52295636Y-92298382D02*
X52438493Y-92250763D01*
X52438493Y-92250763D02*
X52533731Y-92250763D01*
X52533731Y-92250763D02*
X52676588Y-92298382D01*
X52676588Y-92298382D02*
X52724207Y-92346001D01*
X53724207Y-93155524D02*
X53676588Y-93203144D01*
X53676588Y-93203144D02*
X53533731Y-93250763D01*
X53533731Y-93250763D02*
X53438493Y-93250763D01*
X53438493Y-93250763D02*
X53295636Y-93203144D01*
X53295636Y-93203144D02*
X53200398Y-93107905D01*
X53200398Y-93107905D02*
X53152779Y-93012667D01*
X53152779Y-93012667D02*
X53105160Y-92822191D01*
X53105160Y-92822191D02*
X53105160Y-92679334D01*
X53105160Y-92679334D02*
X53152779Y-92488858D01*
X53152779Y-92488858D02*
X53200398Y-92393620D01*
X53200398Y-92393620D02*
X53295636Y-92298382D01*
X53295636Y-92298382D02*
X53438493Y-92250763D01*
X53438493Y-92250763D02*
X53533731Y-92250763D01*
X53533731Y-92250763D02*
X53676588Y-92298382D01*
X53676588Y-92298382D02*
X53724207Y-92346001D01*
X55248017Y-92726953D02*
X55390874Y-92774572D01*
X55390874Y-92774572D02*
X55438493Y-92822191D01*
X55438493Y-92822191D02*
X55486112Y-92917429D01*
X55486112Y-92917429D02*
X55486112Y-93060286D01*
X55486112Y-93060286D02*
X55438493Y-93155524D01*
X55438493Y-93155524D02*
X55390874Y-93203144D01*
X55390874Y-93203144D02*
X55295636Y-93250763D01*
X55295636Y-93250763D02*
X54914684Y-93250763D01*
X54914684Y-93250763D02*
X54914684Y-92250763D01*
X54914684Y-92250763D02*
X55248017Y-92250763D01*
X55248017Y-92250763D02*
X55343255Y-92298382D01*
X55343255Y-92298382D02*
X55390874Y-92346001D01*
X55390874Y-92346001D02*
X55438493Y-92441239D01*
X55438493Y-92441239D02*
X55438493Y-92536477D01*
X55438493Y-92536477D02*
X55390874Y-92631715D01*
X55390874Y-92631715D02*
X55343255Y-92679334D01*
X55343255Y-92679334D02*
X55248017Y-92726953D01*
X55248017Y-92726953D02*
X54914684Y-92726953D01*
X56105160Y-92774572D02*
X56105160Y-93250763D01*
X55771827Y-92250763D02*
X56105160Y-92774572D01*
X56105160Y-92774572D02*
X56438493Y-92250763D01*
X56771827Y-92869810D02*
X57533732Y-92869810D01*
X57962303Y-93203144D02*
X58105160Y-93250763D01*
X58105160Y-93250763D02*
X58343255Y-93250763D01*
X58343255Y-93250763D02*
X58438493Y-93203144D01*
X58438493Y-93203144D02*
X58486112Y-93155524D01*
X58486112Y-93155524D02*
X58533731Y-93060286D01*
X58533731Y-93060286D02*
X58533731Y-92965048D01*
X58533731Y-92965048D02*
X58486112Y-92869810D01*
X58486112Y-92869810D02*
X58438493Y-92822191D01*
X58438493Y-92822191D02*
X58343255Y-92774572D01*
X58343255Y-92774572D02*
X58152779Y-92726953D01*
X58152779Y-92726953D02*
X58057541Y-92679334D01*
X58057541Y-92679334D02*
X58009922Y-92631715D01*
X58009922Y-92631715D02*
X57962303Y-92536477D01*
X57962303Y-92536477D02*
X57962303Y-92441239D01*
X57962303Y-92441239D02*
X58009922Y-92346001D01*
X58009922Y-92346001D02*
X58057541Y-92298382D01*
X58057541Y-92298382D02*
X58152779Y-92250763D01*
X58152779Y-92250763D02*
X58390874Y-92250763D01*
X58390874Y-92250763D02*
X58533731Y-92298382D01*
X58914684Y-92965048D02*
X59390874Y-92965048D01*
X58819446Y-93250763D02*
X59152779Y-92250763D01*
X59152779Y-92250763D02*
X59486112Y-93250763D01*
X64984333Y-98052580D02*
X64936714Y-98100200D01*
X64936714Y-98100200D02*
X64793857Y-98147819D01*
X64793857Y-98147819D02*
X64698619Y-98147819D01*
X64698619Y-98147819D02*
X64555762Y-98100200D01*
X64555762Y-98100200D02*
X64460524Y-98004961D01*
X64460524Y-98004961D02*
X64412905Y-97909723D01*
X64412905Y-97909723D02*
X64365286Y-97719247D01*
X64365286Y-97719247D02*
X64365286Y-97576390D01*
X64365286Y-97576390D02*
X64412905Y-97385914D01*
X64412905Y-97385914D02*
X64460524Y-97290676D01*
X64460524Y-97290676D02*
X64555762Y-97195438D01*
X64555762Y-97195438D02*
X64698619Y-97147819D01*
X64698619Y-97147819D02*
X64793857Y-97147819D01*
X64793857Y-97147819D02*
X64936714Y-97195438D01*
X64936714Y-97195438D02*
X64984333Y-97243057D01*
X65936714Y-98147819D02*
X65365286Y-98147819D01*
X65651000Y-98147819D02*
X65651000Y-97147819D01*
X65651000Y-97147819D02*
X65555762Y-97290676D01*
X65555762Y-97290676D02*
X65460524Y-97385914D01*
X65460524Y-97385914D02*
X65365286Y-97433533D01*
X64984333Y-101100580D02*
X64936714Y-101148200D01*
X64936714Y-101148200D02*
X64793857Y-101195819D01*
X64793857Y-101195819D02*
X64698619Y-101195819D01*
X64698619Y-101195819D02*
X64555762Y-101148200D01*
X64555762Y-101148200D02*
X64460524Y-101052961D01*
X64460524Y-101052961D02*
X64412905Y-100957723D01*
X64412905Y-100957723D02*
X64365286Y-100767247D01*
X64365286Y-100767247D02*
X64365286Y-100624390D01*
X64365286Y-100624390D02*
X64412905Y-100433914D01*
X64412905Y-100433914D02*
X64460524Y-100338676D01*
X64460524Y-100338676D02*
X64555762Y-100243438D01*
X64555762Y-100243438D02*
X64698619Y-100195819D01*
X64698619Y-100195819D02*
X64793857Y-100195819D01*
X64793857Y-100195819D02*
X64936714Y-100243438D01*
X64936714Y-100243438D02*
X64984333Y-100291057D01*
X65365286Y-100291057D02*
X65412905Y-100243438D01*
X65412905Y-100243438D02*
X65508143Y-100195819D01*
X65508143Y-100195819D02*
X65746238Y-100195819D01*
X65746238Y-100195819D02*
X65841476Y-100243438D01*
X65841476Y-100243438D02*
X65889095Y-100291057D01*
X65889095Y-100291057D02*
X65936714Y-100386295D01*
X65936714Y-100386295D02*
X65936714Y-100481533D01*
X65936714Y-100481533D02*
X65889095Y-100624390D01*
X65889095Y-100624390D02*
X65317667Y-101195819D01*
X65317667Y-101195819D02*
X65936714Y-101195819D01*
X97710666Y-90132819D02*
X97710666Y-90847104D01*
X97710666Y-90847104D02*
X97663047Y-90989961D01*
X97663047Y-90989961D02*
X97567809Y-91085200D01*
X97567809Y-91085200D02*
X97424952Y-91132819D01*
X97424952Y-91132819D02*
X97329714Y-91132819D01*
X98139238Y-90228057D02*
X98186857Y-90180438D01*
X98186857Y-90180438D02*
X98282095Y-90132819D01*
X98282095Y-90132819D02*
X98520190Y-90132819D01*
X98520190Y-90132819D02*
X98615428Y-90180438D01*
X98615428Y-90180438D02*
X98663047Y-90228057D01*
X98663047Y-90228057D02*
X98710666Y-90323295D01*
X98710666Y-90323295D02*
X98710666Y-90418533D01*
X98710666Y-90418533D02*
X98663047Y-90561390D01*
X98663047Y-90561390D02*
X98091619Y-91132819D01*
X98091619Y-91132819D02*
X98710666Y-91132819D01*
X97765519Y-94995999D02*
X98003614Y-94995999D01*
X97908376Y-95234094D02*
X98003614Y-94995999D01*
X98003614Y-94995999D02*
X97908376Y-94757904D01*
X98194090Y-95138856D02*
X98003614Y-94995999D01*
X98003614Y-94995999D02*
X98194090Y-94853142D01*
X94702333Y-87989580D02*
X94654714Y-88037200D01*
X94654714Y-88037200D02*
X94511857Y-88084819D01*
X94511857Y-88084819D02*
X94416619Y-88084819D01*
X94416619Y-88084819D02*
X94273762Y-88037200D01*
X94273762Y-88037200D02*
X94178524Y-87941961D01*
X94178524Y-87941961D02*
X94130905Y-87846723D01*
X94130905Y-87846723D02*
X94083286Y-87656247D01*
X94083286Y-87656247D02*
X94083286Y-87513390D01*
X94083286Y-87513390D02*
X94130905Y-87322914D01*
X94130905Y-87322914D02*
X94178524Y-87227676D01*
X94178524Y-87227676D02*
X94273762Y-87132438D01*
X94273762Y-87132438D02*
X94416619Y-87084819D01*
X94416619Y-87084819D02*
X94511857Y-87084819D01*
X94511857Y-87084819D02*
X94654714Y-87132438D01*
X94654714Y-87132438D02*
X94702333Y-87180057D01*
X95035667Y-87084819D02*
X95654714Y-87084819D01*
X95654714Y-87084819D02*
X95321381Y-87465771D01*
X95321381Y-87465771D02*
X95464238Y-87465771D01*
X95464238Y-87465771D02*
X95559476Y-87513390D01*
X95559476Y-87513390D02*
X95607095Y-87561009D01*
X95607095Y-87561009D02*
X95654714Y-87656247D01*
X95654714Y-87656247D02*
X95654714Y-87894342D01*
X95654714Y-87894342D02*
X95607095Y-87989580D01*
X95607095Y-87989580D02*
X95559476Y-88037200D01*
X95559476Y-88037200D02*
X95464238Y-88084819D01*
X95464238Y-88084819D02*
X95178524Y-88084819D01*
X95178524Y-88084819D02*
X95083286Y-88037200D01*
X95083286Y-88037200D02*
X95035667Y-87989580D01*
X58467666Y-95466819D02*
X58467666Y-96181104D01*
X58467666Y-96181104D02*
X58420047Y-96323961D01*
X58420047Y-96323961D02*
X58324809Y-96419200D01*
X58324809Y-96419200D02*
X58181952Y-96466819D01*
X58181952Y-96466819D02*
X58086714Y-96466819D01*
X59467666Y-96466819D02*
X58896238Y-96466819D01*
X59181952Y-96466819D02*
X59181952Y-95466819D01*
X59181952Y-95466819D02*
X59086714Y-95609676D01*
X59086714Y-95609676D02*
X58991476Y-95704914D01*
X58991476Y-95704914D02*
X58896238Y-95752533D01*
X91233666Y-105753819D02*
X91233666Y-106468104D01*
X91233666Y-106468104D02*
X91186047Y-106610961D01*
X91186047Y-106610961D02*
X91090809Y-106706200D01*
X91090809Y-106706200D02*
X90947952Y-106753819D01*
X90947952Y-106753819D02*
X90852714Y-106753819D01*
X91614619Y-105753819D02*
X92233666Y-105753819D01*
X92233666Y-105753819D02*
X91900333Y-106134771D01*
X91900333Y-106134771D02*
X92043190Y-106134771D01*
X92043190Y-106134771D02*
X92138428Y-106182390D01*
X92138428Y-106182390D02*
X92186047Y-106230009D01*
X92186047Y-106230009D02*
X92233666Y-106325247D01*
X92233666Y-106325247D02*
X92233666Y-106563342D01*
X92233666Y-106563342D02*
X92186047Y-106658580D01*
X92186047Y-106658580D02*
X92138428Y-106706200D01*
X92138428Y-106706200D02*
X92043190Y-106753819D01*
X92043190Y-106753819D02*
X91757476Y-106753819D01*
X91757476Y-106753819D02*
X91662238Y-106706200D01*
X91662238Y-106706200D02*
X91614619Y-106658580D01*
X66722666Y-105753819D02*
X66722666Y-106468104D01*
X66722666Y-106468104D02*
X66675047Y-106610961D01*
X66675047Y-106610961D02*
X66579809Y-106706200D01*
X66579809Y-106706200D02*
X66436952Y-106753819D01*
X66436952Y-106753819D02*
X66341714Y-106753819D01*
X67627428Y-106087152D02*
X67627428Y-106753819D01*
X67389333Y-105706200D02*
X67151238Y-106420485D01*
X67151238Y-106420485D02*
X67770285Y-106420485D01*
X94702333Y-85195580D02*
X94654714Y-85243200D01*
X94654714Y-85243200D02*
X94511857Y-85290819D01*
X94511857Y-85290819D02*
X94416619Y-85290819D01*
X94416619Y-85290819D02*
X94273762Y-85243200D01*
X94273762Y-85243200D02*
X94178524Y-85147961D01*
X94178524Y-85147961D02*
X94130905Y-85052723D01*
X94130905Y-85052723D02*
X94083286Y-84862247D01*
X94083286Y-84862247D02*
X94083286Y-84719390D01*
X94083286Y-84719390D02*
X94130905Y-84528914D01*
X94130905Y-84528914D02*
X94178524Y-84433676D01*
X94178524Y-84433676D02*
X94273762Y-84338438D01*
X94273762Y-84338438D02*
X94416619Y-84290819D01*
X94416619Y-84290819D02*
X94511857Y-84290819D01*
X94511857Y-84290819D02*
X94654714Y-84338438D01*
X94654714Y-84338438D02*
X94702333Y-84386057D01*
X95559476Y-84624152D02*
X95559476Y-85290819D01*
X95321381Y-84243200D02*
X95083286Y-84957485D01*
X95083286Y-84957485D02*
X95702333Y-84957485D01*
X64984333Y-104213819D02*
X64651000Y-103737628D01*
X64412905Y-104213819D02*
X64412905Y-103213819D01*
X64412905Y-103213819D02*
X64793857Y-103213819D01*
X64793857Y-103213819D02*
X64889095Y-103261438D01*
X64889095Y-103261438D02*
X64936714Y-103309057D01*
X64936714Y-103309057D02*
X64984333Y-103404295D01*
X64984333Y-103404295D02*
X64984333Y-103547152D01*
X64984333Y-103547152D02*
X64936714Y-103642390D01*
X64936714Y-103642390D02*
X64889095Y-103690009D01*
X64889095Y-103690009D02*
X64793857Y-103737628D01*
X64793857Y-103737628D02*
X64412905Y-103737628D01*
X65365286Y-103309057D02*
X65412905Y-103261438D01*
X65412905Y-103261438D02*
X65508143Y-103213819D01*
X65508143Y-103213819D02*
X65746238Y-103213819D01*
X65746238Y-103213819D02*
X65841476Y-103261438D01*
X65841476Y-103261438D02*
X65889095Y-103309057D01*
X65889095Y-103309057D02*
X65936714Y-103404295D01*
X65936714Y-103404295D02*
X65936714Y-103499533D01*
X65936714Y-103499533D02*
X65889095Y-103642390D01*
X65889095Y-103642390D02*
X65317667Y-104213819D01*
X65317667Y-104213819D02*
X65936714Y-104213819D01*
X94702333Y-82401580D02*
X94654714Y-82449200D01*
X94654714Y-82449200D02*
X94511857Y-82496819D01*
X94511857Y-82496819D02*
X94416619Y-82496819D01*
X94416619Y-82496819D02*
X94273762Y-82449200D01*
X94273762Y-82449200D02*
X94178524Y-82353961D01*
X94178524Y-82353961D02*
X94130905Y-82258723D01*
X94130905Y-82258723D02*
X94083286Y-82068247D01*
X94083286Y-82068247D02*
X94083286Y-81925390D01*
X94083286Y-81925390D02*
X94130905Y-81734914D01*
X94130905Y-81734914D02*
X94178524Y-81639676D01*
X94178524Y-81639676D02*
X94273762Y-81544438D01*
X94273762Y-81544438D02*
X94416619Y-81496819D01*
X94416619Y-81496819D02*
X94511857Y-81496819D01*
X94511857Y-81496819D02*
X94654714Y-81544438D01*
X94654714Y-81544438D02*
X94702333Y-81592057D01*
X95607095Y-81496819D02*
X95130905Y-81496819D01*
X95130905Y-81496819D02*
X95083286Y-81973009D01*
X95083286Y-81973009D02*
X95130905Y-81925390D01*
X95130905Y-81925390D02*
X95226143Y-81877771D01*
X95226143Y-81877771D02*
X95464238Y-81877771D01*
X95464238Y-81877771D02*
X95559476Y-81925390D01*
X95559476Y-81925390D02*
X95607095Y-81973009D01*
X95607095Y-81973009D02*
X95654714Y-82068247D01*
X95654714Y-82068247D02*
X95654714Y-82306342D01*
X95654714Y-82306342D02*
X95607095Y-82401580D01*
X95607095Y-82401580D02*
X95559476Y-82449200D01*
X95559476Y-82449200D02*
X95464238Y-82496819D01*
X95464238Y-82496819D02*
X95226143Y-82496819D01*
X95226143Y-82496819D02*
X95130905Y-82449200D01*
X95130905Y-82449200D02*
X95083286Y-82401580D01*
X64984333Y-95069819D02*
X64651000Y-94593628D01*
X64412905Y-95069819D02*
X64412905Y-94069819D01*
X64412905Y-94069819D02*
X64793857Y-94069819D01*
X64793857Y-94069819D02*
X64889095Y-94117438D01*
X64889095Y-94117438D02*
X64936714Y-94165057D01*
X64936714Y-94165057D02*
X64984333Y-94260295D01*
X64984333Y-94260295D02*
X64984333Y-94403152D01*
X64984333Y-94403152D02*
X64936714Y-94498390D01*
X64936714Y-94498390D02*
X64889095Y-94546009D01*
X64889095Y-94546009D02*
X64793857Y-94593628D01*
X64793857Y-94593628D02*
X64412905Y-94593628D01*
X65936714Y-95069819D02*
X65365286Y-95069819D01*
X65651000Y-95069819D02*
X65651000Y-94069819D01*
X65651000Y-94069819D02*
X65555762Y-94212676D01*
X65555762Y-94212676D02*
X65460524Y-94307914D01*
X65460524Y-94307914D02*
X65365286Y-94355533D01*
X72834667Y-89561200D02*
X72977524Y-89608819D01*
X72977524Y-89608819D02*
X73215619Y-89608819D01*
X73215619Y-89608819D02*
X73310857Y-89561200D01*
X73310857Y-89561200D02*
X73358476Y-89513580D01*
X73358476Y-89513580D02*
X73406095Y-89418342D01*
X73406095Y-89418342D02*
X73406095Y-89323104D01*
X73406095Y-89323104D02*
X73358476Y-89227866D01*
X73358476Y-89227866D02*
X73310857Y-89180247D01*
X73310857Y-89180247D02*
X73215619Y-89132628D01*
X73215619Y-89132628D02*
X73025143Y-89085009D01*
X73025143Y-89085009D02*
X72929905Y-89037390D01*
X72929905Y-89037390D02*
X72882286Y-88989771D01*
X72882286Y-88989771D02*
X72834667Y-88894533D01*
X72834667Y-88894533D02*
X72834667Y-88799295D01*
X72834667Y-88799295D02*
X72882286Y-88704057D01*
X72882286Y-88704057D02*
X72929905Y-88656438D01*
X72929905Y-88656438D02*
X73025143Y-88608819D01*
X73025143Y-88608819D02*
X73263238Y-88608819D01*
X73263238Y-88608819D02*
X73406095Y-88656438D01*
X73739429Y-88608819D02*
X73977524Y-89608819D01*
X73977524Y-89608819D02*
X74168000Y-88894533D01*
X74168000Y-88894533D02*
X74358476Y-89608819D01*
X74358476Y-89608819D02*
X74596572Y-88608819D01*
X75501333Y-89608819D02*
X74929905Y-89608819D01*
X75215619Y-89608819D02*
X75215619Y-88608819D01*
X75215619Y-88608819D02*
X75120381Y-88751676D01*
X75120381Y-88751676D02*
X75025143Y-88846914D01*
X75025143Y-88846914D02*
X74929905Y-88894533D01*
D11*
X79223809Y-80967959D02*
X79465714Y-80967959D01*
X79465714Y-80967959D02*
X79586666Y-81028435D01*
X79586666Y-81028435D02*
X79707619Y-81149387D01*
X79707619Y-81149387D02*
X79768095Y-81391292D01*
X79768095Y-81391292D02*
X79768095Y-81814625D01*
X79768095Y-81814625D02*
X79707619Y-82056530D01*
X79707619Y-82056530D02*
X79586666Y-82177483D01*
X79586666Y-82177483D02*
X79465714Y-82237959D01*
X79465714Y-82237959D02*
X79223809Y-82237959D01*
X79223809Y-82237959D02*
X79102857Y-82177483D01*
X79102857Y-82177483D02*
X78981904Y-82056530D01*
X78981904Y-82056530D02*
X78921428Y-81814625D01*
X78921428Y-81814625D02*
X78921428Y-81391292D01*
X78921428Y-81391292D02*
X78981904Y-81149387D01*
X78981904Y-81149387D02*
X79102857Y-81028435D01*
X79102857Y-81028435D02*
X79223809Y-80967959D01*
X80312380Y-82237959D02*
X80312380Y-80967959D01*
X80312380Y-80967959D02*
X81038095Y-82237959D01*
X81038095Y-82237959D02*
X81038095Y-80967959D01*
X66989476Y-80967959D02*
X67231381Y-80967959D01*
X67231381Y-80967959D02*
X67352333Y-81028435D01*
X67352333Y-81028435D02*
X67473286Y-81149387D01*
X67473286Y-81149387D02*
X67533762Y-81391292D01*
X67533762Y-81391292D02*
X67533762Y-81814625D01*
X67533762Y-81814625D02*
X67473286Y-82056530D01*
X67473286Y-82056530D02*
X67352333Y-82177483D01*
X67352333Y-82177483D02*
X67231381Y-82237959D01*
X67231381Y-82237959D02*
X66989476Y-82237959D01*
X66989476Y-82237959D02*
X66868524Y-82177483D01*
X66868524Y-82177483D02*
X66747571Y-82056530D01*
X66747571Y-82056530D02*
X66687095Y-81814625D01*
X66687095Y-81814625D02*
X66687095Y-81391292D01*
X66687095Y-81391292D02*
X66747571Y-81149387D01*
X66747571Y-81149387D02*
X66868524Y-81028435D01*
X66868524Y-81028435D02*
X66989476Y-80967959D01*
X68501381Y-81572721D02*
X68078047Y-81572721D01*
X68078047Y-82237959D02*
X68078047Y-80967959D01*
X68078047Y-80967959D02*
X68682809Y-80967959D01*
X69589952Y-81572721D02*
X69166618Y-81572721D01*
X69166618Y-82237959D02*
X69166618Y-80967959D01*
X69166618Y-80967959D02*
X69771380Y-80967959D01*
D12*
X84669333Y-97895580D02*
X84621714Y-97943200D01*
X84621714Y-97943200D02*
X84478857Y-97990819D01*
X84478857Y-97990819D02*
X84383619Y-97990819D01*
X84383619Y-97990819D02*
X84240762Y-97943200D01*
X84240762Y-97943200D02*
X84145524Y-97847961D01*
X84145524Y-97847961D02*
X84097905Y-97752723D01*
X84097905Y-97752723D02*
X84050286Y-97562247D01*
X84050286Y-97562247D02*
X84050286Y-97419390D01*
X84050286Y-97419390D02*
X84097905Y-97228914D01*
X84097905Y-97228914D02*
X84145524Y-97133676D01*
X84145524Y-97133676D02*
X84240762Y-97038438D01*
X84240762Y-97038438D02*
X84383619Y-96990819D01*
X84383619Y-96990819D02*
X84478857Y-96990819D01*
X84478857Y-96990819D02*
X84621714Y-97038438D01*
X84621714Y-97038438D02*
X84669333Y-97086057D01*
X85526476Y-96990819D02*
X85336000Y-96990819D01*
X85336000Y-96990819D02*
X85240762Y-97038438D01*
X85240762Y-97038438D02*
X85193143Y-97086057D01*
X85193143Y-97086057D02*
X85097905Y-97228914D01*
X85097905Y-97228914D02*
X85050286Y-97419390D01*
X85050286Y-97419390D02*
X85050286Y-97800342D01*
X85050286Y-97800342D02*
X85097905Y-97895580D01*
X85097905Y-97895580D02*
X85145524Y-97943200D01*
X85145524Y-97943200D02*
X85240762Y-97990819D01*
X85240762Y-97990819D02*
X85431238Y-97990819D01*
X85431238Y-97990819D02*
X85526476Y-97943200D01*
X85526476Y-97943200D02*
X85574095Y-97895580D01*
X85574095Y-97895580D02*
X85621714Y-97800342D01*
X85621714Y-97800342D02*
X85621714Y-97562247D01*
X85621714Y-97562247D02*
X85574095Y-97467009D01*
X85574095Y-97467009D02*
X85526476Y-97419390D01*
X85526476Y-97419390D02*
X85431238Y-97371771D01*
X85431238Y-97371771D02*
X85240762Y-97371771D01*
X85240762Y-97371771D02*
X85145524Y-97419390D01*
X85145524Y-97419390D02*
X85097905Y-97467009D01*
X85097905Y-97467009D02*
X85050286Y-97562247D01*
X95591333Y-102436819D02*
X95258000Y-101960628D01*
X95019905Y-102436819D02*
X95019905Y-101436819D01*
X95019905Y-101436819D02*
X95400857Y-101436819D01*
X95400857Y-101436819D02*
X95496095Y-101484438D01*
X95496095Y-101484438D02*
X95543714Y-101532057D01*
X95543714Y-101532057D02*
X95591333Y-101627295D01*
X95591333Y-101627295D02*
X95591333Y-101770152D01*
X95591333Y-101770152D02*
X95543714Y-101865390D01*
X95543714Y-101865390D02*
X95496095Y-101913009D01*
X95496095Y-101913009D02*
X95400857Y-101960628D01*
X95400857Y-101960628D02*
X95019905Y-101960628D01*
X96448476Y-101770152D02*
X96448476Y-102436819D01*
X96210381Y-101389200D02*
X95972286Y-102103485D01*
X95972286Y-102103485D02*
X96591333Y-102103485D01*
X94909666Y-109436819D02*
X94909666Y-110151104D01*
X94909666Y-110151104D02*
X94862047Y-110293961D01*
X94862047Y-110293961D02*
X94766809Y-110389200D01*
X94766809Y-110389200D02*
X94623952Y-110436819D01*
X94623952Y-110436819D02*
X94528714Y-110436819D01*
X95385857Y-110436819D02*
X95385857Y-109436819D01*
X95385857Y-109436819D02*
X95766809Y-109436819D01*
X95766809Y-109436819D02*
X95862047Y-109484438D01*
X95862047Y-109484438D02*
X95909666Y-109532057D01*
X95909666Y-109532057D02*
X95957285Y-109627295D01*
X95957285Y-109627295D02*
X95957285Y-109770152D01*
X95957285Y-109770152D02*
X95909666Y-109865390D01*
X95909666Y-109865390D02*
X95862047Y-109913009D01*
X95862047Y-109913009D02*
X95766809Y-109960628D01*
X95766809Y-109960628D02*
X95385857Y-109960628D01*
X96528714Y-109865390D02*
X96433476Y-109817771D01*
X96433476Y-109817771D02*
X96385857Y-109770152D01*
X96385857Y-109770152D02*
X96338238Y-109674914D01*
X96338238Y-109674914D02*
X96338238Y-109627295D01*
X96338238Y-109627295D02*
X96385857Y-109532057D01*
X96385857Y-109532057D02*
X96433476Y-109484438D01*
X96433476Y-109484438D02*
X96528714Y-109436819D01*
X96528714Y-109436819D02*
X96719190Y-109436819D01*
X96719190Y-109436819D02*
X96814428Y-109484438D01*
X96814428Y-109484438D02*
X96862047Y-109532057D01*
X96862047Y-109532057D02*
X96909666Y-109627295D01*
X96909666Y-109627295D02*
X96909666Y-109674914D01*
X96909666Y-109674914D02*
X96862047Y-109770152D01*
X96862047Y-109770152D02*
X96814428Y-109817771D01*
X96814428Y-109817771D02*
X96719190Y-109865390D01*
X96719190Y-109865390D02*
X96528714Y-109865390D01*
X96528714Y-109865390D02*
X96433476Y-109913009D01*
X96433476Y-109913009D02*
X96385857Y-109960628D01*
X96385857Y-109960628D02*
X96338238Y-110055866D01*
X96338238Y-110055866D02*
X96338238Y-110246342D01*
X96338238Y-110246342D02*
X96385857Y-110341580D01*
X96385857Y-110341580D02*
X96433476Y-110389200D01*
X96433476Y-110389200D02*
X96528714Y-110436819D01*
X96528714Y-110436819D02*
X96719190Y-110436819D01*
X96719190Y-110436819D02*
X96814428Y-110389200D01*
X96814428Y-110389200D02*
X96862047Y-110341580D01*
X96862047Y-110341580D02*
X96909666Y-110246342D01*
X96909666Y-110246342D02*
X96909666Y-110055866D01*
X96909666Y-110055866D02*
X96862047Y-109960628D01*
X96862047Y-109960628D02*
X96814428Y-109913009D01*
X96814428Y-109913009D02*
X96719190Y-109865390D01*
X65619333Y-88084819D02*
X65286000Y-87608628D01*
X65047905Y-88084819D02*
X65047905Y-87084819D01*
X65047905Y-87084819D02*
X65428857Y-87084819D01*
X65428857Y-87084819D02*
X65524095Y-87132438D01*
X65524095Y-87132438D02*
X65571714Y-87180057D01*
X65571714Y-87180057D02*
X65619333Y-87275295D01*
X65619333Y-87275295D02*
X65619333Y-87418152D01*
X65619333Y-87418152D02*
X65571714Y-87513390D01*
X65571714Y-87513390D02*
X65524095Y-87561009D01*
X65524095Y-87561009D02*
X65428857Y-87608628D01*
X65428857Y-87608628D02*
X65047905Y-87608628D01*
X65952667Y-87084819D02*
X66571714Y-87084819D01*
X66571714Y-87084819D02*
X66238381Y-87465771D01*
X66238381Y-87465771D02*
X66381238Y-87465771D01*
X66381238Y-87465771D02*
X66476476Y-87513390D01*
X66476476Y-87513390D02*
X66524095Y-87561009D01*
X66524095Y-87561009D02*
X66571714Y-87656247D01*
X66571714Y-87656247D02*
X66571714Y-87894342D01*
X66571714Y-87894342D02*
X66524095Y-87989580D01*
X66524095Y-87989580D02*
X66476476Y-88037200D01*
X66476476Y-88037200D02*
X66381238Y-88084819D01*
X66381238Y-88084819D02*
X66095524Y-88084819D01*
X66095524Y-88084819D02*
X66000286Y-88037200D01*
X66000286Y-88037200D02*
X65952667Y-87989580D01*
D13*
X62491252Y-96801000D02*
X61968748Y-96801000D01*
X62491252Y-98271000D02*
X61968748Y-98271000D01*
X62491252Y-99849000D02*
X61968748Y-99849000D01*
X62491252Y-101319000D02*
X61968748Y-101319000D01*
D14*
X90436700Y-91871800D02*
X91526360Y-91871800D01*
X90436700Y-98120200D02*
X90436700Y-91871800D01*
X94985840Y-91871800D02*
X101216460Y-91871800D01*
X99311460Y-98120200D02*
X90436700Y-98120200D01*
X106184700Y-97624900D02*
X106184700Y-98120200D01*
X106184700Y-98120200D02*
X105006140Y-98120200D01*
X106885740Y-92367100D02*
X107683300Y-92367100D01*
X107683300Y-92367100D02*
X107683300Y-97624900D01*
X107683300Y-97624900D02*
X106184700Y-97624900D01*
D13*
X91686748Y-86768000D02*
X92209252Y-86768000D01*
X91686748Y-88238000D02*
X92209252Y-88238000D01*
X51671000Y-97120000D02*
X51671000Y-101000000D01*
X53641000Y-95950000D02*
X56141000Y-95950000D01*
X53641000Y-102170000D02*
X56141000Y-102170000D01*
X56141000Y-95950000D02*
X56141000Y-97000000D01*
X56141000Y-97000000D02*
X57131000Y-97000000D01*
X56141000Y-102170000D02*
X56141000Y-101120000D01*
X79268000Y-99823000D02*
X90008000Y-99823000D01*
X79268000Y-104943000D02*
X90008000Y-104943000D01*
X79268000Y-106563000D02*
X79268000Y-99823000D01*
X80838000Y-106563000D02*
X79268000Y-106563000D01*
X90008000Y-99823000D02*
X90008000Y-106563000D01*
X90008000Y-106563000D02*
X81438000Y-106563000D01*
X68768000Y-99823000D02*
X79508000Y-99823000D01*
X68768000Y-104943000D02*
X79508000Y-104943000D01*
X68768000Y-106563000D02*
X68768000Y-99823000D01*
X70338000Y-106563000D02*
X68768000Y-106563000D01*
X79508000Y-99823000D02*
X79508000Y-106563000D01*
X79508000Y-106563000D02*
X70938000Y-106563000D01*
X91686748Y-83974000D02*
X92209252Y-83974000D01*
X91686748Y-85444000D02*
X92209252Y-85444000D01*
X62457064Y-102897000D02*
X62002936Y-102897000D01*
X62457064Y-104367000D02*
X62002936Y-104367000D01*
X91686748Y-81180000D02*
X92209252Y-81180000D01*
X91686748Y-82650000D02*
X92209252Y-82650000D01*
X62457064Y-93753000D02*
X62002936Y-93753000D01*
X62457064Y-95223000D02*
X62002936Y-95223000D01*
D14*
X70688200Y-81940400D02*
X70688200Y-83182460D01*
X70688200Y-84965540D02*
X70688200Y-85722460D01*
X70688200Y-87505540D02*
X70688200Y-88262460D01*
X70688200Y-90045540D02*
X70688200Y-90802460D01*
X70688200Y-92585540D02*
X70688200Y-93342460D01*
X70688200Y-95125540D02*
X70688200Y-96367600D01*
X70688200Y-96367600D02*
X77647800Y-96367600D01*
X77647800Y-81940400D02*
X70688200Y-81940400D01*
X77647800Y-83182460D02*
X77647800Y-81940400D01*
X77647800Y-85722460D02*
X77647800Y-84965540D01*
X77647800Y-88262460D02*
X77647800Y-87505540D01*
X77647800Y-90802460D02*
X77647800Y-90045540D01*
X77647800Y-93342460D02*
X77647800Y-92585540D01*
X77647800Y-96367600D02*
X77647800Y-95125540D01*
D13*
X82176252Y-96801000D02*
X81653748Y-96801000D01*
X82176252Y-98271000D02*
X81653748Y-98271000D01*
X95530936Y-102897000D02*
X95985064Y-102897000D01*
X95530936Y-104367000D02*
X95985064Y-104367000D01*
X94358000Y-107996000D02*
X94358000Y-107396000D01*
X95058000Y-106696000D02*
X96458000Y-106696000D01*
X96458000Y-108696000D02*
X95058000Y-108696000D01*
X97158000Y-107396000D02*
X97158000Y-107996000D01*
X94358000Y-107396000D02*
G75*
G02*
X95058000Y-106696000I700000J0D01*
G01*
X95058000Y-108696000D02*
G75*
G02*
X94358000Y-107996000I0J700000D01*
G01*
X96458000Y-106696000D02*
G75*
G02*
X97158000Y-107396000I1J-699999D01*
G01*
X97158000Y-107996000D02*
G75*
G02*
X96458000Y-108696000I-699999J-1D01*
G01*
X65051000Y-90651064D02*
X65051000Y-90196936D01*
X66521000Y-90651064D02*
X66521000Y-90196936D01*
M02*
