G04 #@! TF.GenerationSoftware,KiCad,Pcbnew,9.0.7-9.0.7~ubuntu24.04.1*
G04 #@! TF.CreationDate,2026-03-19T16:30:49-06:00*
G04 #@! TF.ProjectId,ckt-audiojack,636b742d-6175-4646-996f-6a61636b2e6b,rev?*
G04 #@! TF.SameCoordinates,Original*
G04 #@! TF.FileFunction,Paste,Top*
G04 #@! TF.FilePolarity,Positive*
%FSLAX46Y46*%
G04 Gerber Fmt 4.6, Leading zero omitted, Abs format (unit mm)*
G04 Created by KiCad (PCBNEW 9.0.7-9.0.7~ubuntu24.04.1) date 2026-03-19 16:30:49*
%MOMM*%
%LPD*%
G01*
G04 APERTURE LIST*
%ADD10R,2.209800X2.794000*%
%ADD11R,2.794000X2.794000*%
%ADD12R,2.438400X1.117600*%
G04 APERTURE END LIST*
G36*
G01*
X63680000Y-97061000D02*
X63680000Y-98011000D01*
G75*
G02*
X63430000Y-98261000I-250000J0D01*
G01*
X62930000Y-98261000D01*
G75*
G02*
X62680000Y-98011000I0J250000D01*
G01*
X62680000Y-97061000D01*
G75*
G02*
X62930000Y-96811000I250000J0D01*
G01*
X63430000Y-96811000D01*
G75*
G02*
X63680000Y-97061000I0J-250000D01*
G01*
G37*
G36*
G01*
X61780000Y-97061000D02*
X61780000Y-98011000D01*
G75*
G02*
X61530000Y-98261000I-250000J0D01*
G01*
X61030000Y-98261000D01*
G75*
G02*
X60780000Y-98011000I0J250000D01*
G01*
X60780000Y-97061000D01*
G75*
G02*
X61030000Y-96811000I250000J0D01*
G01*
X61530000Y-96811000D01*
G75*
G02*
X61780000Y-97061000I0J-250000D01*
G01*
G37*
G36*
G01*
X63680000Y-100109000D02*
X63680000Y-101059000D01*
G75*
G02*
X63430000Y-101309000I-250000J0D01*
G01*
X62930000Y-101309000D01*
G75*
G02*
X62680000Y-101059000I0J250000D01*
G01*
X62680000Y-100109000D01*
G75*
G02*
X62930000Y-99859000I250000J0D01*
G01*
X63430000Y-99859000D01*
G75*
G02*
X63680000Y-100109000I0J-250000D01*
G01*
G37*
G36*
G01*
X61780000Y-100109000D02*
X61780000Y-101059000D01*
G75*
G02*
X61530000Y-101309000I-250000J0D01*
G01*
X61030000Y-101309000D01*
G75*
G02*
X60780000Y-101059000I0J250000D01*
G01*
X60780000Y-100109000D01*
G75*
G02*
X61030000Y-99859000I250000J0D01*
G01*
X61530000Y-99859000D01*
G75*
G02*
X61780000Y-100109000I0J-250000D01*
G01*
G37*
D10*
X105448100Y-91295220D03*
D11*
X93256100Y-91295220D03*
D10*
X100749100Y-98696780D03*
X102654100Y-91295220D03*
G36*
G01*
X90498000Y-87978000D02*
X90498000Y-87028000D01*
G75*
G02*
X90748000Y-86778000I250000J0D01*
G01*
X91248000Y-86778000D01*
G75*
G02*
X91498000Y-87028000I0J-250000D01*
G01*
X91498000Y-87978000D01*
G75*
G02*
X91248000Y-88228000I-250000J0D01*
G01*
X90748000Y-88228000D01*
G75*
G02*
X90498000Y-87978000I0J250000D01*
G01*
G37*
G36*
G01*
X92398000Y-87978000D02*
X92398000Y-87028000D01*
G75*
G02*
X92648000Y-86778000I250000J0D01*
G01*
X93148000Y-86778000D01*
G75*
G02*
X93398000Y-87028000I0J-250000D01*
G01*
X93398000Y-87978000D01*
G75*
G02*
X93148000Y-88228000I-250000J0D01*
G01*
X92648000Y-88228000D01*
G75*
G02*
X92398000Y-87978000I0J250000D01*
G01*
G37*
G36*
G01*
X55731000Y-97260000D02*
X56981000Y-97260000D01*
G75*
G02*
X57131000Y-97410000I0J-150000D01*
G01*
X57131000Y-97710000D01*
G75*
G02*
X56981000Y-97860000I-150000J0D01*
G01*
X55731000Y-97860000D01*
G75*
G02*
X55581000Y-97710000I0J150000D01*
G01*
X55581000Y-97410000D01*
G75*
G02*
X55731000Y-97260000I150000J0D01*
G01*
G37*
G36*
G01*
X55731000Y-98260000D02*
X56981000Y-98260000D01*
G75*
G02*
X57131000Y-98410000I0J-150000D01*
G01*
X57131000Y-98710000D01*
G75*
G02*
X56981000Y-98860000I-150000J0D01*
G01*
X55731000Y-98860000D01*
G75*
G02*
X55581000Y-98710000I0J150000D01*
G01*
X55581000Y-98410000D01*
G75*
G02*
X55731000Y-98260000I150000J0D01*
G01*
G37*
G36*
G01*
X55731000Y-99260000D02*
X56981000Y-99260000D01*
G75*
G02*
X57131000Y-99410000I0J-150000D01*
G01*
X57131000Y-99710000D01*
G75*
G02*
X56981000Y-99860000I-150000J0D01*
G01*
X55731000Y-99860000D01*
G75*
G02*
X55581000Y-99710000I0J150000D01*
G01*
X55581000Y-99410000D01*
G75*
G02*
X55731000Y-99260000I150000J0D01*
G01*
G37*
G36*
G01*
X55731000Y-100260000D02*
X56981000Y-100260000D01*
G75*
G02*
X57131000Y-100410000I0J-150000D01*
G01*
X57131000Y-100710000D01*
G75*
G02*
X56981000Y-100860000I-150000J0D01*
G01*
X55731000Y-100860000D01*
G75*
G02*
X55581000Y-100710000I0J150000D01*
G01*
X55581000Y-100410000D01*
G75*
G02*
X55731000Y-100260000I150000J0D01*
G01*
G37*
G36*
G01*
X51831000Y-95660000D02*
X53131000Y-95660000D01*
G75*
G02*
X53381000Y-95910000I0J-250000D01*
G01*
X53381000Y-96610000D01*
G75*
G02*
X53131000Y-96860000I-250000J0D01*
G01*
X51831000Y-96860000D01*
G75*
G02*
X51581000Y-96610000I0J250000D01*
G01*
X51581000Y-95910000D01*
G75*
G02*
X51831000Y-95660000I250000J0D01*
G01*
G37*
G36*
G01*
X51831000Y-101260000D02*
X53131000Y-101260000D01*
G75*
G02*
X53381000Y-101510000I0J-250000D01*
G01*
X53381000Y-102210000D01*
G75*
G02*
X53131000Y-102460000I-250000J0D01*
G01*
X51831000Y-102460000D01*
G75*
G02*
X51581000Y-102210000I0J250000D01*
G01*
X51581000Y-101510000D01*
G75*
G02*
X51831000Y-101260000I250000J0D01*
G01*
G37*
G36*
G01*
X90498000Y-85184000D02*
X90498000Y-84234000D01*
G75*
G02*
X90748000Y-83984000I250000J0D01*
G01*
X91248000Y-83984000D01*
G75*
G02*
X91498000Y-84234000I0J-250000D01*
G01*
X91498000Y-85184000D01*
G75*
G02*
X91248000Y-85434000I-250000J0D01*
G01*
X90748000Y-85434000D01*
G75*
G02*
X90498000Y-85184000I0J250000D01*
G01*
G37*
G36*
G01*
X92398000Y-85184000D02*
X92398000Y-84234000D01*
G75*
G02*
X92648000Y-83984000I250000J0D01*
G01*
X93148000Y-83984000D01*
G75*
G02*
X93398000Y-84234000I0J-250000D01*
G01*
X93398000Y-85184000D01*
G75*
G02*
X93148000Y-85434000I-250000J0D01*
G01*
X92648000Y-85434000D01*
G75*
G02*
X92398000Y-85184000I0J250000D01*
G01*
G37*
G36*
G01*
X63655000Y-103182000D02*
X63655000Y-104082000D01*
G75*
G02*
X63405000Y-104332000I-250000J0D01*
G01*
X62880000Y-104332000D01*
G75*
G02*
X62630000Y-104082000I0J250000D01*
G01*
X62630000Y-103182000D01*
G75*
G02*
X62880000Y-102932000I250000J0D01*
G01*
X63405000Y-102932000D01*
G75*
G02*
X63655000Y-103182000I0J-250000D01*
G01*
G37*
G36*
G01*
X61830000Y-103182000D02*
X61830000Y-104082000D01*
G75*
G02*
X61580000Y-104332000I-250000J0D01*
G01*
X61055000Y-104332000D01*
G75*
G02*
X60805000Y-104082000I0J250000D01*
G01*
X60805000Y-103182000D01*
G75*
G02*
X61055000Y-102932000I250000J0D01*
G01*
X61580000Y-102932000D01*
G75*
G02*
X61830000Y-103182000I0J-250000D01*
G01*
G37*
G36*
G01*
X90498000Y-82390000D02*
X90498000Y-81440000D01*
G75*
G02*
X90748000Y-81190000I250000J0D01*
G01*
X91248000Y-81190000D01*
G75*
G02*
X91498000Y-81440000I0J-250000D01*
G01*
X91498000Y-82390000D01*
G75*
G02*
X91248000Y-82640000I-250000J0D01*
G01*
X90748000Y-82640000D01*
G75*
G02*
X90498000Y-82390000I0J250000D01*
G01*
G37*
G36*
G01*
X92398000Y-82390000D02*
X92398000Y-81440000D01*
G75*
G02*
X92648000Y-81190000I250000J0D01*
G01*
X93148000Y-81190000D01*
G75*
G02*
X93398000Y-81440000I0J-250000D01*
G01*
X93398000Y-82390000D01*
G75*
G02*
X93148000Y-82640000I-250000J0D01*
G01*
X92648000Y-82640000D01*
G75*
G02*
X92398000Y-82390000I0J250000D01*
G01*
G37*
G36*
G01*
X63655000Y-94038000D02*
X63655000Y-94938000D01*
G75*
G02*
X63405000Y-95188000I-250000J0D01*
G01*
X62880000Y-95188000D01*
G75*
G02*
X62630000Y-94938000I0J250000D01*
G01*
X62630000Y-94038000D01*
G75*
G02*
X62880000Y-93788000I250000J0D01*
G01*
X63405000Y-93788000D01*
G75*
G02*
X63655000Y-94038000I0J-250000D01*
G01*
G37*
G36*
G01*
X61830000Y-94038000D02*
X61830000Y-94938000D01*
G75*
G02*
X61580000Y-95188000I-250000J0D01*
G01*
X61055000Y-95188000D01*
G75*
G02*
X60805000Y-94938000I0J250000D01*
G01*
X60805000Y-94038000D01*
G75*
G02*
X61055000Y-93788000I250000J0D01*
G01*
X61580000Y-93788000D01*
G75*
G02*
X61830000Y-94038000I0J-250000D01*
G01*
G37*
D12*
X69862700Y-84074000D03*
X69862700Y-86614000D03*
X69862700Y-89154000D03*
X69862700Y-91694000D03*
X69862700Y-94234000D03*
X78473300Y-94234000D03*
X78473300Y-91694000D03*
X78473300Y-89154000D03*
X78473300Y-86614000D03*
X78473300Y-84074000D03*
G36*
G01*
X83365000Y-97061000D02*
X83365000Y-98011000D01*
G75*
G02*
X83115000Y-98261000I-250000J0D01*
G01*
X82615000Y-98261000D01*
G75*
G02*
X82365000Y-98011000I0J250000D01*
G01*
X82365000Y-97061000D01*
G75*
G02*
X82615000Y-96811000I250000J0D01*
G01*
X83115000Y-96811000D01*
G75*
G02*
X83365000Y-97061000I0J-250000D01*
G01*
G37*
G36*
G01*
X81465000Y-97061000D02*
X81465000Y-98011000D01*
G75*
G02*
X81215000Y-98261000I-250000J0D01*
G01*
X80715000Y-98261000D01*
G75*
G02*
X80465000Y-98011000I0J250000D01*
G01*
X80465000Y-97061000D01*
G75*
G02*
X80715000Y-96811000I250000J0D01*
G01*
X81215000Y-96811000D01*
G75*
G02*
X81465000Y-97061000I0J-250000D01*
G01*
G37*
G36*
G01*
X94333000Y-104082000D02*
X94333000Y-103182000D01*
G75*
G02*
X94583000Y-102932000I250000J0D01*
G01*
X95108000Y-102932000D01*
G75*
G02*
X95358000Y-103182000I0J-250000D01*
G01*
X95358000Y-104082000D01*
G75*
G02*
X95108000Y-104332000I-250000J0D01*
G01*
X94583000Y-104332000D01*
G75*
G02*
X94333000Y-104082000I0J250000D01*
G01*
G37*
G36*
G01*
X96158000Y-104082000D02*
X96158000Y-103182000D01*
G75*
G02*
X96408000Y-102932000I250000J0D01*
G01*
X96933000Y-102932000D01*
G75*
G02*
X97183000Y-103182000I0J-250000D01*
G01*
X97183000Y-104082000D01*
G75*
G02*
X96933000Y-104332000I-250000J0D01*
G01*
X96408000Y-104332000D01*
G75*
G02*
X96158000Y-104082000I0J250000D01*
G01*
G37*
G36*
G01*
X66236000Y-91849000D02*
X65336000Y-91849000D01*
G75*
G02*
X65086000Y-91599000I0J250000D01*
G01*
X65086000Y-91074000D01*
G75*
G02*
X65336000Y-90824000I250000J0D01*
G01*
X66236000Y-90824000D01*
G75*
G02*
X66486000Y-91074000I0J-250000D01*
G01*
X66486000Y-91599000D01*
G75*
G02*
X66236000Y-91849000I-250000J0D01*
G01*
G37*
G36*
G01*
X66236000Y-90024000D02*
X65336000Y-90024000D01*
G75*
G02*
X65086000Y-89774000I0J250000D01*
G01*
X65086000Y-89249000D01*
G75*
G02*
X65336000Y-88999000I250000J0D01*
G01*
X66236000Y-88999000D01*
G75*
G02*
X66486000Y-89249000I0J-250000D01*
G01*
X66486000Y-89774000D01*
G75*
G02*
X66236000Y-90024000I-250000J0D01*
G01*
G37*
M02*
